<ttFont>
<head>
    <!-- Most of this table will be recalculated by the compiler -->
    <tableVersion value="1.0"/>
    <fontRevision value="1.106"/>
    <checkSumAdjustment value="0x1878d1b0"/>
    <magicNumber value="0x5f0f3cf5"/>
    <flags value="00000000 00000001"/>
    <unitsPerEm value="1000"/>
    <created value="Mon Sep 16 15:13:23 2019"/>
    <modified value="Mon Sep 16 15:22:46 2019"/>
    <xMin value="-228"/>
    <yMin value="-321"/>
    <xMax value="1971"/>
    <yMax value="1329"/>
    <macStyle value="00000000 00000000"/>
    <lowestRecPPEM value="6"/>
    <fontDirectionHint value="2"/>
    <indexToLocFormat value="0"/>
    <glyphDataFormat value="0"/>
  </head>
    <TTGlyph name=".notdef" xMin="-1" yMin="-180" xMax="449" yMax="720">
      <contour>
        <pt x="-1" y="-180" on="1"/>
        <pt x="-1" y="720" on="1"/>
        <pt x="449" y="720" on="1"/>
        <pt x="449" y="-180" on="1"/>
      </contour>
      <contour>
        <pt x="224" y="324" on="1"/>
        <pt x="385" y="675" on="1"/>
        <pt x="63" y="675" on="1"/>
      </contour>
      <contour>
        <pt x="44" y="-68" on="1"/>
        <pt x="199" y="270" on="1"/>
        <pt x="44" y="608" on="1"/>
      </contour>
      <contour>
        <pt x="404" y="-68" on="1"/>
        <pt x="404" y="608" on="1"/>
        <pt x="249" y="270" on="1"/>
      </contour>
      <contour>
        <pt x="63" y="-135" on="1"/>
        <pt x="385" y="-135" on="1"/>
        <pt x="224" y="216" on="1"/>
      </contour>
    </TTGlyph>
    <TTGlyph name="A" xMin="16" yMin="0" xMax="860" yMax="700">
      <contour>
        <pt x="16" y="0" on="1"/>
        <pt x="245" y="700" on="1"/>
        <pt x="631" y="700" on="1"/>
        <pt x="860" y="0" on="1"/>
        <pt x="612" y="0" on="1"/>
        <pt x="570" y="134" on="1"/>
        <pt x="303" y="134" on="1"/>
        <pt x="260" y="0" on="1"/>
      </contour>
      <contour>
        <pt x="417" y="506" on="1"/>
        <pt x="353" y="303" on="1"/>
        <pt x="520" y="303" on="1"/>
        <pt x="455" y="506" on="1"/>
      </contour>
    </TTGlyph>
    <TTGlyph name="A.sc" xMin="23" yMin="0" xMax="780" yMax="605">
      <component glyphName="a.sc" x="0" y="0" flags="0x204"/>
    </TTGlyph>
    <TTGlyph name="AE" xMin="-5" yMin="0" xMax="1232" yMax="700">
      <contour>
        <pt x="586" y="0" on="1"/>
        <pt x="586" y="134" on="1"/>
        <pt x="329" y="134" on="1"/>
        <pt x="257" y="0" on="1"/>
        <pt x="-5" y="0" on="1"/>
        <pt x="382" y="700" on="1"/>
        <pt x="1211" y="700" on="1"/>
        <pt x="1221" y="515" on="1"/>
        <pt x="821" y="515" on="1"/>
        <pt x="821" y="435" on="1"/>
        <pt x="1132" y="435" on="1"/>
        <pt x="1132" y="272" on="1"/>
        <pt x="821" y="272" on="1"/>
        <pt x="821" y="185" on="1"/>
        <pt x="1232" y="185" on="1"/>
        <pt x="1222" y="0" on="1"/>
      </contour>
      <contour>
        <pt x="531" y="513" on="1"/>
        <pt x="418" y="301" on="1"/>
        <pt x="586" y="301" on="1"/>
        <pt x="586" y="513" on="1"/>
      </contour>
    </TTGlyph>
    <TTGlyph name="AE.sc" xMin="-6" yMin="0" xMax="1087" yMax="605">
      <component glyphName="ae.sc" x="0" y="0" flags="0x204"/>
    </TTGlyph>
    <TTGlyph name="AEacute" xMin="-5" yMin="0" xMax="1232" yMax="953">
      <component glyphName="AE" x="0" y="0" flags="0x204"/>
      <component glyphName="acute" x="512" y="141" flags="0x4"/>
    </TTGlyph>
    <TTGlyph name="AEacute.sc" xMin="-6" yMin="0" xMax="1087" yMax="859">
      <component glyphName="aeacute.sc" x="0" y="0" flags="0x204"/>
    </TTGlyph>
    <TTGlyph name="Aacute" xMin="16" yMin="0" xMax="860" yMax="953">
      <component glyphName="A" x="0" y="0" flags="0x204"/>
      <component glyphName="acute" x="240" y="141" flags="0x4"/>
    </TTGlyph>
    <TTGlyph name="Aacute.sc" xMin="23" yMin="0" xMax="780" yMax="859">
      <component glyphName="aacute.sc" x="0" y="0" flags="0x204"/>
    </TTGlyph>
    <TTGlyph name="Abreve" xMin="16" yMin="0" xMax="860" yMax="987">
      <component glyphName="A" x="0" y="0" flags="0x204"/>
      <component glyphName="breve" x="187" y="141" flags="0x4"/>
    </TTGlyph>
    <TTGlyph name="Abreve.sc" xMin="23" yMin="0" xMax="780" yMax="893">
      <component glyphName="abreve.sc" x="0" y="0" flags="0x204"/>
    </TTGlyph>
    <TTGlyph name="Acircumflex" xMin="16" yMin="0" xMax="860" yMax="971">
      <component glyphName="A" x="0" y="0" flags="0x204"/>
      <component glyphName="circumflex" x="187" y="141" flags="0x4"/>
    </TTGlyph>
    <TTGlyph name="Acircumflex.sc" xMin="23" yMin="0" xMax="780" yMax="877">
      <component glyphName="acircumflex.sc" x="0" y="0" flags="0x204"/>
    </TTGlyph>
    <TTGlyph name="Adieresis" xMin="16" yMin="0" xMax="860" yMax="964">
      <component glyphName="A" x="0" y="0" flags="0x204"/>
      <component glyphName="dieresis" x="187" y="141" flags="0x4"/>
    </TTGlyph>
    <TTGlyph name="Adieresis.sc" xMin="23" yMin="0" xMax="780" yMax="870">
      <component glyphName="adieresis.sc" x="0" y="0" flags="0x204"/>
    </TTGlyph>
    <TTGlyph name="Agrave" xMin="16" yMin="0" xMax="860" yMax="953">
      <component glyphName="A" x="0" y="0" flags="0x204"/>
      <component glyphName="grave" x="135" y="141" flags="0x4"/>
    </TTGlyph>
    <TTGlyph name="Agrave.sc" xMin="23" yMin="0" xMax="780" yMax="859">
      <component glyphName="agrave.sc" x="0" y="0" flags="0x204"/>
    </TTGlyph>
    <TTGlyph name="Amacron" xMin="16" yMin="0" xMax="860" yMax="935">
      <component glyphName="A" x="0" y="0" flags="0x204"/>
      <component glyphName="macron" x="187" y="141" flags="0x4"/>
    </TTGlyph>
    <TTGlyph name="Amacron.sc" xMin="23" yMin="0" xMax="780" yMax="841">
      <component glyphName="amacron.sc" x="0" y="0" flags="0x204"/>
    </TTGlyph>
    <TTGlyph name="Aogonek" xMin="16" yMin="-318" xMax="883" yMax="700">
      <component glyphName="A" x="0" y="0" flags="0x204"/>
      <component glyphName="ogonek" x="458" y="0" flags="0x4"/>
    </TTGlyph>
    <TTGlyph name="Aogonek.sc" xMin="23" yMin="-318" xMax="803" yMax="605">
      <component glyphName="aogonek.sc" x="0" y="0" flags="0x204"/>
    </TTGlyph>
    <TTGlyph name="Aring" xMin="16" yMin="0" xMax="860" yMax="1091">
      <component glyphName="A" x="0" y="0" flags="0x204"/>
      <component glyphName="ring" x="131" y="141" flags="0x4"/>
    </TTGlyph>
    <TTGlyph name="Aring.sc" xMin="23" yMin="0" xMax="780" yMax="997">
      <component glyphName="aring.sc" x="0" y="0" flags="0x204"/>
    </TTGlyph>
    <TTGlyph name="Aringacute" xMin="16" yMin="0" xMax="860" yMax="1329">
      <component glyphName="A" x="0" y="0" flags="0x204"/>
      <component glyphName="ring" x="131" y="141" flags="0x4"/>
      <component glyphName="acute" x="243" y="517" flags="0x4"/>
    </TTGlyph>
    <TTGlyph name="Aringacute.sc" xMin="23" yMin="0" xMax="780" yMax="1234">
      <component glyphName="aringacute.sc" x="0" y="0" flags="0x204"/>
    </TTGlyph>
    <TTGlyph name="Atilde" xMin="16" yMin="0" xMax="860" yMax="981">
      <component glyphName="A" x="0" y="0" flags="0x204"/>
      <component glyphName="tilde" x="191" y="141" flags="0x4"/>
    </TTGlyph>
    <TTGlyph name="Atilde.sc" xMin="23" yMin="0" xMax="780" yMax="887">
      <component glyphName="atilde.sc" x="0" y="0" flags="0x204"/>
    </TTGlyph>
    <TTGlyph name="B" xMin="77" yMin="0" xMax="790" yMax="700">
      <contour>
        <pt x="77" y="0" on="1"/>
        <pt x="77" y="700" on="1"/>
        <pt x="540" y="700" on="1"/>
        <pt x="649" y="700" on="0"/>
        <pt x="775" y="611" on="0"/>
        <pt x="775" y="524" on="1"/>
        <pt x="775" y="466" on="0"/>
        <pt x="722" y="384" on="0"/>
        <pt x="658" y="363" on="1"/>
        <pt x="724" y="336" on="0"/>
        <pt x="790" y="259" on="0"/>
        <pt x="790" y="197" on="1"/>
        <pt x="790" y="143" on="0"/>
        <pt x="750" y="67" on="0"/>
        <pt x="680" y="21" on="0"/>
        <pt x="582" y="0" on="0"/>
        <pt x="524" y="0" on="1"/>
      </contour>
      <contour>
        <pt x="312" y="421" on="1"/>
        <pt x="465" y="421" on="1"/>
        <pt x="505" y="421" on="0"/>
        <pt x="540" y="447" on="0"/>
        <pt x="540" y="478" on="1"/>
        <pt x="540" y="506" on="0"/>
        <pt x="503" y="532" on="0"/>
        <pt x="465" y="532" on="1"/>
        <pt x="312" y="532" on="1"/>
      </contour>
      <contour>
        <pt x="312" y="169" on="1"/>
        <pt x="476" y="169" on="1"/>
        <pt x="518" y="170" on="0"/>
        <pt x="554" y="198" on="0"/>
        <pt x="554" y="229" on="1"/>
        <pt x="554" y="258" on="0"/>
        <pt x="517" y="287" on="0"/>
        <pt x="476" y="287" on="1"/>
        <pt x="312" y="287" on="1"/>
      </contour>
    </TTGlyph>
    <TTGlyph name="B.sc" xMin="75" yMin="0" xMax="723" yMax="605">
      <component glyphName="b.sc" x="0" y="0" flags="0x204"/>
    </TTGlyph>
    <TTGlyph name="C" xMin="38" yMin="-19" xMax="717" yMax="719">
      <contour>
        <pt x="443" y="-19" on="1"/>
        <pt x="347" y="-19" on="0"/>
        <pt x="195" y="33" on="0"/>
        <pt x="92" y="128" on="0"/>
        <pt x="38" y="264" on="0"/>
        <pt x="38" y="348" on="1"/>
        <pt x="38" y="432" on="0"/>
        <pt x="96" y="569" on="0"/>
        <pt x="202" y="666" on="0"/>
        <pt x="354" y="719" on="0"/>
        <pt x="448" y="719" on="1"/>
        <pt x="537" y="719" on="0"/>
        <pt x="670" y="677" on="0"/>
        <pt x="717" y="648" on="1"/>
        <pt x="717" y="431" on="1"/>
        <pt x="716" y="431" on="1"/>
        <pt x="656" y="471" on="0"/>
        <pt x="539" y="520" on="0"/>
        <pt x="470" y="520" on="1"/>
        <pt x="383" y="520" on="0"/>
        <pt x="276" y="429" on="0"/>
        <pt x="276" y="349" on="1"/>
        <pt x="276" y="269" on="0"/>
        <pt x="383" y="180" on="0"/>
        <pt x="469" y="180" on="1"/>
        <pt x="540" y="180" on="0"/>
        <pt x="659" y="227" on="0"/>
        <pt x="716" y="270" on="1"/>
        <pt x="717" y="270" on="1"/>
        <pt x="717" y="50" on="1"/>
        <pt x="677" y="25" on="0"/>
        <pt x="536" y="-19" on="0"/>
      </contour>
    </TTGlyph>
    <TTGlyph name="C.sc" xMin="43" yMin="-18" xMax="632" yMax="623">
      <component glyphName="c.sc" x="0" y="0" flags="0x204"/>
    </TTGlyph>
    <TTGlyph name="Cacute" xMin="38" yMin="-19" xMax="717" yMax="973">
      <component glyphName="C" x="0" y="0" flags="0x204"/>
      <component glyphName="acute" x="240" y="161" flags="0x4"/>
    </TTGlyph>
    <TTGlyph name="Cacute.sc" xMin="43" yMin="-18" xMax="654" yMax="877">
      <component glyphName="cacute.sc" x="0" y="0" flags="0x204"/>
    </TTGlyph>
    <TTGlyph name="Ccaron" xMin="38" yMin="-19" xMax="717" yMax="991">
      <component glyphName="C" x="0" y="0" flags="0x204"/>
      <component glyphName="caron" x="187" y="161" flags="0x4"/>
    </TTGlyph>
    <TTGlyph name="Ccaron.sc" xMin="43" yMin="-18" xMax="646" yMax="895">
      <component glyphName="ccaron.sc" x="0" y="0" flags="0x204"/>
    </TTGlyph>
    <TTGlyph name="Ccedilla" xMin="38" yMin="-200" xMax="717" yMax="719">
      <contour>
        <pt x="717" y="50" on="1"/>
        <pt x="685" y="30" on="0"/>
        <pt x="579" y="-8" on="0"/>
        <pt x="510" y="-15" on="1"/>
        <pt x="433" y="-200" on="1"/>
        <pt x="180" y="-200" on="1"/>
        <pt x="180" y="-177" on="1"/>
        <pt x="335" y="-10" on="1"/>
        <pt x="192" y="17" on="0"/>
        <pt x="38" y="205" on="0"/>
        <pt x="38" y="348" on="1"/>
        <pt x="38" y="432" on="0"/>
        <pt x="96" y="569" on="0"/>
        <pt x="202" y="666" on="0"/>
        <pt x="354" y="719" on="0"/>
        <pt x="448" y="719" on="1"/>
        <pt x="537" y="719" on="0"/>
        <pt x="670" y="677" on="0"/>
        <pt x="717" y="648" on="1"/>
        <pt x="717" y="431" on="1"/>
        <pt x="716" y="431" on="1"/>
        <pt x="656" y="471" on="0"/>
        <pt x="539" y="520" on="0"/>
        <pt x="470" y="520" on="1"/>
        <pt x="383" y="520" on="0"/>
        <pt x="276" y="429" on="0"/>
        <pt x="276" y="349" on="1"/>
        <pt x="276" y="269" on="0"/>
        <pt x="383" y="180" on="0"/>
        <pt x="469" y="180" on="1"/>
        <pt x="540" y="180" on="0"/>
        <pt x="659" y="227" on="0"/>
        <pt x="716" y="270" on="1"/>
        <pt x="717" y="270" on="1"/>
      </contour>
    </TTGlyph>
    <TTGlyph name="Ccedilla.sc" xMin="43" yMin="-199" xMax="632" yMax="623">
      <component glyphName="ccedilla.sc" x="0" y="0" flags="0x204"/>
    </TTGlyph>
    <TTGlyph name="Cdotaccent" xMin="38" yMin="-19" xMax="717" yMax="989">
      <component glyphName="C" x="0" y="0" flags="0x204"/>
      <component glyphName="dotaccent" x="188" y="161" flags="0x4"/>
    </TTGlyph>
    <TTGlyph name="Cdotaccent.sc" xMin="43" yMin="-18" xMax="632" yMax="893">
      <component glyphName="cdotaccent.sc" x="0" y="0" flags="0x204"/>
    </TTGlyph>
    <TTGlyph name="D" xMin="77" yMin="0" xMax="822" yMax="700">
      <contour>
        <pt x="77" y="0" on="1"/>
        <pt x="77" y="700" on="1"/>
        <pt x="471" y="700" on="1"/>
        <pt x="634" y="700" on="0"/>
        <pt x="822" y="519" on="0"/>
        <pt x="822" y="350" on="1"/>
        <pt x="822" y="181" on="0"/>
        <pt x="634" y="0" on="0"/>
        <pt x="471" y="0" on="1"/>
      </contour>
      <contour>
        <pt x="314" y="190" on="1"/>
        <pt x="437" y="190" on="1"/>
        <pt x="505" y="190" on="0"/>
        <pt x="584" y="264" on="0"/>
        <pt x="584" y="350" on="1"/>
        <pt x="584" y="435" on="0"/>
        <pt x="505" y="510" on="0"/>
        <pt x="437" y="510" on="1"/>
        <pt x="314" y="510" on="1"/>
      </contour>
    </TTGlyph>
    <TTGlyph name="D.sc" xMin="75" yMin="0" xMax="739" yMax="605">
      <component glyphName="d.sc" x="0" y="0" flags="0x204"/>
    </TTGlyph>
    <TTGlyph name="Dcaron" xMin="77" yMin="0" xMax="822" yMax="971">
      <component glyphName="D" x="0" y="0" flags="0x204"/>
      <component glyphName="caron" x="168" y="141" flags="0x4"/>
    </TTGlyph>
    <TTGlyph name="Dcaron.sc" xMin="75" yMin="0" xMax="739" yMax="877">
      <component glyphName="dcaron.sc" x="0" y="0" flags="0x204"/>
    </TTGlyph>
    <TTGlyph name="Dcroat" xMin="30" yMin="0" xMax="878" yMax="700">
      <component glyphName="Eth" x="0" y="0" flags="0x204"/>
    </TTGlyph>
    <TTGlyph name="Dcroat.sc" xMin="32" yMin="0" xMax="794" yMax="605">
      <component glyphName="dcroat.sc" x="0" y="0" flags="0x204"/>
    </TTGlyph>
    <TTGlyph name="E" xMin="77" yMin="0" xMax="723" yMax="700">
      <contour>
        <pt x="77" y="0" on="1"/>
        <pt x="77" y="700" on="1"/>
        <pt x="702" y="700" on="1"/>
        <pt x="712" y="515" on="1"/>
        <pt x="312" y="515" on="1"/>
        <pt x="312" y="435" on="1"/>
        <pt x="623" y="435" on="1"/>
        <pt x="623" y="272" on="1"/>
        <pt x="312" y="272" on="1"/>
        <pt x="312" y="185" on="1"/>
        <pt x="723" y="185" on="1"/>
        <pt x="713" y="0" on="1"/>
      </contour>
    </TTGlyph>
    <TTGlyph name="E.sc" xMin="75" yMin="0" xMax="648" yMax="605">
      <component glyphName="e.sc" x="0" y="0" flags="0x204"/>
    </TTGlyph>
    <TTGlyph name="Eacute" xMin="77" yMin="0" xMax="723" yMax="953">
      <component glyphName="E" x="0" y="0" flags="0x204"/>
      <component glyphName="acute" x="196" y="141" flags="0x4"/>
    </TTGlyph>
    <TTGlyph name="Eacute.sc" xMin="75" yMin="0" xMax="648" yMax="859">
      <component glyphName="eacute.sc" x="0" y="0" flags="0x204"/>
    </TTGlyph>
    <TTGlyph name="Ebreve" xMin="77" yMin="0" xMax="723" yMax="987">
      <component glyphName="E" x="0" y="0" flags="0x204"/>
      <component glyphName="breve" x="143" y="141" flags="0x4"/>
    </TTGlyph>
    <TTGlyph name="Ebreve.sc" xMin="75" yMin="0" xMax="648" yMax="893">
      <component glyphName="ebreve.sc" x="0" y="0" flags="0x204"/>
    </TTGlyph>
    <TTGlyph name="Ecaron" xMin="77" yMin="0" xMax="723" yMax="971">
      <component glyphName="E" x="0" y="0" flags="0x204"/>
      <component glyphName="caron" x="143" y="141" flags="0x4"/>
    </TTGlyph>
    <TTGlyph name="Ecaron.sc" xMin="75" yMin="0" xMax="648" yMax="877">
      <component glyphName="ecaron.sc" x="0" y="0" flags="0x204"/>
    </TTGlyph>
    <TTGlyph name="Ecircumflex" xMin="77" yMin="0" xMax="723" yMax="971">
      <component glyphName="E" x="0" y="0" flags="0x204"/>
      <component glyphName="circumflex" x="143" y="141" flags="0x4"/>
    </TTGlyph>
    <TTGlyph name="Ecircumflex.sc" xMin="75" yMin="0" xMax="648" yMax="877">
      <component glyphName="ecircumflex.sc" x="0" y="0" flags="0x204"/>
    </TTGlyph>
    <TTGlyph name="Edieresis" xMin="77" yMin="0" xMax="723" yMax="964">
      <component glyphName="E" x="0" y="0" flags="0x204"/>
      <component glyphName="dieresis" x="143" y="141" flags="0x4"/>
    </TTGlyph>
    <TTGlyph name="Edieresis.sc" xMin="75" yMin="0" xMax="648" yMax="870">
      <component glyphName="edieresis.sc" x="0" y="0" flags="0x204"/>
    </TTGlyph>
    <TTGlyph name="Edotaccent" xMin="77" yMin="0" xMax="723" yMax="969">
      <component glyphName="E" x="0" y="0" flags="0x204"/>
      <component glyphName="dotaccent" x="145" y="141" flags="0x4"/>
    </TTGlyph>
    <TTGlyph name="Edotaccent.sc" xMin="75" yMin="0" xMax="648" yMax="875">
      <component glyphName="edotaccent.sc" x="0" y="0" flags="0x204"/>
    </TTGlyph>
    <TTGlyph name="Egrave" xMin="77" yMin="0" xMax="723" yMax="953">
      <component glyphName="E" x="0" y="0" flags="0x204"/>
      <component glyphName="grave" x="91" y="141" flags="0x4"/>
    </TTGlyph>
    <TTGlyph name="Egrave.sc" xMin="75" yMin="0" xMax="648" yMax="859">
      <component glyphName="egrave.sc" x="0" y="0" flags="0x204"/>
    </TTGlyph>
    <TTGlyph name="Emacron" xMin="77" yMin="0" xMax="723" yMax="935">
      <component glyphName="E" x="0" y="0" flags="0x204"/>
      <component glyphName="macron" x="143" y="141" flags="0x4"/>
    </TTGlyph>
    <TTGlyph name="Emacron.sc" xMin="75" yMin="0" xMax="648" yMax="841">
      <component glyphName="emacron.sc" x="0" y="0" flags="0x204"/>
    </TTGlyph>
    <TTGlyph name="Eogonek" xMin="77" yMin="-318" xMax="736" yMax="700">
      <component glyphName="E" x="0" y="0" flags="0x204"/>
      <component glyphName="ogonek" x="311" y="0" flags="0x4"/>
    </TTGlyph>
    <TTGlyph name="Eogonek.sc" xMin="75" yMin="-318" xMax="661" yMax="605">
      <component glyphName="eogonek.sc" x="0" y="0" flags="0x204"/>
    </TTGlyph>
    <TTGlyph name="Eth" xMin="30" yMin="0" xMax="878" yMax="700">
      <contour>
        <pt x="133" y="0" on="1"/>
        <pt x="133" y="271" on="1"/>
        <pt x="30" y="271" on="1"/>
        <pt x="41" y="432" on="1"/>
        <pt x="133" y="432" on="1"/>
        <pt x="133" y="700" on="1"/>
        <pt x="527" y="700" on="1"/>
        <pt x="690" y="700" on="0"/>
        <pt x="878" y="519" on="0"/>
        <pt x="878" y="350" on="1"/>
        <pt x="878" y="181" on="0"/>
        <pt x="690" y="0" on="0"/>
        <pt x="527" y="0" on="1"/>
      </contour>
      <contour>
        <pt x="369" y="188" on="1"/>
        <pt x="494" y="188" on="1"/>
        <pt x="561" y="188" on="0"/>
        <pt x="641" y="263" on="0"/>
        <pt x="641" y="350" on="1"/>
        <pt x="641" y="437" on="0"/>
        <pt x="561" y="512" on="0"/>
        <pt x="494" y="512" on="1"/>
        <pt x="369" y="512" on="1"/>
        <pt x="369" y="422" on="1"/>
        <pt x="520" y="422" on="1"/>
        <pt x="520" y="280" on="1"/>
        <pt x="369" y="280" on="1"/>
      </contour>
    </TTGlyph>
    <TTGlyph name="Eth.sc" xMin="32" yMin="0" xMax="794" yMax="605">
      <component glyphName="eth.sc" x="0" y="0" flags="0x204"/>
    </TTGlyph>
    <TTGlyph name="Euro" xMin="42" yMin="-21" xMax="741" yMax="721">
      <contour>
        <pt x="42" y="198" on="1"/>
        <pt x="55" y="326" on="1"/>
        <pt x="144" y="326" on="1"/>
        <pt x="144" y="330" on="0"/>
        <pt x="144" y="339" on="0"/>
        <pt x="144" y="343" on="1"/>
        <pt x="144" y="353" on="0"/>
        <pt x="144" y="371" on="0"/>
        <pt x="145" y="380" on="1"/>
        <pt x="60" y="380" on="1"/>
        <pt x="73" y="508" on="1"/>
        <pt x="176" y="508" on="1"/>
        <pt x="216" y="602" on="0"/>
        <pt x="398" y="721" on="0"/>
        <pt x="538" y="721" on="1"/>
        <pt x="592" y="721" on="0"/>
        <pt x="695" y="698" on="0"/>
        <pt x="741" y="676" on="1"/>
        <pt x="741" y="499" on="1"/>
        <pt x="740" y="499" on="1"/>
        <pt x="695" y="521" on="0"/>
        <pt x="606" y="547" on="0"/>
        <pt x="558" y="547" on="1"/>
        <pt x="501" y="547" on="0"/>
        <pt x="418" y="514" on="0"/>
        <pt x="394" y="482" on="1"/>
        <pt x="614" y="482" on="1"/>
        <pt x="614" y="380" on="1"/>
        <pt x="358" y="380" on="1"/>
        <pt x="357" y="373" on="0"/>
        <pt x="357" y="356" on="0"/>
        <pt x="357" y="347" on="1"/>
        <pt x="357" y="342" on="0"/>
        <pt x="357" y="331" on="0"/>
        <pt x="358" y="326" on="1"/>
        <pt x="614" y="326" on="1"/>
        <pt x="614" y="224" on="1"/>
        <pt x="386" y="224" on="1"/>
        <pt x="409" y="188" on="0"/>
        <pt x="493" y="152" on="0"/>
        <pt x="556" y="152" on="1"/>
        <pt x="604" y="152" on="0"/>
        <pt x="695" y="177" on="0"/>
        <pt x="740" y="198" on="1"/>
        <pt x="741" y="198" on="1"/>
        <pt x="741" y="20" on="1"/>
        <pt x="696" y="0" on="0"/>
        <pt x="584" y="-21" on="0"/>
        <pt x="531" y="-21" on="1"/>
        <pt x="380" y="-21" on="0"/>
        <pt x="201" y="100" on="0"/>
        <pt x="167" y="198" on="1"/>
      </contour>
    </TTGlyph>
    <TTGlyph name="Euro.tab" xMin="14" yMin="-22" xMax="689" yMax="722">
      <contour>
        <pt x="14" y="198" on="1"/>
        <pt x="26" y="326" on="1"/>
        <pt x="112" y="326" on="1"/>
        <pt x="112" y="330" on="0"/>
        <pt x="112" y="339" on="0"/>
        <pt x="112" y="343" on="1"/>
        <pt x="112" y="353" on="0"/>
        <pt x="112" y="371" on="0"/>
        <pt x="113" y="380" on="1"/>
        <pt x="30" y="380" on="1"/>
        <pt x="43" y="508" on="1"/>
        <pt x="142" y="508" on="1"/>
        <pt x="179" y="604" on="0"/>
        <pt x="356" y="722" on="0"/>
        <pt x="493" y="722" on="1"/>
        <pt x="544" y="722" on="0"/>
        <pt x="645" y="699" on="0"/>
        <pt x="689" y="676" on="1"/>
        <pt x="689" y="502" on="1"/>
        <pt x="688" y="502" on="1"/>
        <pt x="647" y="522" on="0"/>
        <pt x="558" y="549" on="0"/>
        <pt x="510" y="549" on="1"/>
        <pt x="454" y="549" on="0"/>
        <pt x="375" y="517" on="0"/>
        <pt x="352" y="484" on="1"/>
        <pt x="566" y="484" on="1"/>
        <pt x="566" y="380" on="1"/>
        <pt x="320" y="380" on="1"/>
        <pt x="319" y="373" on="0"/>
        <pt x="319" y="356" on="0"/>
        <pt x="319" y="347" on="1"/>
        <pt x="319" y="342" on="0"/>
        <pt x="319" y="331" on="0"/>
        <pt x="320" y="326" on="1"/>
        <pt x="566" y="326" on="1"/>
        <pt x="566" y="222" on="1"/>
        <pt x="346" y="222" on="1"/>
        <pt x="367" y="186" on="0"/>
        <pt x="447" y="150" on="0"/>
        <pt x="508" y="150" on="1"/>
        <pt x="556" y="150" on="0"/>
        <pt x="646" y="175" on="0"/>
        <pt x="688" y="195" on="1"/>
        <pt x="689" y="195" on="1"/>
        <pt x="689" y="20" on="1"/>
        <pt x="645" y="-2" on="0"/>
        <pt x="536" y="-22" on="0"/>
        <pt x="486" y="-22" on="1"/>
        <pt x="338" y="-22" on="0"/>
        <pt x="166" y="99" on="0"/>
        <pt x="133" y="198" on="1"/>
      </contour>
    </TTGlyph>
    <TTGlyph name="F" xMin="77" yMin="0" xMax="700" yMax="700">
      <contour>
        <pt x="77" y="0" on="1"/>
        <pt x="77" y="700" on="1"/>
        <pt x="690" y="700" on="1"/>
        <pt x="700" y="514" on="1"/>
        <pt x="314" y="514" on="1"/>
        <pt x="314" y="404" on="1"/>
        <pt x="628" y="404" on="1"/>
        <pt x="628" y="232" on="1"/>
        <pt x="314" y="232" on="1"/>
        <pt x="314" y="0" on="1"/>
      </contour>
    </TTGlyph>
    <TTGlyph name="F.sc" xMin="75" yMin="0" xMax="630" yMax="605">
      <component glyphName="f.sc" x="0" y="0" flags="0x204"/>
    </TTGlyph>
    <TTGlyph name="G" xMin="37" yMin="-22" xMax="832" yMax="721">
      <contour>
        <pt x="445" y="-22" on="1"/>
        <pt x="349" y="-22" on="0"/>
        <pt x="197" y="29" on="0"/>
        <pt x="92" y="122" on="0"/>
        <pt x="37" y="257" on="0"/>
        <pt x="37" y="339" on="1"/>
        <pt x="37" y="420" on="0"/>
        <pt x="96" y="560" on="0"/>
        <pt x="208" y="662" on="0"/>
        <pt x="373" y="721" on="0"/>
        <pt x="477" y="721" on="1"/>
        <pt x="553" y="721" on="0"/>
        <pt x="696" y="688" on="0"/>
        <pt x="746" y="660" on="1"/>
        <pt x="746" y="459" on="1"/>
        <pt x="745" y="459" on="1"/>
        <pt x="680" y="491" on="0"/>
        <pt x="560" y="527" on="0"/>
        <pt x="491" y="527" on="1"/>
        <pt x="388" y="527" on="0"/>
        <pt x="278" y="426" on="0"/>
        <pt x="278" y="336" on="1"/>
        <pt x="278" y="255" on="0"/>
        <pt x="376" y="162" on="0"/>
        <pt x="470" y="162" on="1"/>
        <pt x="527" y="162" on="0"/>
        <pt x="614" y="209" on="0"/>
        <pt x="618" y="258" on="1"/>
        <pt x="421" y="258" on="1"/>
        <pt x="421" y="416" on="1"/>
        <pt x="828" y="416" on="1"/>
        <pt x="829" y="397" on="0"/>
        <pt x="832" y="351" on="0"/>
        <pt x="832" y="327" on="1"/>
        <pt x="832" y="238" on="0"/>
        <pt x="775" y="106" on="0"/>
        <pt x="674" y="20" on="0"/>
        <pt x="531" y="-22" on="0"/>
      </contour>
    </TTGlyph>
    <TTGlyph name="G.sc" xMin="43" yMin="-21" xMax="736" yMax="623">
      <component glyphName="g.sc" x="0" y="0" flags="0x204"/>
    </TTGlyph>
    <TTGlyph name="Gbreve" xMin="37" yMin="-22" xMax="832" yMax="1009">
      <component glyphName="G" x="0" y="0" flags="0x204"/>
      <component glyphName="breve" x="213" y="163" flags="0x4"/>
    </TTGlyph>
    <TTGlyph name="Gbreve.sc" xMin="43" yMin="-21" xMax="736" yMax="911">
      <component glyphName="gbreve.sc" x="0" y="0" flags="0x204"/>
    </TTGlyph>
    <TTGlyph name="Gdotaccent" xMin="37" yMin="-22" xMax="832" yMax="991">
      <component glyphName="G" x="0" y="0" flags="0x204"/>
      <component glyphName="dotaccent" x="214" y="163" flags="0x4"/>
    </TTGlyph>
    <TTGlyph name="Gdotaccent.sc" xMin="43" yMin="-21" xMax="736" yMax="893">
      <component glyphName="gdotaccent.sc" x="0" y="0" flags="0x204"/>
    </TTGlyph>
    <TTGlyph name="H" xMin="77" yMin="0" xMax="818" yMax="700">
      <contour>
        <pt x="77" y="0" on="1"/>
        <pt x="77" y="700" on="1"/>
        <pt x="314" y="700" on="1"/>
        <pt x="314" y="454" on="1"/>
        <pt x="581" y="454" on="1"/>
        <pt x="581" y="700" on="1"/>
        <pt x="818" y="700" on="1"/>
        <pt x="818" y="0" on="1"/>
        <pt x="581" y="0" on="1"/>
        <pt x="581" y="258" on="1"/>
        <pt x="314" y="258" on="1"/>
        <pt x="314" y="0" on="1"/>
      </contour>
    </TTGlyph>
    <TTGlyph name="H.sc" xMin="75" yMin="0" xMax="740" yMax="605">
      <component glyphName="h.sc" x="0" y="0" flags="0x204"/>
    </TTGlyph>
    <TTGlyph name="Hbar" xMin="30" yMin="0" xMax="978" yMax="700">
      <contour>
        <pt x="133" y="0" on="1"/>
        <pt x="133" y="469" on="1"/>
        <pt x="30" y="469" on="1"/>
        <pt x="40" y="630" on="1"/>
        <pt x="133" y="630" on="1"/>
        <pt x="133" y="700" on="1"/>
        <pt x="369" y="700" on="1"/>
        <pt x="369" y="620" on="1"/>
        <pt x="639" y="620" on="1"/>
        <pt x="639" y="700" on="1"/>
        <pt x="875" y="700" on="1"/>
        <pt x="875" y="630" on="1"/>
        <pt x="968" y="630" on="1"/>
        <pt x="978" y="469" on="1"/>
        <pt x="875" y="469" on="1"/>
        <pt x="875" y="0" on="1"/>
        <pt x="639" y="0" on="1"/>
        <pt x="639" y="211" on="1"/>
        <pt x="369" y="211" on="1"/>
        <pt x="369" y="0" on="1"/>
      </contour>
      <contour>
        <pt x="369" y="407" on="1"/>
        <pt x="639" y="407" on="1"/>
        <pt x="639" y="478" on="1"/>
        <pt x="369" y="478" on="1"/>
      </contour>
    </TTGlyph>
    <TTGlyph name="Hbar.sc" xMin="32" yMin="0" xMax="890" yMax="605">
      <component glyphName="hbar.sc" x="0" y="0" flags="0x204"/>
    </TTGlyph>
    <TTGlyph name="I" xMin="78" yMin="0" xMax="315" yMax="700">
      <contour>
        <pt x="78" y="0" on="1"/>
        <pt x="78" y="700" on="1"/>
        <pt x="315" y="700" on="1"/>
        <pt x="315" y="0" on="1"/>
      </contour>
    </TTGlyph>
    <TTGlyph name="I.sc" xMin="76" yMin="0" xMax="308" yMax="605">
      <component glyphName="i.sc" x="0" y="0" flags="0x204"/>
    </TTGlyph>
    <TTGlyph name="Iacute" xMin="78" yMin="0" xMax="473" yMax="953">
      <component glyphName="I" x="0" y="0" flags="0x204"/>
      <component glyphName="acute" x="13" y="141" flags="0x4"/>
    </TTGlyph>
    <TTGlyph name="Iacute.sc" xMin="76" yMin="0" xMax="468" yMax="859">
      <component glyphName="iacute.sc" x="0" y="0" flags="0x204"/>
    </TTGlyph>
    <TTGlyph name="Ibreve" xMin="-29" yMin="0" xMax="420" yMax="987">
      <component glyphName="I" x="0" y="0" flags="0x204"/>
      <component glyphName="breve" x="-54" y="141" flags="0x4"/>
    </TTGlyph>
    <TTGlyph name="Ibreve.sc" xMin="-33" yMin="0" xMax="416" yMax="893">
      <component glyphName="ibreve.sc" x="0" y="0" flags="0x204"/>
    </TTGlyph>
    <TTGlyph name="Icircumflex" xMin="-59" yMin="0" xMax="451" yMax="971">
      <component glyphName="I" x="0" y="0" flags="0x204"/>
      <component glyphName="circumflex" x="-54" y="141" flags="0x4"/>
    </TTGlyph>
    <TTGlyph name="Icircumflex.sc" xMin="-63" yMin="0" xMax="447" yMax="877">
      <component glyphName="icircumflex.sc" x="0" y="0" flags="0x204"/>
    </TTGlyph>
    <TTGlyph name="Idieresis" xMin="-51" yMin="0" xMax="444" yMax="964">
      <component glyphName="I" x="0" y="0" flags="0x204"/>
      <component glyphName="dieresis" x="-54" y="141" flags="0x4"/>
    </TTGlyph>
    <TTGlyph name="Idieresis.sc" xMin="-55" yMin="0" xMax="440" yMax="870">
      <component glyphName="idieresis.sc" x="0" y="0" flags="0x204"/>
    </TTGlyph>
    <TTGlyph name="Idotaccent" xMin="63" yMin="0" xMax="330" yMax="969">
      <component glyphName="I" x="0" y="0" flags="0x204"/>
      <component glyphName="dotaccent" x="-52" y="141" flags="0x4"/>
    </TTGlyph>
    <TTGlyph name="Idotaccent.sc" xMin="58" yMin="0" xMax="325" yMax="875">
      <component glyphName="idotaccent.sc" x="0" y="0" flags="0x204"/>
    </TTGlyph>
    <TTGlyph name="Igrave" xMin="-79" yMin="0" xMax="315" yMax="953">
      <component glyphName="I" x="0" y="0" flags="0x204"/>
      <component glyphName="grave" x="-120" y="141" flags="0x4"/>
    </TTGlyph>
    <TTGlyph name="Igrave.sc" xMin="-84" yMin="0" xMax="308" yMax="859">
      <component glyphName="igrave.sc" x="0" y="0" flags="0x204"/>
    </TTGlyph>
    <TTGlyph name="Imacron" xMin="-18" yMin="0" xMax="410" yMax="935">
      <component glyphName="I" x="0" y="0" flags="0x204"/>
      <component glyphName="macron" x="-54" y="141" flags="0x4"/>
    </TTGlyph>
    <TTGlyph name="Imacron.sc" xMin="-22" yMin="0" xMax="406" yMax="841">
      <component glyphName="imacron.sc" x="0" y="0" flags="0x204"/>
    </TTGlyph>
    <TTGlyph name="Iogonek" xMin="8" yMin="-318" xMax="338" yMax="700">
      <component glyphName="I" x="0" y="0" flags="0x204"/>
      <component glyphName="ogonek" x="-87" y="0" flags="0x4"/>
    </TTGlyph>
    <TTGlyph name="Iogonek.sc" xMin="1" yMin="-318" xMax="331" yMax="605">
      <component glyphName="iogonek.sc" x="0" y="0" flags="0x204"/>
    </TTGlyph>
    <TTGlyph name="J" xMin="48" yMin="-19" xMax="641" yMax="700">
      <contour>
        <pt x="313" y="-19" on="1"/>
        <pt x="238" y="-19" on="0"/>
        <pt x="108" y="13" on="0"/>
        <pt x="48" y="47" on="1"/>
        <pt x="48" y="254" on="1"/>
        <pt x="49" y="254" on="1"/>
        <pt x="104" y="217" on="0"/>
        <pt x="220" y="181" on="0"/>
        <pt x="271" y="181" on="1"/>
        <pt x="331" y="181" on="0"/>
        <pt x="403" y="230" on="0"/>
        <pt x="403" y="293" on="1"/>
        <pt x="403" y="515" on="1"/>
        <pt x="160" y="515" on="1"/>
        <pt x="170" y="700" on="1"/>
        <pt x="641" y="700" on="1"/>
        <pt x="641" y="253" on="1"/>
        <pt x="641" y="113" on="0"/>
        <pt x="467" y="-19" on="0"/>
      </contour>
    </TTGlyph>
    <TTGlyph name="J.sc" xMin="50" yMin="-18" xMax="580" yMax="605">
      <component glyphName="j.sc" x="0" y="0" flags="0x204"/>
    </TTGlyph>
    <TTGlyph name="K" xMin="77" yMin="0" xMax="856" yMax="700">
      <contour>
        <pt x="77" y="0" on="1"/>
        <pt x="77" y="700" on="1"/>
        <pt x="314" y="700" on="1"/>
        <pt x="314" y="449" on="1"/>
        <pt x="385" y="449" on="1"/>
        <pt x="576" y="700" on="1"/>
        <pt x="840" y="700" on="1"/>
        <pt x="841" y="699" on="1"/>
        <pt x="584" y="363" on="1"/>
        <pt x="856" y="1" on="1"/>
        <pt x="855" y="0" on="1"/>
        <pt x="582" y="0" on="1"/>
        <pt x="386" y="260" on="1"/>
        <pt x="314" y="260" on="1"/>
        <pt x="314" y="0" on="1"/>
      </contour>
    </TTGlyph>
    <TTGlyph name="K.sc" xMin="75" yMin="0" xMax="784" yMax="605">
      <component glyphName="k.sc" x="0" y="0" flags="0x204"/>
    </TTGlyph>
    <TTGlyph name="L" xMin="77" yMin="0" xMax="671" yMax="700">
      <contour>
        <pt x="77" y="0" on="1"/>
        <pt x="77" y="700" on="1"/>
        <pt x="314" y="700" on="1"/>
        <pt x="314" y="199" on="1"/>
        <pt x="671" y="199" on="1"/>
        <pt x="662" y="0" on="1"/>
      </contour>
    </TTGlyph>
    <TTGlyph name="L.sc" xMin="75" yMin="0" xMax="611" yMax="605">
      <component glyphName="l.sc" x="0" y="0" flags="0x204"/>
    </TTGlyph>
    <TTGlyph name="Lacute" xMin="77" yMin="0" xMax="671" yMax="953">
      <component glyphName="L" x="0" y="0" flags="0x204"/>
      <component glyphName="acute" x="11" y="141" flags="0x4"/>
    </TTGlyph>
    <TTGlyph name="Lacute.sc" xMin="75" yMin="0" xMax="611" yMax="859">
      <component glyphName="lacute.sc" x="0" y="0" flags="0x204"/>
    </TTGlyph>
    <TTGlyph name="Lcaron" xMin="77" yMin="0" xMax="671" yMax="700">
      <component glyphName="L" x="0" y="0" flags="0x204"/>
      <component glyphName="caron.alt" x="195" y="-84" flags="0x4"/>
    </TTGlyph>
    <TTGlyph name="Lcaron.sc" xMin="75" yMin="0" xMax="611" yMax="605">
      <component glyphName="lcaron.sc" x="0" y="0" flags="0x204"/>
    </TTGlyph>
    <TTGlyph name="Ldot" xMin="77" yMin="0" xMax="671" yMax="700">
      <contour>
        <pt x="77" y="0" on="1"/>
        <pt x="77" y="700" on="1"/>
        <pt x="314" y="700" on="1"/>
        <pt x="314" y="199" on="1"/>
        <pt x="671" y="199" on="1"/>
        <pt x="662" y="0" on="1"/>
      </contour>
      <contour>
        <pt x="546" y="333" on="1"/>
        <pt x="495" y="333" on="0"/>
        <pt x="434" y="391" on="0"/>
        <pt x="434" y="439" on="1"/>
        <pt x="434" y="487" on="0"/>
        <pt x="495" y="544" on="0"/>
        <pt x="546" y="544" on="1"/>
        <pt x="597" y="544" on="0"/>
        <pt x="657" y="487" on="0"/>
        <pt x="657" y="439" on="1"/>
        <pt x="657" y="391" on="0"/>
        <pt x="597" y="333" on="0"/>
      </contour>
    </TTGlyph>
    <TTGlyph name="Ldot.sc" xMin="75" yMin="0" xMax="623" yMax="605">
      <component glyphName="ldot.sc" x="0" y="0" flags="0x204"/>
    </TTGlyph>
    <TTGlyph name="Lslash" xMin="30" yMin="0" xMax="721" yMax="700">
      <contour>
        <pt x="127" y="0" on="1"/>
        <pt x="127" y="212" on="1"/>
        <pt x="30" y="170" on="1"/>
        <pt x="30" y="345" on="1"/>
        <pt x="127" y="387" on="1"/>
        <pt x="127" y="700" on="1"/>
        <pt x="364" y="700" on="1"/>
        <pt x="364" y="491" on="1"/>
        <pt x="567" y="581" on="1"/>
        <pt x="567" y="405" on="1"/>
        <pt x="364" y="316" on="1"/>
        <pt x="364" y="199" on="1"/>
        <pt x="721" y="199" on="1"/>
        <pt x="712" y="0" on="1"/>
      </contour>
    </TTGlyph>
    <TTGlyph name="Lslash.sc" xMin="32" yMin="0" xMax="659" yMax="605">
      <component glyphName="lslash.sc" x="0" y="0" flags="0x204"/>
    </TTGlyph>
    <TTGlyph name="M" xMin="77" yMin="0" xMax="960" yMax="700">
      <contour>
        <pt x="77" y="0" on="1"/>
        <pt x="77" y="700" on="1"/>
        <pt x="356" y="700" on="1"/>
        <pt x="522" y="406" on="1"/>
        <pt x="683" y="700" on="1"/>
        <pt x="960" y="700" on="1"/>
        <pt x="960" y="0" on="1"/>
        <pt x="731" y="0" on="1"/>
        <pt x="731" y="394" on="1"/>
        <pt x="729" y="394" on="1"/>
        <pt x="523" y="44" on="1"/>
        <pt x="511" y="44" on="1"/>
        <pt x="307" y="393" on="1"/>
        <pt x="305" y="393" on="1"/>
        <pt x="305" y="0" on="1"/>
      </contour>
    </TTGlyph>
    <TTGlyph name="M.sc" xMin="75" yMin="0" xMax="841" yMax="605">
      <component glyphName="m.sc" x="0" y="0" flags="0x204"/>
    </TTGlyph>
    <TTGlyph name="N" xMin="77" yMin="0" xMax="821" yMax="700">
      <contour>
        <pt x="77" y="0" on="1"/>
        <pt x="77" y="700" on="1"/>
        <pt x="318" y="700" on="1"/>
        <pt x="594" y="335" on="1"/>
        <pt x="597" y="335" on="1"/>
        <pt x="597" y="700" on="1"/>
        <pt x="821" y="700" on="1"/>
        <pt x="821" y="0" on="1"/>
        <pt x="584" y="0" on="1"/>
        <pt x="303" y="372" on="1"/>
        <pt x="301" y="372" on="1"/>
        <pt x="301" y="0" on="1"/>
      </contour>
    </TTGlyph>
    <TTGlyph name="N.sc" xMin="75" yMin="0" xMax="737" yMax="605">
      <component glyphName="n.sc" x="0" y="0" flags="0x204"/>
    </TTGlyph>
    <TTGlyph name="Nacute" xMin="77" yMin="0" xMax="821" yMax="928">
      <component glyphName="N" x="0" y="0" flags="0x204"/>
      <component glyphName="acute" x="272" y="116" flags="0x4"/>
    </TTGlyph>
    <TTGlyph name="Nacute.sc" xMin="75" yMin="0" xMax="737" yMax="833">
      <component glyphName="nacute.sc" x="0" y="0" flags="0x204"/>
    </TTGlyph>
    <TTGlyph name="Ncaron" xMin="77" yMin="0" xMax="821" yMax="946">
      <component glyphName="N" x="0" y="0" flags="0x204"/>
      <component glyphName="caron" x="219" y="116" flags="0x4"/>
    </TTGlyph>
    <TTGlyph name="Ncaron.sc" xMin="75" yMin="0" xMax="737" yMax="851">
      <component glyphName="ncaron.sc" x="0" y="0" flags="0x204"/>
    </TTGlyph>
    <TTGlyph name="Ntilde" xMin="77" yMin="0" xMax="821" yMax="981">
      <component glyphName="N" x="0" y="0" flags="0x204"/>
      <component glyphName="tilde" x="224" y="141" flags="0x4"/>
    </TTGlyph>
    <TTGlyph name="Ntilde.sc" xMin="75" yMin="0" xMax="737" yMax="887">
      <component glyphName="ntilde.sc" x="0" y="0" flags="0x204"/>
    </TTGlyph>
    <TTGlyph name="O" xMin="38" yMin="-24" xMax="853" yMax="724">
      <contour>
        <pt x="445" y="-24" on="1"/>
        <pt x="352" y="-24" on="0"/>
        <pt x="201" y="28" on="0"/>
        <pt x="95" y="125" on="0"/>
        <pt x="38" y="264" on="0"/>
        <pt x="38" y="350" on="1"/>
        <pt x="38" y="436" on="0"/>
        <pt x="95" y="575" on="0"/>
        <pt x="201" y="672" on="0"/>
        <pt x="352" y="724" on="0"/>
        <pt x="445" y="724" on="1"/>
        <pt x="538" y="724" on="0"/>
        <pt x="690" y="672" on="0"/>
        <pt x="796" y="575" on="0"/>
        <pt x="853" y="436" on="0"/>
        <pt x="853" y="350" on="1"/>
        <pt x="853" y="264" on="0"/>
        <pt x="796" y="125" on="0"/>
        <pt x="690" y="28" on="0"/>
        <pt x="538" y="-24" on="0"/>
      </contour>
      <contour>
        <pt x="445" y="173" on="1"/>
        <pt x="527" y="173" on="0"/>
        <pt x="620" y="266" on="0"/>
        <pt x="620" y="350" on="1"/>
        <pt x="620" y="434" on="0"/>
        <pt x="527" y="527" on="0"/>
        <pt x="446" y="527" on="1"/>
        <pt x="364" y="527" on="0"/>
        <pt x="272" y="434" on="0"/>
        <pt x="272" y="350" on="1"/>
        <pt x="272" y="266" on="0"/>
        <pt x="364" y="173" on="0"/>
      </contour>
    </TTGlyph>
    <TTGlyph name="O.sc" xMin="43" yMin="-22" xMax="762" yMax="627">
      <component glyphName="o.sc" x="0" y="0" flags="0x204"/>
    </TTGlyph>
    <TTGlyph name="OE" xMin="38" yMin="0" xMax="1192" yMax="700">
      <contour>
        <pt x="38" y="350" on="1"/>
        <pt x="38" y="519" on="0"/>
        <pt x="226" y="700" on="0"/>
        <pt x="389" y="700" on="1"/>
        <pt x="1172" y="700" on="1"/>
        <pt x="1181" y="515" on="1"/>
        <pt x="782" y="515" on="1"/>
        <pt x="782" y="435" on="1"/>
        <pt x="1092" y="435" on="1"/>
        <pt x="1092" y="272" on="1"/>
        <pt x="782" y="272" on="1"/>
        <pt x="782" y="185" on="1"/>
        <pt x="1192" y="185" on="1"/>
        <pt x="1183" y="0" on="1"/>
        <pt x="389" y="0" on="1"/>
        <pt x="226" y="0" on="0"/>
        <pt x="38" y="181" on="0"/>
      </contour>
      <contour>
        <pt x="546" y="510" on="1"/>
        <pt x="423" y="510" on="1"/>
        <pt x="355" y="510" on="0"/>
        <pt x="276" y="436" on="0"/>
        <pt x="276" y="350" on="1"/>
        <pt x="276" y="265" on="0"/>
        <pt x="355" y="190" on="0"/>
        <pt x="423" y="190" on="1"/>
        <pt x="546" y="190" on="1"/>
      </contour>
    </TTGlyph>
    <TTGlyph name="OE.sc" xMin="43" yMin="0" xMax="1050" yMax="605">
      <component glyphName="oe.sc" x="0" y="0" flags="0x204"/>
    </TTGlyph>
    <TTGlyph name="Oacute" xMin="38" yMin="-24" xMax="853" yMax="977">
      <component glyphName="O" x="0" y="0" flags="0x204"/>
      <component glyphName="acute" x="248" y="165" flags="0x4"/>
    </TTGlyph>
    <TTGlyph name="Oacute.sc" xMin="43" yMin="-22" xMax="762" yMax="881">
      <component glyphName="oacute.sc" x="0" y="0" flags="0x204"/>
    </TTGlyph>
    <TTGlyph name="Obreve" xMin="38" yMin="-24" xMax="853" yMax="1011">
      <component glyphName="O" x="0" y="0" flags="0x204"/>
      <component glyphName="breve" x="195" y="165" flags="0x4"/>
    </TTGlyph>
    <TTGlyph name="Obreve.sc" xMin="43" yMin="-22" xMax="762" yMax="915">
      <component glyphName="obreve.sc" x="0" y="0" flags="0x204"/>
    </TTGlyph>
    <TTGlyph name="Ocircumflex" xMin="38" yMin="-24" xMax="853" yMax="995">
      <component glyphName="O" x="0" y="0" flags="0x204"/>
      <component glyphName="circumflex" x="195" y="165" flags="0x4"/>
    </TTGlyph>
    <TTGlyph name="Ocircumflex.sc" xMin="43" yMin="-22" xMax="762" yMax="899">
      <component glyphName="ocircumflex.sc" x="0" y="0" flags="0x204"/>
    </TTGlyph>
    <TTGlyph name="Odieresis" xMin="38" yMin="-24" xMax="853" yMax="988">
      <component glyphName="O" x="0" y="0" flags="0x204"/>
      <component glyphName="dieresis" x="195" y="165" flags="0x4"/>
    </TTGlyph>
    <TTGlyph name="Odieresis.sc" xMin="43" yMin="-22" xMax="762" yMax="892">
      <component glyphName="odieresis.sc" x="0" y="0" flags="0x204"/>
    </TTGlyph>
    <TTGlyph name="Ograve" xMin="38" yMin="-24" xMax="853" yMax="977">
      <component glyphName="O" x="0" y="0" flags="0x204"/>
      <component glyphName="grave" x="143" y="165" flags="0x4"/>
    </TTGlyph>
    <TTGlyph name="Ograve.sc" xMin="43" yMin="-22" xMax="762" yMax="881">
      <component glyphName="ograve.sc" x="0" y="0" flags="0x204"/>
    </TTGlyph>
    <TTGlyph name="Ohungarumlaut" xMin="38" yMin="-24" xMax="853" yMax="977">
      <component glyphName="O" x="0" y="0" flags="0x204"/>
      <component glyphName="hungarumlaut" x="268" y="165" flags="0x4"/>
    </TTGlyph>
    <TTGlyph name="Ohungarumlaut.sc" xMin="43" yMin="-22" xMax="780" yMax="881">
      <component glyphName="ohungarumlaut.sc" x="0" y="0" flags="0x204"/>
    </TTGlyph>
    <TTGlyph name="Omacron" xMin="38" yMin="-24" xMax="853" yMax="959">
      <component glyphName="O" x="0" y="0" flags="0x204"/>
      <component glyphName="macron" x="195" y="165" flags="0x4"/>
    </TTGlyph>
    <TTGlyph name="Omacron.sc" xMin="43" yMin="-22" xMax="762" yMax="863">
      <component glyphName="omacron.sc" x="0" y="0" flags="0x204"/>
    </TTGlyph>
    <TTGlyph name="Oslash" xMin="8" yMin="-59" xMax="883" yMax="759">
      <contour>
        <pt x="8" y="-59" on="1"/>
        <pt x="127" y="97" on="1"/>
        <pt x="84" y="145" on="0"/>
        <pt x="38" y="273" on="0"/>
        <pt x="38" y="350" on="1"/>
        <pt x="38" y="436" on="0"/>
        <pt x="95" y="575" on="0"/>
        <pt x="201" y="672" on="0"/>
        <pt x="352" y="724" on="0"/>
        <pt x="445" y="724" on="1"/>
        <pt x="494" y="724" on="0"/>
        <pt x="583" y="709" on="0"/>
        <pt x="622" y="695" on="1"/>
        <pt x="671" y="759" on="1"/>
        <pt x="883" y="759" on="1"/>
        <pt x="764" y="602" on="1"/>
        <pt x="807" y="555" on="0"/>
        <pt x="853" y="427" on="0"/>
        <pt x="853" y="350" on="1"/>
        <pt x="853" y="264" on="0"/>
        <pt x="796" y="125" on="0"/>
        <pt x="690" y="28" on="0"/>
        <pt x="538" y="-24" on="0"/>
        <pt x="445" y="-24" on="1"/>
        <pt x="396" y="-24" on="0"/>
        <pt x="308" y="-9" on="0"/>
        <pt x="270" y="4" on="1"/>
        <pt x="220" y="-59" on="1"/>
      </contour>
      <contour>
        <pt x="263" y="350" on="1"/>
        <pt x="263" y="324" on="0"/>
        <pt x="272" y="277" on="0"/>
        <pt x="281" y="258" on="1"/>
        <pt x="494" y="530" on="1"/>
        <pt x="483" y="532" on="0"/>
        <pt x="459" y="534" on="0"/>
        <pt x="446" y="534" on="1"/>
        <pt x="360" y="534" on="0"/>
        <pt x="263" y="438" on="0"/>
      </contour>
      <contour>
        <pt x="444" y="166" on="1"/>
        <pt x="530" y="166" on="0"/>
        <pt x="627" y="263" on="0"/>
        <pt x="627" y="350" on="1"/>
        <pt x="627" y="376" on="0"/>
        <pt x="618" y="422" on="0"/>
        <pt x="610" y="441" on="1"/>
        <pt x="397" y="170" on="1"/>
        <pt x="408" y="168" on="0"/>
        <pt x="431" y="166" on="0"/>
      </contour>
    </TTGlyph>
    <TTGlyph name="Oslash.sc" xMin="1" yMin="-56" xMax="804" yMax="661">
      <component glyphName="oslash.sc" x="0" y="0" flags="0x204"/>
    </TTGlyph>
    <TTGlyph name="Oslashacute" xMin="8" yMin="-59" xMax="883" yMax="963">
      <component glyphName="Oslash" x="0" y="0" flags="0x204"/>
      <component glyphName="acute" x="249" y="151" flags="0x4"/>
    </TTGlyph>
    <TTGlyph name="Oslashacute.sc" xMin="1" yMin="-56" xMax="804" yMax="865">
      <component glyphName="oslashacute.sc" x="0" y="0" flags="0x204"/>
    </TTGlyph>
    <TTGlyph name="Otilde" xMin="38" yMin="-24" xMax="853" yMax="1005">
      <component glyphName="O" x="0" y="0" flags="0x204"/>
      <component glyphName="tilde" x="200" y="165" flags="0x4"/>
    </TTGlyph>
    <TTGlyph name="Otilde.sc" xMin="43" yMin="-22" xMax="762" yMax="909">
      <component glyphName="otilde.sc" x="0" y="0" flags="0x204"/>
    </TTGlyph>
    <TTGlyph name="P" xMin="77" yMin="0" xMax="778" yMax="700">
      <contour>
        <pt x="77" y="0" on="1"/>
        <pt x="77" y="700" on="1"/>
        <pt x="510" y="700" on="1"/>
        <pt x="641" y="700" on="0"/>
        <pt x="778" y="557" on="0"/>
        <pt x="778" y="435" on="1"/>
        <pt x="778" y="366" on="0"/>
        <pt x="736" y="263" on="0"/>
        <pt x="661" y="197" on="0"/>
        <pt x="556" y="164" on="0"/>
        <pt x="495" y="164" on="1"/>
        <pt x="314" y="164" on="1"/>
        <pt x="314" y="0" on="1"/>
      </contour>
      <contour>
        <pt x="314" y="342" on="1"/>
        <pt x="462" y="342" on="1"/>
        <pt x="506" y="342" on="0"/>
        <pt x="546" y="392" on="0"/>
        <pt x="546" y="429" on="1"/>
        <pt x="546" y="472" on="0"/>
        <pt x="503" y="517" on="0"/>
        <pt x="460" y="517" on="1"/>
        <pt x="314" y="517" on="1"/>
      </contour>
    </TTGlyph>
    <TTGlyph name="P.sc" xMin="75" yMin="0" xMax="708" yMax="605">
      <component glyphName="p.sc" x="0" y="0" flags="0x204"/>
    </TTGlyph>
    <TTGlyph name="Q" xMin="38" yMin="-41" xMax="875" yMax="724">
      <contour>
        <pt x="445" y="724" on="1"/>
        <pt x="538" y="724" on="0"/>
        <pt x="690" y="672" on="0"/>
        <pt x="796" y="575" on="0"/>
        <pt x="853" y="436" on="0"/>
        <pt x="853" y="350" on="1"/>
        <pt x="853" y="307" on="0"/>
        <pt x="835" y="229" on="0"/>
        <pt x="818" y="195" on="1"/>
        <pt x="875" y="159" on="1"/>
        <pt x="875" y="-41" on="1"/>
        <pt x="874" y="-41" on="1"/>
        <pt x="714" y="60" on="1"/>
        <pt x="664" y="20" on="0"/>
        <pt x="527" y="-24" on="0"/>
        <pt x="445" y="-24" on="1"/>
        <pt x="352" y="-24" on="0"/>
        <pt x="201" y="28" on="0"/>
        <pt x="95" y="125" on="0"/>
        <pt x="38" y="264" on="0"/>
        <pt x="38" y="350" on="1"/>
        <pt x="38" y="436" on="0"/>
        <pt x="95" y="575" on="0"/>
        <pt x="201" y="672" on="0"/>
        <pt x="352" y="724" on="0"/>
      </contour>
      <contour>
        <pt x="453" y="527" on="1"/>
        <pt x="367" y="527" on="0"/>
        <pt x="272" y="429" on="0"/>
        <pt x="272" y="343" on="1"/>
        <pt x="272" y="258" on="0"/>
        <pt x="367" y="159" on="0"/>
        <pt x="453" y="159" on="1"/>
        <pt x="478" y="159" on="0"/>
        <pt x="521" y="168" on="0"/>
        <pt x="539" y="175" on="1"/>
        <pt x="400" y="256" on="1"/>
        <pt x="481" y="386" on="1"/>
        <pt x="630" y="298" on="1"/>
        <pt x="632" y="308" on="0"/>
        <pt x="634" y="331" on="0"/>
        <pt x="634" y="343" on="1"/>
        <pt x="634" y="429" on="0"/>
        <pt x="539" y="527" on="0"/>
      </contour>
    </TTGlyph>
    <TTGlyph name="Q.sc" xMin="43" yMin="-39" xMax="783" yMax="627">
      <component glyphName="q.sc" x="0" y="0" flags="0x204"/>
    </TTGlyph>
    <TTGlyph name="R" xMin="77" yMin="0" xMax="815" yMax="700">
      <contour>
        <pt x="77" y="0" on="1"/>
        <pt x="77" y="700" on="1"/>
        <pt x="502" y="700" on="1"/>
        <pt x="644" y="700" on="0"/>
        <pt x="784" y="569" on="0"/>
        <pt x="784" y="444" on="1"/>
        <pt x="784" y="362" on="0"/>
        <pt x="718" y="248" on="0"/>
        <pt x="655" y="220" on="1"/>
        <pt x="815" y="0" on="1"/>
        <pt x="550" y="0" on="1"/>
        <pt x="429" y="174" on="1"/>
        <pt x="314" y="174" on="1"/>
        <pt x="314" y="0" on="1"/>
      </contour>
      <contour>
        <pt x="314" y="351" on="1"/>
        <pt x="464" y="351" on="1"/>
        <pt x="512" y="351" on="0"/>
        <pt x="550" y="399" on="0"/>
        <pt x="550" y="434" on="1"/>
        <pt x="550" y="470" on="0"/>
        <pt x="512" y="517" on="0"/>
        <pt x="464" y="517" on="1"/>
        <pt x="314" y="517" on="1"/>
      </contour>
    </TTGlyph>
    <TTGlyph name="R.sc" xMin="75" yMin="0" xMax="747" yMax="605">
      <component glyphName="r.sc" x="0" y="0" flags="0x204"/>
    </TTGlyph>
    <TTGlyph name="R_p" xMin="77" yMin="-213" xMax="1485" yMax="700">
      <contour>
        <pt x="77" y="0" on="1"/>
        <pt x="77" y="700" on="1"/>
        <pt x="480" y="700" on="1"/>
        <pt x="618" y="700" on="0"/>
        <pt x="755" y="569" on="0"/>
        <pt x="755" y="445" on="1"/>
        <pt x="755" y="364" on="0"/>
        <pt x="693" y="252" on="0"/>
        <pt x="633" y="223" on="1"/>
        <pt x="792" y="0" on="1"/>
        <pt x="533" y="0" on="1"/>
        <pt x="413" y="176" on="1"/>
        <pt x="310" y="176" on="1"/>
        <pt x="310" y="0" on="1"/>
      </contour>
      <contour>
        <pt x="836" y="-213" on="1"/>
        <pt x="836" y="559" on="1"/>
        <pt x="1061" y="559" on="1"/>
        <pt x="1063" y="481" on="1"/>
        <pt x="1094" y="526" on="0"/>
        <pt x="1179" y="578" on="0"/>
        <pt x="1242" y="578" on="1"/>
        <pt x="1297" y="578" on="0"/>
        <pt x="1387" y="538" on="0"/>
        <pt x="1451" y="465" on="0"/>
        <pt x="1485" y="362" on="0"/>
        <pt x="1485" y="299" on="1"/>
        <pt x="1485" y="227" on="0"/>
        <pt x="1440" y="111" on="0"/>
        <pt x="1362" y="29" on="0"/>
        <pt x="1255" y="-15" on="0"/>
        <pt x="1193" y="-15" on="1"/>
        <pt x="1155" y="-15" on="0"/>
        <pt x="1095" y="-1" on="0"/>
        <pt x="1068" y="12" on="1"/>
        <pt x="1068" y="-213" on="1"/>
      </contour>
      <contour>
        <pt x="310" y="349" on="1"/>
        <pt x="439" y="349" on="1"/>
        <pt x="487" y="349" on="0"/>
        <pt x="525" y="398" on="0"/>
        <pt x="525" y="435" on="1"/>
        <pt x="525" y="472" on="0"/>
        <pt x="487" y="521" on="0"/>
        <pt x="439" y="521" on="1"/>
        <pt x="310" y="521" on="1"/>
      </contour>
      <contour>
        <pt x="1143" y="159" on="1"/>
        <pt x="1190" y="159" on="0"/>
        <pt x="1253" y="222" on="0"/>
        <pt x="1253" y="284" on="1"/>
        <pt x="1253" y="339" on="0"/>
        <pt x="1197" y="400" on="0"/>
        <pt x="1154" y="400" on="1"/>
        <pt x="1128" y="400" on="0"/>
        <pt x="1085" y="384" on="0"/>
        <pt x="1068" y="371" on="1"/>
        <pt x="1068" y="181" on="1"/>
        <pt x="1084" y="171" on="0"/>
        <pt x="1121" y="159" on="0"/>
      </contour>
    </TTGlyph>
    <TTGlyph name="Racute" xMin="77" yMin="0" xMax="815" yMax="953">
      <component glyphName="R" x="0" y="0" flags="0x204"/>
      <component glyphName="acute" x="218" y="141" flags="0x4"/>
    </TTGlyph>
    <TTGlyph name="Racute.sc" xMin="75" yMin="0" xMax="747" yMax="859">
      <component glyphName="racute.sc" x="0" y="0" flags="0x204"/>
    </TTGlyph>
    <TTGlyph name="Rcaron" xMin="77" yMin="0" xMax="815" yMax="971">
      <component glyphName="R" x="0" y="0" flags="0x204"/>
      <component glyphName="caron" x="165" y="141" flags="0x4"/>
    </TTGlyph>
    <TTGlyph name="Rcaron.sc" xMin="75" yMin="0" xMax="747" yMax="877">
      <component glyphName="rcaron.sc" x="0" y="0" flags="0x204"/>
    </TTGlyph>
    <TTGlyph name="S" xMin="60" yMin="-20" xMax="737" yMax="720">
      <contour>
        <pt x="390" y="-20" on="1"/>
        <pt x="303" y="-20" on="0"/>
        <pt x="149" y="11" on="0"/>
        <pt x="65" y="42" on="1"/>
        <pt x="65" y="251" on="1"/>
        <pt x="66" y="251" on="1"/>
        <pt x="160" y="205" on="0"/>
        <pt x="330" y="162" on="0"/>
        <pt x="405" y="162" on="1"/>
        <pt x="454" y="162" on="0"/>
        <pt x="502" y="182" on="0"/>
        <pt x="502" y="204" on="1"/>
        <pt x="502" y="215" on="0"/>
        <pt x="492" y="230" on="0"/>
        <pt x="459" y="242" on="0"/>
        <pt x="394" y="254" on="0"/>
        <pt x="340" y="263" on="1"/>
        <pt x="203" y="284" on="0"/>
        <pt x="60" y="381" on="0"/>
        <pt x="60" y="487" on="1"/>
        <pt x="60" y="590" on="0"/>
        <pt x="242" y="720" on="0"/>
        <pt x="412" y="720" on="1"/>
        <pt x="481" y="720" on="0"/>
        <pt x="618" y="695" on="0"/>
        <pt x="688" y="669" on="1"/>
        <pt x="688" y="463" on="1"/>
        <pt x="687" y="461" on="1"/>
        <pt x="655" y="479" on="0"/>
        <pt x="581" y="507" on="0"/>
        <pt x="505" y="527" on="0"/>
        <pt x="429" y="538" on="0"/>
        <pt x="396" y="538" on="1"/>
        <pt x="343" y="538" on="0"/>
        <pt x="297" y="518" on="0"/>
        <pt x="297" y="497" on="1"/>
        <pt x="297" y="473" on="0"/>
        <pt x="361" y="456" on="0"/>
        <pt x="458" y="440" on="1"/>
        <pt x="527" y="429" on="0"/>
        <pt x="632" y="396" on="0"/>
        <pt x="702" y="344" on="0"/>
        <pt x="737" y="266" on="0"/>
        <pt x="737" y="211" on="1"/>
        <pt x="737" y="163" on="0"/>
        <pt x="696" y="78" on="0"/>
        <pt x="612" y="16" on="0"/>
        <pt x="480" y="-20" on="0"/>
      </contour>
    </TTGlyph>
    <TTGlyph name="S.sc" xMin="60" yMin="-18" xMax="661" yMax="623">
      <component glyphName="s.sc" x="0" y="0" flags="0x204"/>
    </TTGlyph>
    <TTGlyph name="Sacute" xMin="60" yMin="-20" xMax="737" yMax="973">
      <component glyphName="S" x="0" y="0" flags="0x204"/>
      <component glyphName="acute" x="198" y="161" flags="0x4"/>
    </TTGlyph>
    <TTGlyph name="Sacute.sc" xMin="60" yMin="-18" xMax="661" yMax="877">
      <component glyphName="sacute.sc" x="0" y="0" flags="0x204"/>
    </TTGlyph>
    <TTGlyph name="Scaron" xMin="60" yMin="-20" xMax="737" yMax="991">
      <component glyphName="S" x="0" y="0" flags="0x204"/>
      <component glyphName="caron" x="145" y="161" flags="0x4"/>
    </TTGlyph>
    <TTGlyph name="Scaron.sc" xMin="60" yMin="-18" xMax="661" yMax="895">
      <component glyphName="scaron.sc" x="0" y="0" flags="0x204"/>
    </TTGlyph>
    <TTGlyph name="Scedilla" xMin="60" yMin="-201" xMax="737" yMax="720">
      <contour>
        <pt x="737" y="211" on="1"/>
        <pt x="737" y="128" on="0"/>
        <pt x="614" y="3" on="0"/>
        <pt x="483" y="-14" on="1"/>
        <pt x="405" y="-201" on="1"/>
        <pt x="152" y="-201" on="1"/>
        <pt x="152" y="-178" on="1"/>
        <pt x="302" y="-16" on="1"/>
        <pt x="242" y="-10" on="0"/>
        <pt x="128" y="20" on="0"/>
        <pt x="65" y="42" on="1"/>
        <pt x="65" y="251" on="1"/>
        <pt x="66" y="251" on="1"/>
        <pt x="160" y="205" on="0"/>
        <pt x="330" y="162" on="0"/>
        <pt x="405" y="162" on="1"/>
        <pt x="454" y="162" on="0"/>
        <pt x="502" y="182" on="0"/>
        <pt x="502" y="204" on="1"/>
        <pt x="502" y="215" on="0"/>
        <pt x="492" y="230" on="0"/>
        <pt x="459" y="242" on="0"/>
        <pt x="394" y="254" on="0"/>
        <pt x="340" y="263" on="1"/>
        <pt x="203" y="284" on="0"/>
        <pt x="60" y="381" on="0"/>
        <pt x="60" y="487" on="1"/>
        <pt x="60" y="590" on="0"/>
        <pt x="242" y="720" on="0"/>
        <pt x="412" y="720" on="1"/>
        <pt x="481" y="720" on="0"/>
        <pt x="618" y="695" on="0"/>
        <pt x="688" y="669" on="1"/>
        <pt x="688" y="463" on="1"/>
        <pt x="687" y="461" on="1"/>
        <pt x="655" y="479" on="0"/>
        <pt x="581" y="507" on="0"/>
        <pt x="505" y="527" on="0"/>
        <pt x="429" y="538" on="0"/>
        <pt x="396" y="538" on="1"/>
        <pt x="343" y="538" on="0"/>
        <pt x="297" y="518" on="0"/>
        <pt x="297" y="497" on="1"/>
        <pt x="297" y="473" on="0"/>
        <pt x="361" y="456" on="0"/>
        <pt x="458" y="440" on="1"/>
        <pt x="527" y="429" on="0"/>
        <pt x="632" y="396" on="0"/>
        <pt x="702" y="344" on="0"/>
        <pt x="737" y="266" on="0"/>
      </contour>
    </TTGlyph>
    <TTGlyph name="Scedilla.sc" xMin="60" yMin="-200" xMax="661" yMax="623">
      <component glyphName="scedilla.sc" x="0" y="0" flags="0x204"/>
    </TTGlyph>
    <TTGlyph name="T" xMin="28" yMin="0" xMax="749" yMax="700">
      <contour>
        <pt x="270" y="0" on="1"/>
        <pt x="270" y="502" on="1"/>
        <pt x="28" y="502" on="1"/>
        <pt x="38" y="700" on="1"/>
        <pt x="739" y="700" on="1"/>
        <pt x="749" y="502" on="1"/>
        <pt x="507" y="502" on="1"/>
        <pt x="507" y="0" on="1"/>
      </contour>
    </TTGlyph>
    <TTGlyph name="T.sc" xMin="33" yMin="0" xMax="679" yMax="605">
      <component glyphName="t.sc" x="0" y="0" flags="0x204"/>
    </TTGlyph>
    <TTGlyph name="Tcaron" xMin="28" yMin="0" xMax="749" yMax="971">
      <component glyphName="T" x="0" y="0" flags="0x204"/>
      <component glyphName="caron" x="139" y="141" flags="0x4"/>
    </TTGlyph>
    <TTGlyph name="Tcaron.sc" xMin="33" yMin="0" xMax="679" yMax="877">
      <component glyphName="tcaron.sc" x="0" y="0" flags="0x204"/>
    </TTGlyph>
    <TTGlyph name="Thorn" xMin="77" yMin="0" xMax="788" yMax="700">
      <contour>
        <pt x="77" y="0" on="1"/>
        <pt x="77" y="700" on="1"/>
        <pt x="314" y="700" on="1"/>
        <pt x="314" y="616" on="1"/>
        <pt x="518" y="616" on="1"/>
        <pt x="650" y="616" on="0"/>
        <pt x="788" y="476" on="0"/>
        <pt x="788" y="356" on="1"/>
        <pt x="788" y="288" on="0"/>
        <pt x="745" y="187" on="0"/>
        <pt x="670" y="122" on="0"/>
        <pt x="564" y="90" on="0"/>
        <pt x="502" y="90" on="1"/>
        <pt x="314" y="90" on="1"/>
        <pt x="314" y="0" on="1"/>
      </contour>
      <contour>
        <pt x="314" y="268" on="1"/>
        <pt x="470" y="268" on="1"/>
        <pt x="515" y="268" on="0"/>
        <pt x="556" y="316" on="0"/>
        <pt x="556" y="350" on="1"/>
        <pt x="556" y="390" on="0"/>
        <pt x="513" y="433" on="0"/>
        <pt x="467" y="433" on="1"/>
        <pt x="314" y="433" on="1"/>
      </contour>
    </TTGlyph>
    <TTGlyph name="Thorn.sc" xMin="75" yMin="0" xMax="716" yMax="605">
      <component glyphName="thorn.sc" x="0" y="0" flags="0x204"/>
    </TTGlyph>
    <TTGlyph name="U" xMin="70" yMin="-25" xMax="801" yMax="700">
      <contour>
        <pt x="435" y="-25" on="1"/>
        <pt x="352" y="-25" on="0"/>
        <pt x="217" y="7" on="0"/>
        <pt x="122" y="78" on="0"/>
        <pt x="70" y="194" on="0"/>
        <pt x="70" y="277" on="1"/>
        <pt x="70" y="700" on="1"/>
        <pt x="307" y="700" on="1"/>
        <pt x="307" y="297" on="1"/>
        <pt x="307" y="231" on="0"/>
        <pt x="382" y="182" on="0"/>
        <pt x="435" y="182" on="1"/>
        <pt x="489" y="182" on="0"/>
        <pt x="564" y="229" on="0"/>
        <pt x="564" y="295" on="1"/>
        <pt x="564" y="700" on="1"/>
        <pt x="801" y="700" on="1"/>
        <pt x="801" y="278" on="1"/>
        <pt x="801" y="194" on="0"/>
        <pt x="749" y="78" on="0"/>
        <pt x="653" y="7" on="0"/>
        <pt x="517" y="-25" on="0"/>
      </contour>
    </TTGlyph>
    <TTGlyph name="U.sc" xMin="69" yMin="-23" xMax="719" yMax="605">
      <component glyphName="u.sc" x="0" y="0" flags="0x204"/>
    </TTGlyph>
    <TTGlyph name="Uacute" xMin="70" yMin="-25" xMax="801" yMax="929">
      <component glyphName="U" x="0" y="0" flags="0x204"/>
      <component glyphName="acute" x="238" y="117" flags="0x4"/>
    </TTGlyph>
    <TTGlyph name="Uacute.sc" xMin="69" yMin="-23" xMax="719" yMax="834">
      <component glyphName="uacute.sc" x="0" y="0" flags="0x204"/>
    </TTGlyph>
    <TTGlyph name="Ubreve" xMin="70" yMin="-25" xMax="801" yMax="963">
      <component glyphName="U" x="0" y="0" flags="0x204"/>
      <component glyphName="breve" x="185" y="117" flags="0x4"/>
    </TTGlyph>
    <TTGlyph name="Ubreve.sc" xMin="69" yMin="-23" xMax="719" yMax="868">
      <component glyphName="ubreve.sc" x="0" y="0" flags="0x204"/>
    </TTGlyph>
    <TTGlyph name="Ucircumflex" xMin="70" yMin="-25" xMax="801" yMax="971">
      <component glyphName="U" x="0" y="0" flags="0x204"/>
      <component glyphName="circumflex" x="185" y="141" flags="0x4"/>
    </TTGlyph>
    <TTGlyph name="Ucircumflex.sc" xMin="69" yMin="-23" xMax="719" yMax="877">
      <component glyphName="ucircumflex.sc" x="0" y="0" flags="0x204"/>
    </TTGlyph>
    <TTGlyph name="Udieresis" xMin="70" yMin="-25" xMax="801" yMax="964">
      <component glyphName="U" x="0" y="0" flags="0x204"/>
      <component glyphName="dieresis" x="185" y="141" flags="0x4"/>
    </TTGlyph>
    <TTGlyph name="Udieresis.sc" xMin="69" yMin="-23" xMax="719" yMax="870">
      <component glyphName="udieresis.sc" x="0" y="0" flags="0x204"/>
    </TTGlyph>
    <TTGlyph name="Ugrave" xMin="70" yMin="-25" xMax="801" yMax="929">
      <component glyphName="U" x="0" y="0" flags="0x204"/>
      <component glyphName="grave" x="133" y="117" flags="0x4"/>
    </TTGlyph>
    <TTGlyph name="Ugrave.sc" xMin="69" yMin="-23" xMax="719" yMax="834">
      <component glyphName="ugrave.sc" x="0" y="0" flags="0x204"/>
    </TTGlyph>
    <TTGlyph name="Uhungarumlaut" xMin="70" yMin="-25" xMax="801" yMax="953">
      <component glyphName="U" x="0" y="0" flags="0x204"/>
      <component glyphName="hungarumlaut" x="237" y="141" flags="0x4"/>
    </TTGlyph>
    <TTGlyph name="Uhungarumlaut.sc" xMin="69" yMin="-23" xMax="766" yMax="859">
      <component glyphName="uhungarumlaut.sc" x="0" y="0" flags="0x204"/>
    </TTGlyph>
    <TTGlyph name="Umacron" xMin="70" yMin="-25" xMax="801" yMax="935">
      <component glyphName="U" x="0" y="0" flags="0x204"/>
      <component glyphName="macron" x="185" y="141" flags="0x4"/>
    </TTGlyph>
    <TTGlyph name="Umacron.sc" xMin="69" yMin="-23" xMax="719" yMax="841">
      <component glyphName="umacron.sc" x="0" y="0" flags="0x204"/>
    </TTGlyph>
    <TTGlyph name="Uogonek" xMin="70" yMin="-319" xMax="801" yMax="700">
      <contour>
        <pt x="607" y="-298" on="1"/>
        <pt x="573" y="-308" on="0"/>
        <pt x="516" y="-319" on="0"/>
        <pt x="479" y="-319" on="1"/>
        <pt x="416" y="-319" on="0"/>
        <pt x="337" y="-294" on="0"/>
        <pt x="293" y="-257" on="0"/>
        <pt x="277" y="-213" on="0"/>
        <pt x="277" y="-194" on="1"/>
        <pt x="277" y="-150" on="0"/>
        <pt x="336" y="-70" on="0"/>
        <pt x="406" y="-25" on="1"/>
        <pt x="330" y="-22" on="0"/>
        <pt x="205" y="13" on="0"/>
        <pt x="118" y="85" on="0"/>
        <pt x="70" y="198" on="0"/>
        <pt x="70" y="277" on="1"/>
        <pt x="70" y="700" on="1"/>
        <pt x="307" y="700" on="1"/>
        <pt x="307" y="297" on="1"/>
        <pt x="307" y="231" on="0"/>
        <pt x="382" y="182" on="0"/>
        <pt x="435" y="182" on="1"/>
        <pt x="489" y="182" on="0"/>
        <pt x="564" y="229" on="0"/>
        <pt x="564" y="295" on="1"/>
        <pt x="564" y="700" on="1"/>
        <pt x="801" y="700" on="1"/>
        <pt x="801" y="278" on="1"/>
        <pt x="801" y="148" on="0"/>
        <pt x="678" y="10" on="0"/>
        <pt x="572" y="-12" on="1"/>
        <pt x="532" y="-49" on="1"/>
        <pt x="496" y="-83" on="0"/>
        <pt x="467" y="-116" on="0"/>
        <pt x="467" y="-133" on="1"/>
        <pt x="467" y="-150" on="0"/>
        <pt x="494" y="-168" on="0"/>
        <pt x="525" y="-168" on="1"/>
        <pt x="541" y="-168" on="0"/>
        <pt x="584" y="-162" on="0"/>
        <pt x="607" y="-152" on="1"/>
      </contour>
    </TTGlyph>
    <TTGlyph name="Uogonek.sc" xMin="69" yMin="-316" xMax="719" yMax="605">
      <component glyphName="uogonek.sc" x="0" y="0" flags="0x204"/>
    </TTGlyph>
    <TTGlyph name="Uring" xMin="70" yMin="-25" xMax="801" yMax="1067">
      <component glyphName="U" x="0" y="0" flags="0x204"/>
      <component glyphName="ring" x="129" y="117" flags="0x4"/>
    </TTGlyph>
    <TTGlyph name="Uring.sc" xMin="69" yMin="-23" xMax="719" yMax="972">
      <component glyphName="uring.sc" x="0" y="0" flags="0x204"/>
    </TTGlyph>
    <TTGlyph name="V" xMin="14" yMin="0" xMax="849" yMax="700">
      <contour>
        <pt x="246" y="0" on="1"/>
        <pt x="14" y="700" on="1"/>
        <pt x="271" y="700" on="1"/>
        <pt x="422" y="215" on="1"/>
        <pt x="445" y="215" on="1"/>
        <pt x="595" y="700" on="1"/>
        <pt x="849" y="700" on="1"/>
        <pt x="618" y="0" on="1"/>
      </contour>
    </TTGlyph>
    <TTGlyph name="V.sc" xMin="18" yMin="0" xMax="764" yMax="605">
      <component glyphName="v.sc" x="0" y="0" flags="0x204"/>
    </TTGlyph>
    <TTGlyph name="W" xMin="25" yMin="0" xMax="1236" yMax="700">
      <contour>
        <pt x="205" y="0" on="1"/>
        <pt x="25" y="700" on="1"/>
        <pt x="278" y="700" on="1"/>
        <pt x="380" y="243" on="1"/>
        <pt x="391" y="243" on="1"/>
        <pt x="524" y="700" on="1"/>
        <pt x="755" y="700" on="1"/>
        <pt x="886" y="243" on="1"/>
        <pt x="896" y="243" on="1"/>
        <pt x="996" y="700" on="1"/>
        <pt x="1236" y="700" on="1"/>
        <pt x="1058" y="0" on="1"/>
        <pt x="751" y="0" on="1"/>
        <pt x="636" y="394" on="1"/>
        <pt x="629" y="394" on="1"/>
        <pt x="512" y="0" on="1"/>
      </contour>
    </TTGlyph>
    <TTGlyph name="W.sc" xMin="27" yMin="0" xMax="1052" yMax="605">
      <component glyphName="w.sc" x="0" y="0" flags="0x204"/>
    </TTGlyph>
    <TTGlyph name="Wacute" xMin="25" yMin="0" xMax="1236" yMax="953">
      <component glyphName="W" x="0" y="0" flags="0x204"/>
      <component glyphName="acute" x="455" y="141" flags="0x4"/>
    </TTGlyph>
    <TTGlyph name="Wacute.sc" xMin="27" yMin="0" xMax="1052" yMax="859">
      <component glyphName="wacute.sc" x="0" y="0" flags="0x204"/>
    </TTGlyph>
    <TTGlyph name="Wcircumflex" xMin="25" yMin="0" xMax="1236" yMax="971">
      <component glyphName="W" x="0" y="0" flags="0x204"/>
      <component glyphName="circumflex" x="381" y="141" flags="0x4"/>
    </TTGlyph>
    <TTGlyph name="Wcircumflex.sc" xMin="27" yMin="0" xMax="1052" yMax="877">
      <component glyphName="wcircumflex.sc" x="0" y="0" flags="0x204"/>
    </TTGlyph>
    <TTGlyph name="Wdieresis" xMin="25" yMin="0" xMax="1236" yMax="964">
      <component glyphName="W" x="0" y="0" flags="0x204"/>
      <component glyphName="dieresis" x="381" y="141" flags="0x4"/>
    </TTGlyph>
    <TTGlyph name="Wdieresis.sc" xMin="27" yMin="0" xMax="1052" yMax="870">
      <component glyphName="wdieresis.sc" x="0" y="0" flags="0x204"/>
    </TTGlyph>
    <TTGlyph name="Wgrave" xMin="25" yMin="0" xMax="1236" yMax="953">
      <component glyphName="W" x="0" y="0" flags="0x204"/>
      <component glyphName="grave" x="322" y="141" flags="0x4"/>
    </TTGlyph>
    <TTGlyph name="Wgrave.sc" xMin="27" yMin="0" xMax="1052" yMax="859">
      <component glyphName="wgrave.sc" x="0" y="0" flags="0x204"/>
    </TTGlyph>
    <TTGlyph name="X" xMin="1" yMin="0" xMax="874" yMax="700">
      <contour>
        <pt x="278" y="0" on="1"/>
        <pt x="1" y="0" on="1"/>
        <pt x="1" y="1" on="1"/>
        <pt x="285" y="360" on="1"/>
        <pt x="16" y="699" on="1"/>
        <pt x="16" y="700" on="1"/>
        <pt x="299" y="700" on="1"/>
        <pt x="441" y="517" on="1"/>
        <pt x="582" y="700" on="1"/>
        <pt x="859" y="700" on="1"/>
        <pt x="859" y="699" on="1"/>
        <pt x="590" y="359" on="1"/>
        <pt x="874" y="1" on="1"/>
        <pt x="874" y="0" on="1"/>
        <pt x="592" y="0" on="1"/>
        <pt x="434" y="203" on="1"/>
      </contour>
    </TTGlyph>
    <TTGlyph name="X.sc" xMin="1" yMin="0" xMax="781" yMax="605">
      <component glyphName="x.sc" x="0" y="0" flags="0x204"/>
    </TTGlyph>
    <TTGlyph name="Y" xMin="-7" yMin="0" xMax="837" yMax="700">
      <contour>
        <pt x="297" y="0" on="1"/>
        <pt x="297" y="215" on="1"/>
        <pt x="-7" y="700" on="1"/>
        <pt x="256" y="700" on="1"/>
        <pt x="413" y="436" on="1"/>
        <pt x="422" y="436" on="1"/>
        <pt x="581" y="700" on="1"/>
        <pt x="837" y="700" on="1"/>
        <pt x="534" y="216" on="1"/>
        <pt x="534" y="0" on="1"/>
      </contour>
    </TTGlyph>
    <TTGlyph name="Y.sc" xMin="-6" yMin="0" xMax="743" yMax="605">
      <component glyphName="y.sc" x="0" y="0" flags="0x204"/>
    </TTGlyph>
    <TTGlyph name="Yacute" xMin="-7" yMin="0" xMax="837" yMax="929">
      <component glyphName="Y" x="0" y="0" flags="0x204"/>
      <component glyphName="acute" x="218" y="117" flags="0x4"/>
    </TTGlyph>
    <TTGlyph name="Yacute.sc" xMin="-6" yMin="0" xMax="743" yMax="835">
      <component glyphName="yacute.sc" x="0" y="0" flags="0x204"/>
    </TTGlyph>
    <TTGlyph name="Ycircumflex" xMin="-7" yMin="0" xMax="837" yMax="971">
      <component glyphName="Y" x="0" y="0" flags="0x204"/>
      <component glyphName="circumflex" x="165" y="141" flags="0x4"/>
    </TTGlyph>
    <TTGlyph name="Ycircumflex.sc" xMin="-6" yMin="0" xMax="743" yMax="877">
      <component glyphName="ycircumflex.sc" x="0" y="0" flags="0x204"/>
    </TTGlyph>
    <TTGlyph name="Ydieresis" xMin="-7" yMin="0" xMax="837" yMax="964">
      <component glyphName="Y" x="0" y="0" flags="0x204"/>
      <component glyphName="dieresis" x="165" y="141" flags="0x4"/>
    </TTGlyph>
    <TTGlyph name="Ydieresis.sc" xMin="-6" yMin="0" xMax="743" yMax="870">
      <component glyphName="ydieresis.sc" x="0" y="0" flags="0x204"/>
    </TTGlyph>
    <TTGlyph name="Ygrave" xMin="-7" yMin="0" xMax="837" yMax="929">
      <component glyphName="Y" x="0" y="0" flags="0x204"/>
      <component glyphName="grave" x="113" y="117" flags="0x4"/>
    </TTGlyph>
    <TTGlyph name="Ygrave.sc" xMin="-6" yMin="0" xMax="743" yMax="835">
      <component glyphName="ygrave.sc" x="0" y="0" flags="0x204"/>
    </TTGlyph>
    <TTGlyph name="Z" xMin="57" yMin="0" xMax="731" yMax="700">
      <contour>
        <pt x="57" y="0" on="1"/>
        <pt x="57" y="191" on="1"/>
        <pt x="412" y="510" on="1"/>
        <pt x="66" y="510" on="1"/>
        <pt x="76" y="700" on="1"/>
        <pt x="728" y="700" on="1"/>
        <pt x="728" y="524" on="1"/>
        <pt x="357" y="190" on="1"/>
        <pt x="731" y="190" on="1"/>
        <pt x="731" y="0" on="1"/>
      </contour>
    </TTGlyph>
    <TTGlyph name="Z.sc" xMin="58" yMin="0" xMax="663" yMax="605">
      <component glyphName="z.sc" x="0" y="0" flags="0x204"/>
    </TTGlyph>
    <TTGlyph name="Zacute" xMin="57" yMin="0" xMax="731" yMax="953">
      <component glyphName="Z" x="0" y="0" flags="0x204"/>
      <component glyphName="acute" x="201" y="141" flags="0x4"/>
    </TTGlyph>
    <TTGlyph name="Zacute.sc" xMin="58" yMin="0" xMax="663" yMax="859">
      <component glyphName="zacute.sc" x="0" y="0" flags="0x204"/>
    </TTGlyph>
    <TTGlyph name="Zcaron" xMin="57" yMin="0" xMax="731" yMax="971">
      <component glyphName="Z" x="0" y="0" flags="0x204"/>
      <component glyphName="caron" x="148" y="141" flags="0x4"/>
    </TTGlyph>
    <TTGlyph name="Zcaron.sc" xMin="58" yMin="0" xMax="663" yMax="877">
      <component glyphName="zcaron.sc" x="0" y="0" flags="0x204"/>
    </TTGlyph>
    <TTGlyph name="Zdotaccent" xMin="57" yMin="0" xMax="731" yMax="969">
      <component glyphName="Z" x="0" y="0" flags="0x204"/>
      <component glyphName="dotaccent" x="149" y="141" flags="0x4"/>
    </TTGlyph>
    <TTGlyph name="Zdotaccent.sc" xMin="58" yMin="0" xMax="663" yMax="875">
      <component glyphName="zdotaccent.sc" x="0" y="0" flags="0x204"/>
    </TTGlyph>
    <TTGlyph name="a" xMin="29" yMin="-17" xMax="602" yMax="578">
      <contour>
        <pt x="210" y="-17" on="1"/>
        <pt x="123" y="-17" on="0"/>
        <pt x="29" y="65" on="0"/>
        <pt x="29" y="135" on="1"/>
        <pt x="29" y="166" on="0"/>
        <pt x="51" y="219" on="0"/>
        <pt x="71" y="239" on="1"/>
        <pt x="107" y="275" on="0"/>
        <pt x="260" y="325" on="0"/>
        <pt x="383" y="335" on="1"/>
        <pt x="381" y="367" on="0"/>
        <pt x="340" y="398" on="0"/>
        <pt x="297" y="398" on="1"/>
        <pt x="248" y="398" on="0"/>
        <pt x="133" y="365" on="0"/>
        <pt x="82" y="336" on="1"/>
        <pt x="81" y="336" on="1"/>
        <pt x="81" y="523" on="1"/>
        <pt x="141" y="551" on="0"/>
        <pt x="271" y="578" on="0"/>
        <pt x="337" y="578" on="1"/>
        <pt x="474" y="578" on="0"/>
        <pt x="602" y="460" on="0"/>
        <pt x="602" y="341" on="1"/>
        <pt x="602" y="0" on="1"/>
        <pt x="392" y="0" on="1"/>
        <pt x="389" y="62" on="1"/>
        <pt x="352" y="24" on="0"/>
        <pt x="261" y="-17" on="0"/>
      </contour>
      <contour>
        <pt x="295" y="129" on="1"/>
        <pt x="325" y="129" on="0"/>
        <pt x="373" y="153" on="0"/>
        <pt x="383" y="163" on="1"/>
        <pt x="383" y="235" on="1"/>
        <pt x="326" y="228" on="0"/>
        <pt x="265" y="208" on="0"/>
        <pt x="252" y="196" on="1"/>
        <pt x="247" y="191" on="0"/>
        <pt x="240" y="176" on="0"/>
        <pt x="240" y="169" on="1"/>
        <pt x="240" y="151" on="0"/>
        <pt x="269" y="129" on="0"/>
      </contour>
    </TTGlyph>
    <TTGlyph name="a.sc" xMin="23" yMin="0" xMax="780" yMax="605">
      <contour>
        <pt x="23" y="0" on="1"/>
        <pt x="217" y="605" on="1"/>
        <pt x="587" y="605" on="1"/>
        <pt x="780" y="0" on="1"/>
        <pt x="538" y="0" on="1"/>
        <pt x="510" y="101" on="1"/>
        <pt x="288" y="101" on="1"/>
        <pt x="260" y="0" on="1"/>
      </contour>
      <contour>
        <pt x="378" y="421" on="1"/>
        <pt x="327" y="252" on="1"/>
        <pt x="471" y="252" on="1"/>
        <pt x="421" y="421" on="1"/>
      </contour>
    </TTGlyph>
    <TTGlyph name="aacute" xMin="29" yMin="-17" xMax="602" yMax="816">
      <component glyphName="a" x="0" y="0" flags="0x204"/>
      <component glyphName="acute" x="141" y="4" flags="0x4"/>
    </TTGlyph>
    <TTGlyph name="aacute.sc" xMin="23" yMin="0" xMax="780" yMax="859">
      <component glyphName="a.sc" x="0" y="0" flags="0x204"/>
      <component glyphName="acute" x="204" y="47" flags="0x4"/>
    </TTGlyph>
    <TTGlyph name="abreve" xMin="29" yMin="-17" xMax="602" yMax="850">
      <component glyphName="a" x="0" y="0" flags="0x204"/>
      <component glyphName="breve" x="88" y="4" flags="0x4"/>
    </TTGlyph>
    <TTGlyph name="abreve.sc" xMin="23" yMin="0" xMax="780" yMax="893">
      <component glyphName="a.sc" x="0" y="0" flags="0x204"/>
      <component glyphName="breve" x="151" y="47" flags="0x4"/>
    </TTGlyph>
    <TTGlyph name="acircumflex" xMin="29" yMin="-17" xMax="602" yMax="834">
      <component glyphName="a" x="0" y="0" flags="0x204"/>
      <component glyphName="circumflex" x="88" y="4" flags="0x4"/>
    </TTGlyph>
    <TTGlyph name="acircumflex.sc" xMin="23" yMin="0" xMax="780" yMax="877">
      <component glyphName="a.sc" x="0" y="0" flags="0x204"/>
      <component glyphName="circumflex" x="151" y="47" flags="0x4"/>
    </TTGlyph>
    <TTGlyph name="acute" xMin="91" yMin="627" xMax="460" yMax="812">
      <contour>
        <pt x="91" y="627" on="1"/>
        <pt x="216" y="812" on="1"/>
        <pt x="460" y="812" on="1"/>
        <pt x="460" y="795" on="1"/>
        <pt x="284" y="627" on="1"/>
      </contour>
    </TTGlyph>
    <TTGlyph name="adieresis" xMin="29" yMin="-17" xMax="602" yMax="827">
      <component glyphName="a" x="0" y="0" flags="0x204"/>
      <component glyphName="dieresis" x="87" y="4" flags="0x4"/>
    </TTGlyph>
    <TTGlyph name="adieresis.sc" xMin="23" yMin="0" xMax="780" yMax="870">
      <component glyphName="a.sc" x="0" y="0" flags="0x204"/>
      <component glyphName="dieresis" x="151" y="47" flags="0x4"/>
    </TTGlyph>
    <TTGlyph name="ae" xMin="29" yMin="-20" xMax="991" yMax="581">
      <contour>
        <pt x="954" y="31" on="1"/>
        <pt x="902" y="6" on="0"/>
        <pt x="779" y="-20" on="0"/>
        <pt x="718" y="-20" on="1"/>
        <pt x="631" y="-20" on="0"/>
        <pt x="498" y="28" on="0"/>
        <pt x="456" y="74" on="1"/>
        <pt x="405" y="28" on="0"/>
        <pt x="280" y="-17" on="0"/>
        <pt x="211" y="-17" on="1"/>
        <pt x="123" y="-17" on="0"/>
        <pt x="29" y="65" on="0"/>
        <pt x="29" y="135" on="1"/>
        <pt x="29" y="166" on="0"/>
        <pt x="51" y="219" on="0"/>
        <pt x="71" y="239" on="1"/>
        <pt x="107" y="275" on="0"/>
        <pt x="261" y="325" on="0"/>
        <pt x="384" y="334" on="1"/>
        <pt x="382" y="367" on="0"/>
        <pt x="340" y="398" on="0"/>
        <pt x="297" y="398" on="1"/>
        <pt x="248" y="398" on="0"/>
        <pt x="133" y="365" on="0"/>
        <pt x="82" y="336" on="1"/>
        <pt x="81" y="336" on="1"/>
        <pt x="81" y="523" on="1"/>
        <pt x="141" y="551" on="0"/>
        <pt x="270" y="578" on="0"/>
        <pt x="336" y="578" on="1"/>
        <pt x="397" y="578" on="0"/>
        <pt x="490" y="544" on="0"/>
        <pt x="521" y="510" on="1"/>
        <pt x="557" y="544" on="0"/>
        <pt x="654" y="581" on="0"/>
        <pt x="712" y="581" on="1"/>
        <pt x="779" y="581" on="0"/>
        <pt x="883" y="538" on="0"/>
        <pt x="954" y="462" on="0"/>
        <pt x="991" y="355" on="0"/>
        <pt x="991" y="292" on="1"/>
        <pt x="991" y="277" on="0"/>
        <pt x="988" y="245" on="0"/>
        <pt x="986" y="230" on="1"/>
        <pt x="608" y="230" on="1"/>
        <pt x="618" y="184" on="0"/>
        <pt x="693" y="149" on="0"/>
        <pt x="753" y="149" on="1"/>
        <pt x="774" y="149" on="0"/>
        <pt x="827" y="156" on="0"/>
        <pt x="880" y="168" on="0"/>
        <pt x="932" y="186" on="0"/>
        <pt x="953" y="197" on="1"/>
        <pt x="954" y="197" on="1"/>
      </contour>
      <contour>
        <pt x="701" y="420" on="1"/>
        <pt x="659" y="420" on="0"/>
        <pt x="614" y="369" on="0"/>
        <pt x="607" y="328" on="1"/>
        <pt x="795" y="328" on="1"/>
        <pt x="791" y="367" on="0"/>
        <pt x="743" y="420" on="0"/>
      </contour>
      <contour>
        <pt x="240" y="169" on="1"/>
        <pt x="240" y="151" on="0"/>
        <pt x="269" y="129" on="0"/>
        <pt x="295" y="129" on="1"/>
        <pt x="332" y="129" on="0"/>
        <pt x="390" y="153" on="0"/>
        <pt x="403" y="164" on="1"/>
        <pt x="398" y="180" on="0"/>
        <pt x="390" y="217" on="0"/>
        <pt x="389" y="236" on="1"/>
        <pt x="329" y="229" on="0"/>
        <pt x="264" y="208" on="0"/>
        <pt x="252" y="196" on="1"/>
        <pt x="247" y="191" on="0"/>
        <pt x="240" y="176" on="0"/>
      </contour>
    </TTGlyph>
    <TTGlyph name="ae.sc" xMin="-6" yMin="0" xMax="1087" yMax="605">
      <contour>
        <pt x="514" y="0" on="1"/>
        <pt x="514" y="106" on="1"/>
        <pt x="297" y="106" on="1"/>
        <pt x="243" y="0" on="1"/>
        <pt x="-6" y="0" on="1"/>
        <pt x="318" y="605" on="1"/>
        <pt x="1069" y="605" on="1"/>
        <pt x="1078" y="441" on="1"/>
        <pt x="744" y="441" on="1"/>
        <pt x="744" y="370" on="1"/>
        <pt x="999" y="370" on="1"/>
        <pt x="999" y="234" on="1"/>
        <pt x="744" y="234" on="1"/>
        <pt x="744" y="164" on="1"/>
        <pt x="1087" y="164" on="1"/>
        <pt x="1077" y="0" on="1"/>
      </contour>
      <contour>
        <pt x="464" y="441" on="1"/>
        <pt x="373" y="260" on="1"/>
        <pt x="514" y="260" on="1"/>
        <pt x="514" y="441" on="1"/>
      </contour>
    </TTGlyph>
    <TTGlyph name="aeacute" xMin="29" yMin="-20" xMax="991" yMax="817">
      <component glyphName="ae" x="0" y="0" flags="0x204"/>
      <component glyphName="acute" x="329" y="5" flags="0x4"/>
    </TTGlyph>
    <TTGlyph name="aeacute.sc" xMin="-6" yMin="0" xMax="1087" yMax="859">
      <component glyphName="ae.sc" x="0" y="0" flags="0x204"/>
      <component glyphName="acute" x="430" y="47" flags="0x4"/>
    </TTGlyph>
    <TTGlyph name="agrave" xMin="29" yMin="-17" xMax="602" yMax="816">
      <component glyphName="a" x="0" y="0" flags="0x204"/>
      <component glyphName="grave" x="36" y="4" flags="0x4"/>
    </TTGlyph>
    <TTGlyph name="agrave.sc" xMin="23" yMin="0" xMax="780" yMax="859">
      <component glyphName="a.sc" x="0" y="0" flags="0x204"/>
      <component glyphName="grave" x="99" y="47" flags="0x4"/>
    </TTGlyph>
    <TTGlyph name="amacron" xMin="29" yMin="-17" xMax="602" yMax="798">
      <component glyphName="a" x="0" y="0" flags="0x204"/>
      <component glyphName="macron" x="88" y="4" flags="0x4"/>
    </TTGlyph>
    <TTGlyph name="amacron.sc" xMin="23" yMin="0" xMax="780" yMax="841">
      <component glyphName="a.sc" x="0" y="0" flags="0x204"/>
      <component glyphName="macron" x="151" y="47" flags="0x4"/>
    </TTGlyph>
    <TTGlyph name="ampersand" xMin="29" yMin="-21" xMax="873" yMax="700">
      <contour>
        <pt x="274" y="-21" on="1"/>
        <pt x="165" y="-21" on="0"/>
        <pt x="31" y="84" on="0"/>
        <pt x="30" y="174" on="1"/>
        <pt x="29" y="255" on="0"/>
        <pt x="141" y="372" on="0"/>
        <pt x="240" y="426" on="1"/>
        <pt x="142" y="532" on="1"/>
        <pt x="142" y="700" on="1"/>
        <pt x="678" y="700" on="1"/>
        <pt x="687" y="531" on="1"/>
        <pt x="403" y="531" on="1"/>
        <pt x="591" y="321" on="1"/>
        <pt x="795" y="486" on="1"/>
        <pt x="796" y="483" on="1"/>
        <pt x="796" y="264" on="1"/>
        <pt x="705" y="188" on="1"/>
        <pt x="873" y="0" on="1"/>
        <pt x="626" y="0" on="1"/>
        <pt x="556" y="76" on="1"/>
        <pt x="492" y="34" on="0"/>
        <pt x="353" y="-21" on="0"/>
      </contour>
      <contour>
        <pt x="249" y="203" on="1"/>
        <pt x="249" y="183" on="0"/>
        <pt x="279" y="155" on="0"/>
        <pt x="308" y="155" on="1"/>
        <pt x="338" y="155" on="0"/>
        <pt x="404" y="184" on="0"/>
        <pt x="440" y="208" on="1"/>
        <pt x="353" y="303" on="1"/>
        <pt x="294" y="271" on="0"/>
        <pt x="249" y="227" on="0"/>
      </contour>
    </TTGlyph>
    <TTGlyph name="ampersand.sc" xMin="50" yMin="-20" xMax="832" yMax="605">
      <contour>
        <pt x="269" y="-20" on="1"/>
        <pt x="173" y="-20" on="0"/>
        <pt x="50" y="67" on="0"/>
        <pt x="50" y="146" on="1"/>
        <pt x="50" y="218" on="0"/>
        <pt x="136" y="309" on="0"/>
        <pt x="205" y="351" on="1"/>
        <pt x="231" y="366" on="1"/>
        <pt x="146" y="451" on="1"/>
        <pt x="146" y="605" on="1"/>
        <pt x="658" y="605" on="1"/>
        <pt x="668" y="447" on="1"/>
        <pt x="399" y="447" on="1"/>
        <pt x="566" y="275" on="1"/>
        <pt x="759" y="413" on="1"/>
        <pt x="760" y="413" on="1"/>
        <pt x="760" y="216" on="1"/>
        <pt x="679" y="158" on="1"/>
        <pt x="832" y="0" on="1"/>
        <pt x="601" y="0" on="1"/>
        <pt x="537" y="63" on="1"/>
        <pt x="473" y="23" on="0"/>
        <pt x="345" y="-20" on="0"/>
      </contour>
      <contour>
        <pt x="256" y="178" on="1"/>
        <pt x="256" y="162" on="0"/>
        <pt x="280" y="140" on="0"/>
        <pt x="305" y="140" on="1"/>
        <pt x="327" y="140" on="0"/>
        <pt x="380" y="156" on="0"/>
        <pt x="420" y="179" on="1"/>
        <pt x="339" y="260" on="1"/>
        <pt x="327" y="253" on="1"/>
        <pt x="282" y="227" on="0"/>
        <pt x="256" y="193" on="0"/>
      </contour>
    </TTGlyph>
    <TTGlyph name="aogonek" xMin="29" yMin="-318" xMax="625" yMax="578">
      <component glyphName="a" x="0" y="0" flags="0x204"/>
      <component glyphName="ogonek" x="200" y="0" flags="0x4"/>
    </TTGlyph>
    <TTGlyph name="aogonek.sc" xMin="23" yMin="-318" xMax="803" yMax="605">
      <component glyphName="a.sc" x="0" y="0" flags="0x204"/>
      <component glyphName="ogonek" x="378" y="0" flags="0x4"/>
    </TTGlyph>
    <TTGlyph name="aring" xMin="29" yMin="-17" xMax="602" yMax="954">
      <component glyphName="a" x="0" y="0" flags="0x204"/>
      <component glyphName="ring" x="32" y="4" flags="0x4"/>
    </TTGlyph>
    <TTGlyph name="aring.sc" xMin="23" yMin="0" xMax="780" yMax="997">
      <component glyphName="a.sc" x="0" y="0" flags="0x204"/>
      <component glyphName="ring" x="95" y="47" flags="0x4"/>
    </TTGlyph>
    <TTGlyph name="aringacute" xMin="29" yMin="-17" xMax="604" yMax="1191">
      <component glyphName="a" x="0" y="0" flags="0x204"/>
      <component glyphName="ring" x="32" y="4" flags="0x4"/>
      <component glyphName="acute" x="144" y="379" flags="0x4"/>
    </TTGlyph>
    <TTGlyph name="aringacute.sc" xMin="23" yMin="0" xMax="780" yMax="1234">
      <component glyphName="a.sc" x="0" y="0" flags="0x204"/>
      <component glyphName="ring" x="95" y="47" flags="0x4"/>
      <component glyphName="acute" x="204" y="422" flags="0x4"/>
    </TTGlyph>
    <TTGlyph name="asciicircum" xMin="47" yMin="325" xMax="704" yMax="700">
      <contour>
        <pt x="47" y="325" on="1"/>
        <pt x="222" y="700" on="1"/>
        <pt x="528" y="700" on="1"/>
        <pt x="704" y="325" on="1"/>
        <pt x="482" y="325" on="1"/>
        <pt x="393" y="514" on="1"/>
        <pt x="357" y="514" on="1"/>
        <pt x="269" y="325" on="1"/>
      </contour>
    </TTGlyph>
    <TTGlyph name="asciicircum.tab" xMin="33" yMin="325" xMax="690" yMax="700">
      <component glyphName="asciicircum" x="-14" y="0" flags="0x4"/>
    </TTGlyph>
    <TTGlyph name="asciitilde" xMin="71" yMin="180" xMax="685" yMax="522">
      <contour>
        <pt x="71" y="417" on="1"/>
        <pt x="105" y="457" on="0"/>
        <pt x="190" y="509" on="0"/>
        <pt x="241" y="509" on="1"/>
        <pt x="290" y="509" on="0"/>
        <pt x="366" y="476" on="0"/>
        <pt x="412" y="450" on="1"/>
        <pt x="449" y="430" on="0"/>
        <pt x="494" y="412" on="0"/>
        <pt x="521" y="412" on="1"/>
        <pt x="566" y="412" on="0"/>
        <pt x="642" y="476" on="0"/>
        <pt x="684" y="522" on="1"/>
        <pt x="685" y="522" on="1"/>
        <pt x="685" y="284" on="1"/>
        <pt x="650" y="244" on="0"/>
        <pt x="566" y="192" on="0"/>
        <pt x="515" y="192" on="1"/>
        <pt x="466" y="192" on="0"/>
        <pt x="390" y="226" on="0"/>
        <pt x="344" y="251" on="1"/>
        <pt x="307" y="272" on="0"/>
        <pt x="262" y="290" on="0"/>
        <pt x="235" y="290" on="1"/>
        <pt x="190" y="290" on="0"/>
        <pt x="113" y="226" on="0"/>
        <pt x="72" y="180" on="1"/>
        <pt x="71" y="180" on="1"/>
      </contour>
    </TTGlyph>
    <TTGlyph name="asciitilde.tab" xMin="55" yMin="180" xMax="669" yMax="522">
      <component glyphName="asciitilde" x="-16" y="0" flags="0x4"/>
    </TTGlyph>
    <TTGlyph name="asterisk" xMin="70" yMin="239" xMax="532" yMax="713">
      <contour>
        <pt x="429" y="279" on="1"/>
        <pt x="327" y="319" on="1"/>
        <pt x="255" y="239" on="1"/>
        <pt x="224" y="246" on="1"/>
        <pt x="192" y="350" on="1"/>
        <pt x="84" y="357" on="1"/>
        <pt x="70" y="385" on="1"/>
        <pt x="132" y="476" on="1"/>
        <pt x="70" y="565" on="1"/>
        <pt x="83" y="594" on="1"/>
        <pt x="191" y="602" on="1"/>
        <pt x="222" y="706" on="1"/>
        <pt x="253" y="713" on="1"/>
        <pt x="327" y="633" on="1"/>
        <pt x="429" y="674" on="1"/>
        <pt x="454" y="654" on="1"/>
        <pt x="437" y="546" on="1"/>
        <pt x="532" y="492" on="1"/>
        <pt x="532" y="460" on="1"/>
        <pt x="436" y="406" on="1"/>
        <pt x="454" y="299" on="1"/>
      </contour>
    </TTGlyph>
    <TTGlyph name="at" xMin="66" yMin="-135" xMax="1063" yMax="811">
      <contour>
        <pt x="830" y="122" on="1"/>
        <pt x="776" y="122" on="0"/>
        <pt x="690" y="150" on="0"/>
        <pt x="656" y="190" on="1"/>
        <pt x="624" y="156" on="0"/>
        <pt x="542" y="118" on="0"/>
        <pt x="497" y="118" on="1"/>
        <pt x="431" y="118" on="0"/>
        <pt x="361" y="181" on="0"/>
        <pt x="361" y="233" on="1"/>
        <pt x="361" y="257" on="0"/>
        <pt x="377" y="296" on="0"/>
        <pt x="393" y="311" on="1"/>
        <pt x="419" y="338" on="0"/>
        <pt x="534" y="377" on="0"/>
        <pt x="627" y="384" on="1"/>
        <pt x="625" y="407" on="0"/>
        <pt x="595" y="430" on="0"/>
        <pt x="563" y="430" on="1"/>
        <pt x="526" y="430" on="0"/>
        <pt x="440" y="405" on="0"/>
        <pt x="400" y="383" on="1"/>
        <pt x="399" y="383" on="1"/>
        <pt x="399" y="524" on="1"/>
        <pt x="445" y="545" on="0"/>
        <pt x="542" y="567" on="0"/>
        <pt x="593" y="567" on="1"/>
        <pt x="696" y="567" on="0"/>
        <pt x="793" y="478" on="0"/>
        <pt x="793" y="389" on="1"/>
        <pt x="793" y="297" on="1"/>
        <pt x="793" y="269" on="0"/>
        <pt x="817" y="246" on="0"/>
        <pt x="840" y="246" on="1"/>
        <pt x="870" y="246" on="0"/>
        <pt x="904" y="307" on="0"/>
        <pt x="904" y="396" on="1"/>
        <pt x="904" y="520" on="0"/>
        <pt x="753" y="662" on="0"/>
        <pt x="593" y="662" on="1"/>
        <pt x="416" y="662" on="0"/>
        <pt x="235" y="488" on="0"/>
        <pt x="235" y="320" on="1"/>
        <pt x="235" y="166" on="0"/>
        <pt x="408" y="14" on="0"/>
        <pt x="590" y="14" on="1"/>
        <pt x="675" y="14" on="0"/>
        <pt x="812" y="47" on="0"/>
        <pt x="872" y="70" on="1"/>
        <pt x="869" y="-83" on="1"/>
        <pt x="818" y="-102" on="0"/>
        <pt x="669" y="-135" on="0"/>
        <pt x="579" y="-135" on="1"/>
        <pt x="330" y="-135" on="0"/>
        <pt x="66" y="94" on="0"/>
        <pt x="66" y="319" on="1"/>
        <pt x="66" y="432" on="0"/>
        <pt x="139" y="615" on="0"/>
        <pt x="275" y="742" on="0"/>
        <pt x="471" y="811" on="0"/>
        <pt x="593" y="811" on="1"/>
        <pt x="708" y="811" on="0"/>
        <pt x="885" y="753" on="0"/>
        <pt x="1002" y="648" on="0"/>
        <pt x="1063" y="498" on="0"/>
        <pt x="1063" y="407" on="1"/>
        <pt x="1063" y="269" on="0"/>
        <pt x="946" y="122" on="0"/>
      </contour>
      <contour>
        <pt x="561" y="229" on="1"/>
        <pt x="583" y="229" on="0"/>
        <pt x="620" y="247" on="0"/>
        <pt x="627" y="254" on="1"/>
        <pt x="627" y="308" on="1"/>
        <pt x="585" y="303" on="0"/>
        <pt x="539" y="288" on="0"/>
        <pt x="530" y="278" on="1"/>
        <pt x="526" y="274" on="0"/>
        <pt x="521" y="263" on="0"/>
        <pt x="521" y="258" on="1"/>
        <pt x="521" y="245" on="0"/>
        <pt x="542" y="229" on="0"/>
      </contour>
    </TTGlyph>
    <TTGlyph name="at.cap" xMin="66" yMin="-123" xMax="1063" yMax="823">
      <component glyphName="at" x="0" y="12" flags="0x4"/>
    </TTGlyph>
    <TTGlyph name="atilde" xMin="29" yMin="-17" xMax="602" yMax="844">
      <component glyphName="a" x="0" y="0" flags="0x204"/>
      <component glyphName="tilde" x="92" y="4" flags="0x4"/>
    </TTGlyph>
    <TTGlyph name="atilde.sc" xMin="23" yMin="0" xMax="780" yMax="887">
      <component glyphName="a.sc" x="0" y="0" flags="0x204"/>
      <component glyphName="tilde" x="156" y="47" flags="0x4"/>
    </TTGlyph>
    <TTGlyph name="b" xMin="63" yMin="-17" xMax="712" yMax="784">
      <contour>
        <pt x="295" y="784" on="1"/>
        <pt x="295" y="490" on="1"/>
        <pt x="323" y="529" on="0"/>
        <pt x="405" y="577" on="0"/>
        <pt x="467" y="577" on="1"/>
        <pt x="577" y="577" on="0"/>
        <pt x="712" y="425" on="0"/>
        <pt x="712" y="300" on="1"/>
        <pt x="712" y="227" on="0"/>
        <pt x="665" y="109" on="0"/>
        <pt x="579" y="27" on="0"/>
        <pt x="458" y="-17" on="0"/>
        <pt x="385" y="-17" on="1"/>
        <pt x="341" y="-17" on="0"/>
        <pt x="254" y="0" on="0"/>
        <pt x="211" y="19" on="1"/>
        <pt x="63" y="19" on="1"/>
        <pt x="63" y="784" on="1"/>
      </contour>
      <contour>
        <pt x="381" y="399" on="1"/>
        <pt x="354" y="399" on="0"/>
        <pt x="312" y="385" on="0"/>
        <pt x="295" y="375" on="1"/>
        <pt x="295" y="175" on="1"/>
        <pt x="314" y="166" on="0"/>
        <pt x="352" y="157" on="0"/>
        <pt x="369" y="157" on="1"/>
        <pt x="415" y="157" on="0"/>
        <pt x="480" y="221" on="0"/>
        <pt x="480" y="285" on="1"/>
        <pt x="480" y="339" on="0"/>
        <pt x="425" y="399" on="0"/>
      </contour>
    </TTGlyph>
    <TTGlyph name="b.sc" xMin="75" yMin="0" xMax="723" yMax="605">
      <contour>
        <pt x="75" y="0" on="1"/>
        <pt x="75" y="605" on="1"/>
        <pt x="499" y="605" on="1"/>
        <pt x="597" y="605" on="0"/>
        <pt x="710" y="528" on="0"/>
        <pt x="710" y="453" on="1"/>
        <pt x="710" y="403" on="0"/>
        <pt x="663" y="332" on="0"/>
        <pt x="606" y="313" on="1"/>
        <pt x="665" y="291" on="0"/>
        <pt x="723" y="225" on="0"/>
        <pt x="723" y="171" on="1"/>
        <pt x="723" y="124" on="0"/>
        <pt x="687" y="58" on="0"/>
        <pt x="624" y="18" on="0"/>
        <pt x="536" y="0" on="0"/>
        <pt x="485" y="0" on="1"/>
      </contour>
      <contour>
        <pt x="304" y="364" on="1"/>
        <pt x="417" y="364" on="1"/>
        <pt x="448" y="364" on="0"/>
        <pt x="477" y="385" on="0"/>
        <pt x="477" y="410" on="1"/>
        <pt x="477" y="433" on="0"/>
        <pt x="448" y="455" on="0"/>
        <pt x="418" y="455" on="1"/>
        <pt x="304" y="455" on="1"/>
      </contour>
      <contour>
        <pt x="304" y="151" on="1"/>
        <pt x="428" y="151" on="1"/>
        <pt x="461" y="152" on="0"/>
        <pt x="489" y="174" on="0"/>
        <pt x="489" y="199" on="1"/>
        <pt x="489" y="224" on="0"/>
        <pt x="459" y="246" on="0"/>
        <pt x="428" y="246" on="1"/>
        <pt x="304" y="246" on="1"/>
      </contour>
    </TTGlyph>
    <TTGlyph name="backslash" xMin="31" yMin="-210" xMax="583" yMax="784">
      <contour>
        <pt x="583" y="-210" on="1"/>
        <pt x="366" y="-210" on="1"/>
        <pt x="31" y="784" on="1"/>
        <pt x="248" y="784" on="1"/>
      </contour>
    </TTGlyph>
    <TTGlyph name="backslash.cap" xMin="33" yMin="-147" xMax="585" yMax="847">
      <component glyphName="backslash" x="2" y="63" flags="0x4"/>
    </TTGlyph>
    <TTGlyph name="bar" xMin="189" yMin="-210" xMax="398" yMax="784">
      <contour>
        <pt x="189" y="-210" on="1"/>
        <pt x="189" y="784" on="1"/>
        <pt x="398" y="784" on="1"/>
        <pt x="398" y="-210" on="1"/>
      </contour>
    </TTGlyph>
    <TTGlyph name="bar.cap" xMin="189" yMin="-147" xMax="398" yMax="847">
      <component glyphName="bar" x="0" y="63" flags="0x4"/>
    </TTGlyph>
    <TTGlyph name="bar.tab" xMin="167" yMin="-147" xMax="376" yMax="847">
      <component glyphName="bar" x="-22" y="63" flags="0x4"/>
    </TTGlyph>
    <TTGlyph name="braceleft" xMin="8" yMin="-232" xMax="561" yMax="806">
      <contour>
        <pt x="8" y="271" on="1"/>
        <pt x="8" y="303" on="1"/>
        <pt x="178" y="465" on="1"/>
        <pt x="171" y="517" on="1"/>
        <pt x="170" y="530" on="0"/>
        <pt x="168" y="554" on="0"/>
        <pt x="168" y="566" on="1"/>
        <pt x="168" y="681" on="0"/>
        <pt x="314" y="806" on="0"/>
        <pt x="435" y="806" on="1"/>
        <pt x="471" y="806" on="0"/>
        <pt x="531" y="798" on="0"/>
        <pt x="561" y="789" on="1"/>
        <pt x="561" y="615" on="1"/>
        <pt x="560" y="615" on="1"/>
        <pt x="542" y="622" on="0"/>
        <pt x="502" y="629" on="0"/>
        <pt x="483" y="629" on="1"/>
        <pt x="432" y="629" on="0"/>
        <pt x="372" y="571" on="0"/>
        <pt x="372" y="512" on="1"/>
        <pt x="372" y="503" on="0"/>
        <pt x="374" y="484" on="0"/>
        <pt x="375" y="474" on="1"/>
        <pt x="386" y="397" on="1"/>
        <pt x="248" y="287" on="1"/>
        <pt x="386" y="177" on="1"/>
        <pt x="375" y="100" on="1"/>
        <pt x="374" y="90" on="0"/>
        <pt x="372" y="71" on="0"/>
        <pt x="372" y="62" on="1"/>
        <pt x="372" y="3" on="0"/>
        <pt x="432" y="-54" on="0"/>
        <pt x="483" y="-54" on="1"/>
        <pt x="502" y="-54" on="0"/>
        <pt x="542" y="-47" on="0"/>
        <pt x="560" y="-40" on="1"/>
        <pt x="561" y="-40" on="1"/>
        <pt x="561" y="-215" on="1"/>
        <pt x="531" y="-224" on="0"/>
        <pt x="471" y="-232" on="0"/>
        <pt x="435" y="-232" on="1"/>
        <pt x="314" y="-232" on="0"/>
        <pt x="168" y="-107" on="0"/>
        <pt x="168" y="8" on="1"/>
        <pt x="168" y="20" on="0"/>
        <pt x="170" y="44" on="0"/>
        <pt x="171" y="57" on="1"/>
        <pt x="178" y="109" on="1"/>
      </contour>
    </TTGlyph>
    <TTGlyph name="braceleft.cap" xMin="8" yMin="-169" xMax="561" yMax="869">
      <component glyphName="braceleft" x="0" y="63" flags="0x4"/>
    </TTGlyph>
    <TTGlyph name="braceright" xMin="34" yMin="-239" xMax="587" yMax="799">
      <contour>
        <pt x="587" y="296" on="1"/>
        <pt x="587" y="264" on="1"/>
        <pt x="417" y="102" on="1"/>
        <pt x="424" y="50" on="1"/>
        <pt x="425" y="37" on="0"/>
        <pt x="427" y="13" on="0"/>
        <pt x="427" y="1" on="1"/>
        <pt x="427" y="-114" on="0"/>
        <pt x="281" y="-239" on="0"/>
        <pt x="160" y="-239" on="1"/>
        <pt x="124" y="-239" on="0"/>
        <pt x="64" y="-231" on="0"/>
        <pt x="34" y="-222" on="1"/>
        <pt x="34" y="-48" on="1"/>
        <pt x="35" y="-48" on="1"/>
        <pt x="53" y="-55" on="0"/>
        <pt x="93" y="-62" on="0"/>
        <pt x="112" y="-62" on="1"/>
        <pt x="163" y="-62" on="0"/>
        <pt x="223" y="-4" on="0"/>
        <pt x="223" y="55" on="1"/>
        <pt x="223" y="64" on="0"/>
        <pt x="221" y="83" on="0"/>
        <pt x="220" y="93" on="1"/>
        <pt x="209" y="170" on="1"/>
        <pt x="347" y="280" on="1"/>
        <pt x="209" y="390" on="1"/>
        <pt x="220" y="467" on="1"/>
        <pt x="221" y="477" on="0"/>
        <pt x="223" y="496" on="0"/>
        <pt x="223" y="505" on="1"/>
        <pt x="223" y="564" on="0"/>
        <pt x="163" y="621" on="0"/>
        <pt x="112" y="621" on="1"/>
        <pt x="93" y="621" on="0"/>
        <pt x="53" y="614" on="0"/>
        <pt x="35" y="607" on="1"/>
        <pt x="34" y="607" on="1"/>
        <pt x="34" y="782" on="1"/>
        <pt x="64" y="791" on="0"/>
        <pt x="124" y="799" on="0"/>
        <pt x="160" y="799" on="1"/>
        <pt x="281" y="799" on="0"/>
        <pt x="427" y="674" on="0"/>
        <pt x="427" y="559" on="1"/>
        <pt x="427" y="547" on="0"/>
        <pt x="425" y="523" on="0"/>
        <pt x="424" y="510" on="1"/>
        <pt x="417" y="458" on="1"/>
      </contour>
    </TTGlyph>
    <TTGlyph name="braceright.cap" xMin="34" yMin="-169" xMax="587" yMax="869">
      <component glyphName="braceright" x="0" y="70" flags="0x4"/>
    </TTGlyph>
    <TTGlyph name="bracketleft" xMin="60" yMin="-210" xMax="461" yMax="784">
      <contour>
        <pt x="60" y="-210" on="1"/>
        <pt x="60" y="784" on="1"/>
        <pt x="461" y="784" on="1"/>
        <pt x="461" y="613" on="1"/>
        <pt x="269" y="613" on="1"/>
        <pt x="269" y="-40" on="1"/>
        <pt x="461" y="-40" on="1"/>
        <pt x="461" y="-210" on="1"/>
      </contour>
    </TTGlyph>
    <TTGlyph name="bracketleft.cap" xMin="60" yMin="-147" xMax="461" yMax="847">
      <component glyphName="bracketleft" x="0" y="63" flags="0x4"/>
    </TTGlyph>
    <TTGlyph name="bracketright" xMin="41" yMin="-210" xMax="442" yMax="784">
      <contour>
        <pt x="442" y="784" on="1"/>
        <pt x="442" y="-210" on="1"/>
        <pt x="41" y="-210" on="1"/>
        <pt x="41" y="-39" on="1"/>
        <pt x="233" y="-39" on="1"/>
        <pt x="233" y="614" on="1"/>
        <pt x="41" y="614" on="1"/>
        <pt x="41" y="784" on="1"/>
      </contour>
    </TTGlyph>
    <TTGlyph name="bracketright.cap" xMin="41" yMin="-147" xMax="442" yMax="847">
      <component glyphName="bracketright" x="0" y="63" flags="0x4"/>
    </TTGlyph>
    <TTGlyph name="breve" xMin="25" yMin="619" xMax="474" yMax="846">
      <contour>
        <pt x="250" y="619" on="1"/>
        <pt x="149" y="619" on="0"/>
        <pt x="25" y="700" on="0"/>
        <pt x="25" y="778" on="1"/>
        <pt x="25" y="795" on="0"/>
        <pt x="31" y="828" on="0"/>
        <pt x="35" y="846" on="1"/>
        <pt x="182" y="846" on="1"/>
        <pt x="181" y="838" on="0"/>
        <pt x="180" y="825" on="0"/>
        <pt x="180" y="818" on="1"/>
        <pt x="180" y="789" on="0"/>
        <pt x="216" y="764" on="0"/>
        <pt x="250" y="764" on="1"/>
        <pt x="284" y="764" on="0"/>
        <pt x="320" y="789" on="0"/>
        <pt x="320" y="818" on="1"/>
        <pt x="320" y="825" on="0"/>
        <pt x="318" y="838" on="0"/>
        <pt x="317" y="846" on="1"/>
        <pt x="465" y="846" on="1"/>
        <pt x="469" y="828" on="0"/>
        <pt x="474" y="794" on="0"/>
        <pt x="474" y="778" on="1"/>
        <pt x="474" y="700" on="0"/>
        <pt x="351" y="619" on="0"/>
      </contour>
    </TTGlyph>
    <TTGlyph name="bullet" xMin="45" yMin="147" xMax="414" yMax="497">
      <contour>
        <pt x="230" y="147" on="1"/>
        <pt x="185" y="147" on="0"/>
        <pt x="116" y="175" on="0"/>
        <pt x="69" y="223" on="0"/>
        <pt x="45" y="286" on="0"/>
        <pt x="45" y="321" on="1"/>
        <pt x="45" y="324" on="1"/>
        <pt x="45" y="359" on="0"/>
        <pt x="69" y="422" on="0"/>
        <pt x="116" y="469" on="0"/>
        <pt x="185" y="497" on="0"/>
        <pt x="230" y="497" on="1"/>
        <pt x="274" y="497" on="0"/>
        <pt x="343" y="469" on="0"/>
        <pt x="390" y="422" on="0"/>
        <pt x="414" y="359" on="0"/>
        <pt x="414" y="324" on="1"/>
        <pt x="414" y="321" on="1"/>
        <pt x="414" y="286" on="0"/>
        <pt x="390" y="223" on="0"/>
        <pt x="343" y="175" on="0"/>
        <pt x="274" y="147" on="0"/>
      </contour>
    </TTGlyph>
    <TTGlyph name="bullet.cap" xMin="45" yMin="175" xMax="414" yMax="525">
      <component glyphName="bullet" x="0" y="28" flags="0x4"/>
    </TTGlyph>
    <TTGlyph name="c" xMin="31" yMin="-21" xMax="561" yMax="578">
      <contour>
        <pt x="364" y="-21" on="1"/>
        <pt x="291" y="-21" on="0"/>
        <pt x="168" y="17" on="0"/>
        <pt x="80" y="90" on="0"/>
        <pt x="31" y="199" on="0"/>
        <pt x="31" y="270" on="1"/>
        <pt x="31" y="339" on="0"/>
        <pt x="80" y="454" on="0"/>
        <pt x="169" y="534" on="0"/>
        <pt x="292" y="578" on="0"/>
        <pt x="365" y="578" on="1"/>
        <pt x="420" y="578" on="0"/>
        <pt x="521" y="554" on="0"/>
        <pt x="561" y="529" on="1"/>
        <pt x="561" y="342" on="1"/>
        <pt x="560" y="342" on="1"/>
        <pt x="524" y="367" on="0"/>
        <pt x="439" y="395" on="0"/>
        <pt x="396" y="395" on="1"/>
        <pt x="340" y="395" on="0"/>
        <pt x="263" y="333" on="0"/>
        <pt x="263" y="276" on="1"/>
        <pt x="263" y="222" on="0"/>
        <pt x="337" y="164" on="0"/>
        <pt x="396" y="164" on="1"/>
        <pt x="439" y="164" on="0"/>
        <pt x="524" y="191" on="0"/>
        <pt x="560" y="216" on="1"/>
        <pt x="561" y="216" on="1"/>
        <pt x="561" y="29" on="1"/>
        <pt x="520" y="4" on="0"/>
        <pt x="418" y="-21" on="0"/>
      </contour>
    </TTGlyph>
    <TTGlyph name="c.sc" xMin="43" yMin="-18" xMax="632" yMax="623">
      <contour>
        <pt x="404" y="-18" on="1"/>
        <pt x="322" y="-18" on="0"/>
        <pt x="187" y="25" on="0"/>
        <pt x="94" y="106" on="0"/>
        <pt x="43" y="226" on="0"/>
        <pt x="43" y="302" on="1"/>
        <pt x="43" y="378" on="0"/>
        <pt x="96" y="498" on="0"/>
        <pt x="191" y="580" on="0"/>
        <pt x="325" y="623" on="0"/>
        <pt x="405" y="623" on="1"/>
        <pt x="478" y="623" on="0"/>
        <pt x="588" y="594" on="0"/>
        <pt x="632" y="572" on="1"/>
        <pt x="632" y="366" on="1"/>
        <pt x="630" y="366" on="1"/>
        <pt x="580" y="398" on="0"/>
        <pt x="484" y="432" on="0"/>
        <pt x="433" y="432" on="1"/>
        <pt x="366" y="432" on="0"/>
        <pt x="278" y="365" on="0"/>
        <pt x="278" y="303" on="1"/>
        <pt x="278" y="238" on="0"/>
        <pt x="366" y="173" on="0"/>
        <pt x="431" y="173" on="1"/>
        <pt x="486" y="173" on="0"/>
        <pt x="582" y="210" on="0"/>
        <pt x="630" y="241" on="1"/>
        <pt x="632" y="241" on="1"/>
        <pt x="632" y="32" on="1"/>
        <pt x="595" y="14" on="0"/>
        <pt x="477" y="-18" on="0"/>
      </contour>
    </TTGlyph>
    <TTGlyph name="cacute" xMin="31" yMin="-21" xMax="616" yMax="816">
      <component glyphName="c" x="0" y="0" flags="0x204"/>
      <component glyphName="acute" x="156" y="4" flags="0x4"/>
    </TTGlyph>
    <TTGlyph name="cacute.sc" xMin="43" yMin="-18" xMax="654" yMax="877">
      <component glyphName="c.sc" x="0" y="0" flags="0x204"/>
      <component glyphName="acute" x="194" y="65" flags="0x4"/>
    </TTGlyph>
    <TTGlyph name="caron" xMin="-5" yMin="627" xMax="505" yMax="830">
      <contour>
        <pt x="505" y="830" on="1"/>
        <pt x="376" y="627" on="1"/>
        <pt x="124" y="627" on="1"/>
        <pt x="-5" y="830" on="1"/>
        <pt x="180" y="830" on="1"/>
        <pt x="232" y="752" on="1"/>
        <pt x="270" y="752" on="1"/>
        <pt x="322" y="830" on="1"/>
      </contour>
    </TTGlyph>
    <TTGlyph name="caron.alt" xMin="189" yMin="600" xMax="387" yMax="784">
      <contour>
        <pt x="189" y="600" on="1"/>
        <pt x="189" y="784" on="1"/>
        <pt x="387" y="784" on="1"/>
        <pt x="387" y="756" on="1"/>
        <pt x="306" y="600" on="1"/>
      </contour>
    </TTGlyph>
    <TTGlyph name="ccaron" xMin="31" yMin="-21" xMax="608" yMax="834">
      <component glyphName="c" x="0" y="0" flags="0x204"/>
      <component glyphName="caron" x="103" y="4" flags="0x4"/>
    </TTGlyph>
    <TTGlyph name="ccaron.sc" xMin="43" yMin="-18" xMax="646" yMax="895">
      <component glyphName="c.sc" x="0" y="0" flags="0x204"/>
      <component glyphName="caron" x="141" y="65" flags="0x4"/>
    </TTGlyph>
    <TTGlyph name="ccedilla" xMin="31" yMin="-201" xMax="561" yMax="578">
      <contour>
        <pt x="561" y="29" on="1"/>
        <pt x="532" y="12" on="0"/>
        <pt x="464" y="-12" on="0"/>
        <pt x="427" y="-17" on="1"/>
        <pt x="350" y="-201" on="1"/>
        <pt x="97" y="-201" on="1"/>
        <pt x="97" y="-178" on="1"/>
        <pt x="254" y="-9" on="1"/>
        <pt x="153" y="15" on="0"/>
        <pt x="31" y="157" on="0"/>
        <pt x="31" y="270" on="1"/>
        <pt x="31" y="339" on="0"/>
        <pt x="80" y="454" on="0"/>
        <pt x="169" y="534" on="0"/>
        <pt x="292" y="578" on="0"/>
        <pt x="365" y="578" on="1"/>
        <pt x="420" y="578" on="0"/>
        <pt x="521" y="554" on="0"/>
        <pt x="561" y="529" on="1"/>
        <pt x="561" y="342" on="1"/>
        <pt x="560" y="342" on="1"/>
        <pt x="524" y="367" on="0"/>
        <pt x="439" y="395" on="0"/>
        <pt x="396" y="395" on="1"/>
        <pt x="340" y="395" on="0"/>
        <pt x="263" y="333" on="0"/>
        <pt x="263" y="276" on="1"/>
        <pt x="263" y="222" on="0"/>
        <pt x="337" y="164" on="0"/>
        <pt x="396" y="164" on="1"/>
        <pt x="439" y="164" on="0"/>
        <pt x="524" y="191" on="0"/>
        <pt x="560" y="216" on="1"/>
        <pt x="561" y="216" on="1"/>
      </contour>
    </TTGlyph>
    <TTGlyph name="ccedilla.sc" xMin="43" yMin="-199" xMax="632" yMax="623">
      <contour>
        <pt x="632" y="32" on="1"/>
        <pt x="604" y="19" on="0"/>
        <pt x="521" y="-8" on="0"/>
        <pt x="470" y="-14" on="1"/>
        <pt x="393" y="-199" on="1"/>
        <pt x="140" y="-199" on="1"/>
        <pt x="140" y="-176" on="1"/>
        <pt x="296" y="-8" on="1"/>
        <pt x="178" y="17" on="0"/>
        <pt x="43" y="176" on="0"/>
        <pt x="43" y="302" on="1"/>
        <pt x="43" y="378" on="0"/>
        <pt x="96" y="498" on="0"/>
        <pt x="191" y="580" on="0"/>
        <pt x="325" y="623" on="0"/>
        <pt x="405" y="623" on="1"/>
        <pt x="478" y="623" on="0"/>
        <pt x="588" y="594" on="0"/>
        <pt x="632" y="572" on="1"/>
        <pt x="632" y="366" on="1"/>
        <pt x="630" y="366" on="1"/>
        <pt x="580" y="398" on="0"/>
        <pt x="484" y="432" on="0"/>
        <pt x="433" y="432" on="1"/>
        <pt x="366" y="432" on="0"/>
        <pt x="278" y="365" on="0"/>
        <pt x="278" y="303" on="1"/>
        <pt x="278" y="238" on="0"/>
        <pt x="366" y="173" on="0"/>
        <pt x="431" y="173" on="1"/>
        <pt x="486" y="173" on="0"/>
        <pt x="582" y="210" on="0"/>
        <pt x="630" y="241" on="1"/>
        <pt x="632" y="241" on="1"/>
      </contour>
    </TTGlyph>
    <TTGlyph name="cdotaccent" xMin="31" yMin="-21" xMax="561" yMax="832">
      <component glyphName="c" x="0" y="0" flags="0x204"/>
      <component glyphName="dotaccent" x="105" y="4" flags="0x4"/>
    </TTGlyph>
    <TTGlyph name="cdotaccent.sc" xMin="43" yMin="-18" xMax="632" yMax="893">
      <component glyphName="c.sc" x="0" y="0" flags="0x204"/>
      <component glyphName="dotaccent" x="142" y="65" flags="0x4"/>
    </TTGlyph>
    <TTGlyph name="cedilla" xMin="26" yMin="-197" xMax="361" yMax="0">
      <contour>
        <pt x="361" y="0" on="1"/>
        <pt x="279" y="-197" on="1"/>
        <pt x="26" y="-197" on="1"/>
        <pt x="26" y="-174" on="1"/>
        <pt x="187" y="0" on="1"/>
      </contour>
    </TTGlyph>
    <TTGlyph name="cent" xMin="46" yMin="-42" xMax="547" yMax="722">
      <contour>
        <pt x="238" y="-42" on="1"/>
        <pt x="238" y="93" on="1"/>
        <pt x="151" y="118" on="0"/>
        <pt x="46" y="247" on="0"/>
        <pt x="46" y="344" on="1"/>
        <pt x="46" y="440" on="0"/>
        <pt x="153" y="572" on="0"/>
        <pt x="241" y="597" on="1"/>
        <pt x="241" y="722" on="1"/>
        <pt x="444" y="722" on="1"/>
        <pt x="444" y="604" on="1"/>
        <pt x="472" y="599" on="0"/>
        <pt x="524" y="579" on="0"/>
        <pt x="547" y="566" on="1"/>
        <pt x="547" y="396" on="1"/>
        <pt x="545" y="396" on="1"/>
        <pt x="509" y="421" on="0"/>
        <pt x="423" y="448" on="0"/>
        <pt x="383" y="448" on="1"/>
        <pt x="329" y="448" on="0"/>
        <pt x="256" y="393" on="0"/>
        <pt x="256" y="344" on="1"/>
        <pt x="256" y="293" on="0"/>
        <pt x="330" y="242" on="0"/>
        <pt x="388" y="242" on="1"/>
        <pt x="425" y="242" on="0"/>
        <pt x="509" y="269" on="0"/>
        <pt x="545" y="294" on="1"/>
        <pt x="547" y="294" on="1"/>
        <pt x="547" y="124" on="1"/>
        <pt x="524" y="111" on="0"/>
        <pt x="470" y="91" on="0"/>
        <pt x="442" y="85" on="1"/>
        <pt x="442" y="-28" on="1"/>
      </contour>
    </TTGlyph>
    <TTGlyph name="cent.tab" xMin="97" yMin="-42" xMax="615" yMax="721">
      <contour>
        <pt x="297" y="-42" on="1"/>
        <pt x="297" y="92" on="1"/>
        <pt x="206" y="117" on="0"/>
        <pt x="97" y="247" on="0"/>
        <pt x="97" y="344" on="1"/>
        <pt x="97" y="440" on="0"/>
        <pt x="208" y="573" on="0"/>
        <pt x="300" y="598" on="1"/>
        <pt x="300" y="721" on="1"/>
        <pt x="505" y="721" on="1"/>
        <pt x="505" y="605" on="1"/>
        <pt x="536" y="599" on="0"/>
        <pt x="591" y="577" on="0"/>
        <pt x="615" y="561" on="1"/>
        <pt x="615" y="396" on="1"/>
        <pt x="613" y="396" on="1"/>
        <pt x="576" y="421" on="0"/>
        <pt x="487" y="448" on="0"/>
        <pt x="443" y="448" on="1"/>
        <pt x="385" y="448" on="0"/>
        <pt x="308" y="393" on="0"/>
        <pt x="308" y="344" on="1"/>
        <pt x="308" y="293" on="0"/>
        <pt x="385" y="242" on="0"/>
        <pt x="448" y="242" on="1"/>
        <pt x="488" y="242" on="0"/>
        <pt x="576" y="269" on="0"/>
        <pt x="613" y="294" on="1"/>
        <pt x="615" y="294" on="1"/>
        <pt x="615" y="128" on="1"/>
        <pt x="590" y="112" on="0"/>
        <pt x="531" y="91" on="0"/>
        <pt x="500" y="85" on="1"/>
        <pt x="500" y="-28" on="1"/>
      </contour>
    </TTGlyph>
    <TTGlyph name="circle.checked" xMin="109" yMin="-46" xMax="969" yMax="746">
      <contour>
        <pt x="539" y="-46" on="1"/>
        <pt x="442" y="-46" on="0"/>
        <pt x="282" y="11" on="0"/>
        <pt x="170" y="113" on="0"/>
        <pt x="109" y="260" on="0"/>
        <pt x="109" y="350" on="1"/>
        <pt x="109" y="439" on="0"/>
        <pt x="170" y="586" on="0"/>
        <pt x="282" y="689" on="0"/>
        <pt x="442" y="746" on="0"/>
        <pt x="539" y="746" on="1"/>
        <pt x="637" y="746" on="0"/>
        <pt x="796" y="689" on="0"/>
        <pt x="908" y="587" on="0"/>
        <pt x="969" y="440" on="0"/>
        <pt x="969" y="350" on="1"/>
        <pt x="969" y="261" on="0"/>
        <pt x="908" y="114" on="0"/>
        <pt x="796" y="11" on="0"/>
        <pt x="636" y="-46" on="0"/>
      </contour>
      <contour>
        <pt x="539" y="148" on="1"/>
        <pt x="634" y="148" on="0"/>
        <pt x="748" y="261" on="0"/>
        <pt x="748" y="350" on="1"/>
        <pt x="748" y="439" on="0"/>
        <pt x="634" y="552" on="0"/>
        <pt x="539" y="552" on="1"/>
        <pt x="444" y="552" on="0"/>
        <pt x="330" y="439" on="0"/>
        <pt x="330" y="350" on="1"/>
        <pt x="330" y="261" on="0"/>
        <pt x="444" y="148" on="0"/>
      </contour>
      <contour>
        <pt x="539" y="230" on="1"/>
        <pt x="482" y="230" on="0"/>
        <pt x="413" y="297" on="0"/>
        <pt x="413" y="350" on="1"/>
        <pt x="413" y="403" on="0"/>
        <pt x="482" y="470" on="0"/>
        <pt x="539" y="470" on="1"/>
        <pt x="596" y="470" on="0"/>
        <pt x="665" y="403" on="0"/>
        <pt x="665" y="350" on="1"/>
        <pt x="665" y="297" on="0"/>
        <pt x="596" y="230" on="0"/>
      </contour>
    </TTGlyph>
    <TTGlyph name="circle.half" xMin="109" yMin="-46" xMax="969" yMax="746">
      <contour>
        <pt x="539" y="-46" on="1"/>
        <pt x="442" y="-46" on="0"/>
        <pt x="282" y="11" on="0"/>
        <pt x="170" y="113" on="0"/>
        <pt x="109" y="260" on="0"/>
        <pt x="109" y="350" on="1"/>
        <pt x="109" y="439" on="0"/>
        <pt x="170" y="586" on="0"/>
        <pt x="282" y="689" on="0"/>
        <pt x="442" y="746" on="0"/>
        <pt x="539" y="746" on="1"/>
        <pt x="637" y="746" on="0"/>
        <pt x="796" y="689" on="0"/>
        <pt x="908" y="587" on="0"/>
        <pt x="969" y="440" on="0"/>
        <pt x="969" y="350" on="1"/>
        <pt x="969" y="261" on="0"/>
        <pt x="908" y="114" on="0"/>
        <pt x="796" y="11" on="0"/>
        <pt x="636" y="-46" on="0"/>
      </contour>
      <contour>
        <pt x="519" y="140" on="1"/>
        <pt x="565" y="140" on="0"/>
        <pt x="645" y="168" on="0"/>
        <pt x="704" y="221" on="0"/>
        <pt x="738" y="300" on="0"/>
        <pt x="738" y="350" on="1"/>
        <pt x="738" y="400" on="0"/>
        <pt x="704" y="479" on="0"/>
        <pt x="645" y="532" on="0"/>
        <pt x="565" y="560" on="0"/>
        <pt x="519" y="560" on="1"/>
      </contour>
    </TTGlyph>
    <TTGlyph name="circle.open" xMin="109" yMin="-46" xMax="969" yMax="746">
      <contour>
        <pt x="539" y="-46" on="1"/>
        <pt x="442" y="-46" on="0"/>
        <pt x="282" y="11" on="0"/>
        <pt x="170" y="113" on="0"/>
        <pt x="109" y="260" on="0"/>
        <pt x="109" y="350" on="1"/>
        <pt x="109" y="439" on="0"/>
        <pt x="170" y="586" on="0"/>
        <pt x="282" y="689" on="0"/>
        <pt x="442" y="746" on="0"/>
        <pt x="539" y="746" on="1"/>
        <pt x="637" y="746" on="0"/>
        <pt x="796" y="689" on="0"/>
        <pt x="908" y="587" on="0"/>
        <pt x="969" y="440" on="0"/>
        <pt x="969" y="350" on="1"/>
        <pt x="969" y="261" on="0"/>
        <pt x="908" y="114" on="0"/>
        <pt x="796" y="11" on="0"/>
        <pt x="636" y="-46" on="0"/>
      </contour>
      <contour>
        <pt x="539" y="148" on="1"/>
        <pt x="631" y="148" on="0"/>
        <pt x="737" y="261" on="0"/>
        <pt x="737" y="350" on="1"/>
        <pt x="737" y="439" on="0"/>
        <pt x="631" y="552" on="0"/>
        <pt x="539" y="552" on="1"/>
        <pt x="447" y="552" on="0"/>
        <pt x="341" y="439" on="0"/>
        <pt x="341" y="350" on="1"/>
        <pt x="341" y="261" on="0"/>
        <pt x="447" y="148" on="0"/>
      </contour>
    </TTGlyph>
    <TTGlyph name="circle.solid" xMin="109" yMin="-46" xMax="969" yMax="746">
      <contour>
        <pt x="539" y="-46" on="1"/>
        <pt x="442" y="-46" on="0"/>
        <pt x="282" y="11" on="0"/>
        <pt x="170" y="113" on="0"/>
        <pt x="109" y="260" on="0"/>
        <pt x="109" y="350" on="1"/>
        <pt x="109" y="439" on="0"/>
        <pt x="170" y="586" on="0"/>
        <pt x="282" y="689" on="0"/>
        <pt x="442" y="746" on="0"/>
        <pt x="539" y="746" on="1"/>
        <pt x="637" y="746" on="0"/>
        <pt x="796" y="689" on="0"/>
        <pt x="908" y="587" on="0"/>
        <pt x="969" y="440" on="0"/>
        <pt x="969" y="350" on="1"/>
        <pt x="969" y="261" on="0"/>
        <pt x="908" y="114" on="0"/>
        <pt x="796" y="11" on="0"/>
        <pt x="636" y="-46" on="0"/>
      </contour>
    </TTGlyph>
    <TTGlyph name="circumflex" xMin="-5" yMin="627" xMax="505" yMax="830">
      <contour>
        <pt x="-5" y="627" on="1"/>
        <pt x="124" y="830" on="1"/>
        <pt x="376" y="830" on="1"/>
        <pt x="505" y="627" on="1"/>
        <pt x="320" y="627" on="1"/>
        <pt x="268" y="705" on="1"/>
        <pt x="230" y="705" on="1"/>
        <pt x="179" y="627" on="1"/>
      </contour>
    </TTGlyph>
    <TTGlyph name="colon" xMin="81" yMin="-11" xMax="343" yMax="569">
      <contour>
        <pt x="211" y="333" on="1"/>
        <pt x="151" y="333" on="0"/>
        <pt x="81" y="398" on="0"/>
        <pt x="81" y="450" on="1"/>
        <pt x="81" y="451" on="1"/>
        <pt x="81" y="504" on="0"/>
        <pt x="151" y="569" on="0"/>
        <pt x="211" y="569" on="1"/>
        <pt x="273" y="569" on="0"/>
        <pt x="343" y="504" on="0"/>
        <pt x="343" y="452" on="1"/>
        <pt x="343" y="451" on="1"/>
        <pt x="343" y="398" on="0"/>
        <pt x="273" y="333" on="0"/>
      </contour>
      <contour>
        <pt x="211" y="-11" on="1"/>
        <pt x="151" y="-11" on="0"/>
        <pt x="81" y="54" on="0"/>
        <pt x="81" y="106" on="1"/>
        <pt x="81" y="107" on="1"/>
        <pt x="81" y="160" on="0"/>
        <pt x="151" y="225" on="0"/>
        <pt x="211" y="225" on="1"/>
        <pt x="273" y="225" on="0"/>
        <pt x="343" y="160" on="0"/>
        <pt x="343" y="108" on="1"/>
        <pt x="343" y="107" on="1"/>
        <pt x="343" y="54" on="0"/>
        <pt x="273" y="-11" on="0"/>
      </contour>
    </TTGlyph>
    <TTGlyph name="colon.fig" xMin="81" yMin="60" xMax="343" yMax="640">
      <component glyphName="colon" x="0" y="71" flags="0x4"/>
    </TTGlyph>
    <TTGlyph name="colon.tab" xMin="49" yMin="-11" xMax="311" yMax="569">
      <component glyphName="colon" x="-32" y="0" flags="0x4"/>
    </TTGlyph>
    <TTGlyph name="colonmonetary" xMin="21" yMin="-110" xMax="700" yMax="805">
      <contour>
        <pt x="113" y="-110" on="1"/>
        <pt x="159" y="57" on="1"/>
        <pt x="93" y="105" on="0"/>
        <pt x="21" y="253" on="0"/>
        <pt x="21" y="343" on="1"/>
        <pt x="21" y="415" on="0"/>
        <pt x="65" y="540" on="0"/>
        <pt x="148" y="636" on="0"/>
        <pt x="266" y="700" on="0"/>
        <pt x="339" y="712" on="1"/>
        <pt x="364" y="805" on="1"/>
        <pt x="504" y="805" on="1"/>
        <pt x="479" y="715" on="1"/>
        <pt x="492" y="714" on="0"/>
        <pt x="519" y="709" on="0"/>
        <pt x="532" y="705" on="1"/>
        <pt x="560" y="805" on="1"/>
        <pt x="700" y="805" on="1"/>
        <pt x="611" y="483" on="1"/>
        <pt x="610" y="483" on="1"/>
        <pt x="574" y="502" on="0"/>
        <pt x="493" y="525" on="0"/>
        <pt x="447" y="525" on="1"/>
        <pt x="358" y="525" on="0"/>
        <pt x="255" y="427" on="0"/>
        <pt x="255" y="347" on="1"/>
        <pt x="255" y="270" on="0"/>
        <pt x="357" y="174" on="0"/>
        <pt x="447" y="174" on="1"/>
        <pt x="494" y="174" on="0"/>
        <pt x="582" y="198" on="0"/>
        <pt x="622" y="218" on="1"/>
        <pt x="623" y="218" on="1"/>
        <pt x="623" y="23" on="1"/>
        <pt x="590" y="9" on="0"/>
        <pt x="514" y="-11" on="0"/>
        <pt x="474" y="-15" on="1"/>
        <pt x="448" y="-110" on="1"/>
        <pt x="308" y="-110" on="1"/>
        <pt x="335" y="-13" on="1"/>
        <pt x="322" y="-11" on="0"/>
        <pt x="296" y="-5" on="0"/>
        <pt x="283" y="-2" on="1"/>
        <pt x="253" y="-110" on="1"/>
      </contour>
    </TTGlyph>
    <TTGlyph name="comma" xMin="53" yMin="-170" xMax="343" yMax="191">
      <contour>
        <pt x="53" y="-170" on="1"/>
        <pt x="103" y="191" on="1"/>
        <pt x="343" y="191" on="1"/>
        <pt x="343" y="135" on="1"/>
        <pt x="183" y="-170" on="1"/>
      </contour>
    </TTGlyph>
    <TTGlyph name="comma.tab" xMin="34" yMin="-170" xMax="324" yMax="191">
      <component glyphName="comma" x="-19" y="0" flags="0x4"/>
    </TTGlyph>
    <TTGlyph name="copyright" xMin="35" yMin="-69" xMax="959" yMax="777">
      <contour>
        <pt x="497" y="-69" on="1"/>
        <pt x="394" y="-69" on="0"/>
        <pt x="223" y="-10" on="0"/>
        <pt x="102" y="99" on="0"/>
        <pt x="35" y="257" on="0"/>
        <pt x="35" y="354" on="1"/>
        <pt x="35" y="451" on="0"/>
        <pt x="102" y="609" on="0"/>
        <pt x="223" y="718" on="0"/>
        <pt x="394" y="777" on="0"/>
        <pt x="497" y="777" on="1"/>
        <pt x="600" y="777" on="0"/>
        <pt x="771" y="718" on="0"/>
        <pt x="892" y="609" on="0"/>
        <pt x="959" y="451" on="0"/>
        <pt x="959" y="354" on="1"/>
        <pt x="959" y="257" on="0"/>
        <pt x="892" y="99" on="0"/>
        <pt x="771" y="-10" on="0"/>
        <pt x="600" y="-69" on="0"/>
      </contour>
      <contour>
        <pt x="497" y="58" on="1"/>
        <pt x="643" y="58" on="0"/>
        <pt x="808" y="210" on="0"/>
        <pt x="808" y="354" on="1"/>
        <pt x="808" y="498" on="0"/>
        <pt x="643" y="650" on="0"/>
        <pt x="497" y="650" on="1"/>
        <pt x="351" y="650" on="0"/>
        <pt x="187" y="498" on="0"/>
        <pt x="187" y="354" on="1"/>
        <pt x="187" y="210" on="0"/>
        <pt x="351" y="58" on="0"/>
      </contour>
      <contour>
        <pt x="519" y="165" on="1"/>
        <pt x="421" y="165" on="0"/>
        <pt x="306" y="264" on="0"/>
        <pt x="306" y="354" on="1"/>
        <pt x="306" y="444" on="0"/>
        <pt x="425" y="544" on="0"/>
        <pt x="519" y="544" on="1"/>
        <pt x="563" y="544" on="0"/>
        <pt x="630" y="526" on="0"/>
        <pt x="657" y="511" on="1"/>
        <pt x="657" y="392" on="1"/>
        <pt x="655" y="392" on="1"/>
        <pt x="624" y="410" on="0"/>
        <pt x="569" y="427" on="0"/>
        <pt x="539" y="427" on="1"/>
        <pt x="500" y="427" on="0"/>
        <pt x="450" y="389" on="0"/>
        <pt x="450" y="355" on="1"/>
        <pt x="450" y="319" on="0"/>
        <pt x="500" y="284" on="0"/>
        <pt x="538" y="284" on="1"/>
        <pt x="569" y="284" on="0"/>
        <pt x="626" y="302" on="0"/>
        <pt x="655" y="320" on="1"/>
        <pt x="657" y="320" on="1"/>
        <pt x="657" y="197" on="1"/>
        <pt x="636" y="186" on="0"/>
        <pt x="564" y="165" on="0"/>
      </contour>
    </TTGlyph>
    <TTGlyph name="d" xMin="31" yMin="-19" xMax="681" yMax="784">
      <contour>
        <pt x="681" y="784" on="1"/>
        <pt x="681" y="0" on="1"/>
        <pt x="456" y="0" on="1"/>
        <pt x="454" y="78" on="1"/>
        <pt x="423" y="33" on="0"/>
        <pt x="338" y="-19" on="0"/>
        <pt x="275" y="-19" on="1"/>
        <pt x="219" y="-19" on="0"/>
        <pt x="129" y="21" on="0"/>
        <pt x="66" y="94" on="0"/>
        <pt x="31" y="197" on="0"/>
        <pt x="31" y="260" on="1"/>
        <pt x="31" y="331" on="0"/>
        <pt x="76" y="448" on="0"/>
        <pt x="154" y="529" on="0"/>
        <pt x="261" y="574" on="0"/>
        <pt x="323" y="574" on="1"/>
        <pt x="361" y="574" on="0"/>
        <pt x="422" y="560" on="0"/>
        <pt x="449" y="546" on="1"/>
        <pt x="449" y="784" on="1"/>
      </contour>
      <contour>
        <pt x="373" y="400" on="1"/>
        <pt x="326" y="400" on="0"/>
        <pt x="263" y="337" on="0"/>
        <pt x="263" y="275" on="1"/>
        <pt x="263" y="219" on="0"/>
        <pt x="319" y="158" on="0"/>
        <pt x="363" y="158" on="1"/>
        <pt x="388" y="158" on="0"/>
        <pt x="431" y="174" on="0"/>
        <pt x="449" y="187" on="1"/>
        <pt x="449" y="378" on="1"/>
        <pt x="432" y="388" on="0"/>
        <pt x="395" y="400" on="0"/>
      </contour>
    </TTGlyph>
    <TTGlyph name="d.sc" xMin="75" yMin="0" xMax="739" yMax="605">
      <contour>
        <pt x="75" y="0" on="1"/>
        <pt x="75" y="605" on="1"/>
        <pt x="429" y="605" on="1"/>
        <pt x="572" y="605" on="0"/>
        <pt x="739" y="450" on="0"/>
        <pt x="739" y="303" on="1"/>
        <pt x="739" y="156" on="0"/>
        <pt x="572" y="0" on="0"/>
        <pt x="429" y="0" on="1"/>
      </contour>
      <contour>
        <pt x="306" y="176" on="1"/>
        <pt x="390" y="176" on="1"/>
        <pt x="444" y="176" on="0"/>
        <pt x="507" y="233" on="0"/>
        <pt x="507" y="302" on="1"/>
        <pt x="507" y="371" on="0"/>
        <pt x="444" y="430" on="0"/>
        <pt x="390" y="430" on="1"/>
        <pt x="306" y="430" on="1"/>
      </contour>
    </TTGlyph>
    <TTGlyph name="dagger" xMin="42" yMin="168" xMax="488" yMax="700">
      <contour>
        <pt x="181" y="168" on="1"/>
        <pt x="181" y="435" on="1"/>
        <pt x="42" y="435" on="1"/>
        <pt x="52" y="582" on="1"/>
        <pt x="181" y="582" on="1"/>
        <pt x="181" y="700" on="1"/>
        <pt x="355" y="700" on="1"/>
        <pt x="355" y="582" on="1"/>
        <pt x="488" y="582" on="1"/>
        <pt x="488" y="435" on="1"/>
        <pt x="355" y="435" on="1"/>
        <pt x="355" y="168" on="1"/>
      </contour>
    </TTGlyph>
    <TTGlyph name="daggerdbl" xMin="42" yMin="107" xMax="493" yMax="700">
      <contour>
        <pt x="181" y="107" on="1"/>
        <pt x="181" y="223" on="1"/>
        <pt x="48" y="223" on="1"/>
        <pt x="48" y="357" on="1"/>
        <pt x="181" y="357" on="1"/>
        <pt x="181" y="449" on="1"/>
        <pt x="42" y="449" on="1"/>
        <pt x="52" y="584" on="1"/>
        <pt x="181" y="584" on="1"/>
        <pt x="181" y="700" on="1"/>
        <pt x="355" y="700" on="1"/>
        <pt x="355" y="584" on="1"/>
        <pt x="488" y="584" on="1"/>
        <pt x="488" y="449" on="1"/>
        <pt x="355" y="449" on="1"/>
        <pt x="355" y="357" on="1"/>
        <pt x="493" y="357" on="1"/>
        <pt x="484" y="223" on="1"/>
        <pt x="355" y="223" on="1"/>
        <pt x="355" y="107" on="1"/>
      </contour>
    </TTGlyph>
    <TTGlyph name="dcaron" xMin="31" yMin="-19" xMax="950" yMax="784">
      <component glyphName="d" x="0" y="0" flags="0x204"/>
      <component glyphName="caron.alt" x="563" y="0" flags="0x4"/>
    </TTGlyph>
    <TTGlyph name="dcaron.sc" xMin="75" yMin="0" xMax="739" yMax="877">
      <component glyphName="d.sc" x="0" y="0" flags="0x204"/>
      <component glyphName="caron" x="125" y="47" flags="0x4"/>
    </TTGlyph>
    <TTGlyph name="dcroat" xMin="31" yMin="-19" xMax="772" yMax="784">
      <contour>
        <pt x="772" y="580" on="1"/>
        <pt x="681" y="580" on="1"/>
        <pt x="681" y="0" on="1"/>
        <pt x="456" y="0" on="1"/>
        <pt x="454" y="77" on="1"/>
        <pt x="422" y="30" on="0"/>
        <pt x="337" y="-19" on="0"/>
        <pt x="275" y="-19" on="1"/>
        <pt x="219" y="-19" on="0"/>
        <pt x="129" y="19" on="0"/>
        <pt x="66" y="87" on="0"/>
        <pt x="31" y="183" on="0"/>
        <pt x="31" y="241" on="1"/>
        <pt x="31" y="308" on="0"/>
        <pt x="76" y="418" on="0"/>
        <pt x="154" y="496" on="0"/>
        <pt x="261" y="538" on="0"/>
        <pt x="323" y="538" on="1"/>
        <pt x="361" y="538" on="0"/>
        <pt x="422" y="524" on="0"/>
        <pt x="449" y="510" on="1"/>
        <pt x="449" y="580" on="1"/>
        <pt x="290" y="580" on="1"/>
        <pt x="290" y="703" on="1"/>
        <pt x="449" y="703" on="1"/>
        <pt x="449" y="784" on="1"/>
        <pt x="681" y="784" on="1"/>
        <pt x="681" y="703" on="1"/>
        <pt x="763" y="703" on="1"/>
      </contour>
      <contour>
        <pt x="373" y="364" on="1"/>
        <pt x="326" y="364" on="0"/>
        <pt x="263" y="308" on="0"/>
        <pt x="263" y="256" on="1"/>
        <pt x="263" y="210" on="0"/>
        <pt x="319" y="158" on="0"/>
        <pt x="363" y="158" on="1"/>
        <pt x="388" y="158" on="0"/>
        <pt x="431" y="174" on="0"/>
        <pt x="449" y="187" on="1"/>
        <pt x="449" y="342" on="1"/>
        <pt x="432" y="352" on="0"/>
        <pt x="395" y="364" on="0"/>
      </contour>
    </TTGlyph>
    <TTGlyph name="dcroat.sc" xMin="32" yMin="0" xMax="794" yMax="605">
      <component glyphName="eth.sc" x="0" y="0" flags="0x204"/>
    </TTGlyph>
    <TTGlyph name="degree" xMin="39" yMin="266" xMax="538" yMax="722">
      <contour>
        <pt x="289" y="266" on="1"/>
        <pt x="175" y="266" on="0"/>
        <pt x="39" y="390" on="0"/>
        <pt x="39" y="494" on="1"/>
        <pt x="39" y="598" on="0"/>
        <pt x="175" y="722" on="0"/>
        <pt x="289" y="722" on="1"/>
        <pt x="402" y="722" on="0"/>
        <pt x="538" y="598" on="0"/>
        <pt x="538" y="494" on="1"/>
        <pt x="538" y="390" on="0"/>
        <pt x="402" y="266" on="0"/>
      </contour>
      <contour>
        <pt x="289" y="407" on="1"/>
        <pt x="331" y="407" on="0"/>
        <pt x="374" y="454" on="0"/>
        <pt x="374" y="494" on="1"/>
        <pt x="374" y="534" on="0"/>
        <pt x="331" y="582" on="0"/>
        <pt x="289" y="582" on="1"/>
        <pt x="246" y="582" on="0"/>
        <pt x="203" y="534" on="0"/>
        <pt x="203" y="494" on="1"/>
        <pt x="203" y="454" on="0"/>
        <pt x="246" y="407" on="0"/>
      </contour>
    </TTGlyph>
    <TTGlyph name="degree.tab" xMin="68" yMin="266" xMax="567" yMax="722">
      <component glyphName="degree" x="29" y="0" flags="0x4"/>
    </TTGlyph>
    <TTGlyph name="dieresis" xMin="3" yMin="619" xMax="498" yMax="823">
      <contour>
        <pt x="113" y="619" on="1"/>
        <pt x="63" y="619" on="0"/>
        <pt x="3" y="675" on="0"/>
        <pt x="3" y="721" on="1"/>
        <pt x="3" y="767" on="0"/>
        <pt x="63" y="823" on="0"/>
        <pt x="114" y="823" on="1"/>
        <pt x="163" y="823" on="0"/>
        <pt x="222" y="767" on="0"/>
        <pt x="222" y="721" on="1"/>
        <pt x="222" y="675" on="0"/>
        <pt x="163" y="619" on="0"/>
      </contour>
      <contour>
        <pt x="388" y="619" on="1"/>
        <pt x="338" y="619" on="0"/>
        <pt x="279" y="675" on="0"/>
        <pt x="279" y="721" on="1"/>
        <pt x="279" y="767" on="0"/>
        <pt x="338" y="823" on="0"/>
        <pt x="388" y="823" on="1"/>
        <pt x="439" y="823" on="0"/>
        <pt x="498" y="767" on="0"/>
        <pt x="498" y="721" on="1"/>
        <pt x="498" y="675" on="0"/>
        <pt x="439" y="619" on="0"/>
      </contour>
    </TTGlyph>
    <TTGlyph name="divide" xMin="73" yMin="22" xMax="688" yMax="680">
      <contour>
        <pt x="380" y="680" on="1"/>
        <pt x="437" y="680" on="0"/>
        <pt x="499" y="624" on="0"/>
        <pt x="499" y="578" on="1"/>
        <pt x="499" y="532" on="0"/>
        <pt x="437" y="476" on="0"/>
        <pt x="380" y="476" on="1"/>
        <pt x="325" y="476" on="0"/>
        <pt x="261" y="532" on="0"/>
        <pt x="261" y="577" on="1"/>
        <pt x="261" y="578" on="1"/>
        <pt x="261" y="624" on="0"/>
        <pt x="325" y="680" on="0"/>
      </contour>
      <contour>
        <pt x="73" y="266" on="1"/>
        <pt x="73" y="435" on="1"/>
        <pt x="688" y="435" on="1"/>
        <pt x="688" y="266" on="1"/>
      </contour>
      <contour>
        <pt x="381" y="22" on="1"/>
        <pt x="325" y="22" on="0"/>
        <pt x="262" y="78" on="0"/>
        <pt x="262" y="123" on="1"/>
        <pt x="262" y="169" on="0"/>
        <pt x="325" y="226" on="0"/>
        <pt x="380" y="226" on="1"/>
        <pt x="437" y="226" on="0"/>
        <pt x="499" y="169" on="0"/>
        <pt x="499" y="124" on="1"/>
        <pt x="499" y="78" on="0"/>
        <pt x="437" y="22" on="0"/>
      </contour>
    </TTGlyph>
    <TTGlyph name="divide.tab" xMin="55" yMin="22" xMax="670" yMax="680">
      <component glyphName="divide" x="-18" y="0" flags="0x4"/>
    </TTGlyph>
    <TTGlyph name="dollar" xMin="75" yMin="-120" xMax="688" yMax="805">
      <contour>
        <pt x="272" y="-120" on="1"/>
        <pt x="272" y="15" on="1"/>
        <pt x="225" y="22" on="0"/>
        <pt x="131" y="47" on="0"/>
        <pt x="80" y="66" on="1"/>
        <pt x="80" y="256" on="1"/>
        <pt x="81" y="256" on="1"/>
        <pt x="167" y="213" on="0"/>
        <pt x="328" y="175" on="0"/>
        <pt x="388" y="175" on="1"/>
        <pt x="430" y="175" on="0"/>
        <pt x="473" y="193" on="0"/>
        <pt x="473" y="215" on="1"/>
        <pt x="473" y="225" on="0"/>
        <pt x="464" y="240" on="0"/>
        <pt x="436" y="252" on="0"/>
        <pt x="380" y="265" on="0"/>
        <pt x="334" y="273" on="1"/>
        <pt x="208" y="292" on="0"/>
        <pt x="75" y="379" on="0"/>
        <pt x="75" y="477" on="1"/>
        <pt x="75" y="552" on="0"/>
        <pt x="178" y="659" on="0"/>
        <pt x="275" y="680" on="1"/>
        <pt x="275" y="805" on="1"/>
        <pt x="483" y="805" on="1"/>
        <pt x="483" y="686" on="1"/>
        <pt x="522" y="680" on="0"/>
        <pt x="602" y="659" on="0"/>
        <pt x="643" y="643" on="1"/>
        <pt x="643" y="455" on="1"/>
        <pt x="642" y="455" on="1"/>
        <pt x="613" y="471" on="0"/>
        <pt x="544" y="498" on="0"/>
        <pt x="473" y="515" on="0"/>
        <pt x="405" y="525" on="0"/>
        <pt x="377" y="525" on="1"/>
        <pt x="331" y="525" on="0"/>
        <pt x="292" y="505" on="0"/>
        <pt x="292" y="486" on="1"/>
        <pt x="292" y="476" on="0"/>
        <pt x="301" y="462" on="0"/>
        <pt x="330" y="450" on="0"/>
        <pt x="388" y="439" on="0"/>
        <pt x="436" y="430" on="1"/>
        <pt x="558" y="411" on="0"/>
        <pt x="688" y="323" on="0"/>
        <pt x="688" y="222" on="1"/>
        <pt x="688" y="149" on="0"/>
        <pt x="588" y="36" on="0"/>
        <pt x="481" y="17" on="1"/>
        <pt x="481" y="-105" on="1"/>
      </contour>
    </TTGlyph>
    <TTGlyph name="dollar.tab" xMin="71" yMin="-120" xMax="680" yMax="805">
      <contour>
        <pt x="266" y="-120" on="1"/>
        <pt x="266" y="15" on="1"/>
        <pt x="220" y="22" on="0"/>
        <pt x="126" y="47" on="0"/>
        <pt x="75" y="66" on="1"/>
        <pt x="75" y="256" on="1"/>
        <pt x="76" y="256" on="1"/>
        <pt x="162" y="213" on="0"/>
        <pt x="323" y="175" on="0"/>
        <pt x="383" y="175" on="1"/>
        <pt x="424" y="175" on="0"/>
        <pt x="466" y="193" on="0"/>
        <pt x="466" y="215" on="1"/>
        <pt x="466" y="225" on="0"/>
        <pt x="457" y="240" on="0"/>
        <pt x="428" y="253" on="0"/>
        <pt x="374" y="265" on="0"/>
        <pt x="328" y="272" on="1"/>
        <pt x="201" y="291" on="0"/>
        <pt x="71" y="379" on="0"/>
        <pt x="71" y="477" on="1"/>
        <pt x="71" y="552" on="0"/>
        <pt x="173" y="660" on="0"/>
        <pt x="269" y="680" on="1"/>
        <pt x="269" y="805" on="1"/>
        <pt x="478" y="805" on="1"/>
        <pt x="478" y="685" on="1"/>
        <pt x="517" y="680" on="0"/>
        <pt x="596" y="659" on="0"/>
        <pt x="636" y="643" on="1"/>
        <pt x="636" y="455" on="1"/>
        <pt x="635" y="455" on="1"/>
        <pt x="606" y="471" on="0"/>
        <pt x="538" y="498" on="0"/>
        <pt x="468" y="515" on="0"/>
        <pt x="400" y="525" on="0"/>
        <pt x="372" y="525" on="1"/>
        <pt x="326" y="525" on="0"/>
        <pt x="287" y="505" on="0"/>
        <pt x="287" y="485" on="1"/>
        <pt x="287" y="461" on="0"/>
        <pt x="344" y="445" on="0"/>
        <pt x="430" y="431" on="1"/>
        <pt x="554" y="412" on="0"/>
        <pt x="680" y="323" on="0"/>
        <pt x="680" y="222" on="1"/>
        <pt x="680" y="148" on="0"/>
        <pt x="580" y="36" on="0"/>
        <pt x="475" y="17" on="1"/>
        <pt x="475" y="-105" on="1"/>
      </contour>
    </TTGlyph>
    <TTGlyph name="dotaccent" xMin="115" yMin="619" xMax="382" yMax="828">
      <contour>
        <pt x="248" y="619" on="1"/>
        <pt x="182" y="619" on="0"/>
        <pt x="115" y="676" on="0"/>
        <pt x="115" y="724" on="1"/>
        <pt x="115" y="772" on="0"/>
        <pt x="182" y="828" on="0"/>
        <pt x="249" y="828" on="1"/>
        <pt x="315" y="828" on="0"/>
        <pt x="382" y="772" on="0"/>
        <pt x="382" y="724" on="1"/>
        <pt x="382" y="676" on="0"/>
        <pt x="315" y="619" on="0"/>
      </contour>
    </TTGlyph>
    <TTGlyph name="dotlessi" xMin="62" yMin="0" xMax="294" yMax="559">
      <contour>
        <pt x="62" y="0" on="1"/>
        <pt x="62" y="559" on="1"/>
        <pt x="294" y="559" on="1"/>
        <pt x="294" y="0" on="1"/>
      </contour>
    </TTGlyph>
    <TTGlyph name="dotlessi.sc" xMin="76" yMin="0" xMax="308" yMax="605">
      <component glyphName="i.sc" x="0" y="0" flags="0x204"/>
    </TTGlyph>
    <TTGlyph name="dotmath" xMin="77" yMin="232" xMax="339" yMax="467">
      <contour>
        <pt x="207" y="232" on="1"/>
        <pt x="146" y="232" on="0"/>
        <pt x="77" y="297" on="0"/>
        <pt x="77" y="349" on="1"/>
        <pt x="77" y="402" on="0"/>
        <pt x="146" y="467" on="0"/>
        <pt x="207" y="467" on="1"/>
        <pt x="268" y="467" on="0"/>
        <pt x="339" y="402" on="0"/>
        <pt x="339" y="350" on="1"/>
        <pt x="339" y="297" on="0"/>
        <pt x="268" y="232" on="0"/>
      </contour>
    </TTGlyph>
    <TTGlyph name="dotmath.tab" xMin="50" yMin="232" xMax="312" yMax="467">
      <component glyphName="dotmath" x="-27" y="0" flags="0x4"/>
    </TTGlyph>
    <TTGlyph name="e" xMin="31" yMin="-20" xMax="642" yMax="581">
      <contour>
        <pt x="350" y="581" on="1"/>
        <pt x="422" y="581" on="0"/>
        <pt x="531" y="538" on="0"/>
        <pt x="605" y="462" on="0"/>
        <pt x="642" y="355" on="0"/>
        <pt x="642" y="292" on="1"/>
        <pt x="642" y="277" on="0"/>
        <pt x="639" y="245" on="0"/>
        <pt x="637" y="230" on="1"/>
        <pt x="259" y="230" on="1"/>
        <pt x="269" y="184" on="0"/>
        <pt x="344" y="149" on="0"/>
        <pt x="404" y="149" on="1"/>
        <pt x="425" y="149" on="0"/>
        <pt x="478" y="156" on="0"/>
        <pt x="531" y="168" on="0"/>
        <pt x="583" y="186" on="0"/>
        <pt x="604" y="197" on="1"/>
        <pt x="605" y="197" on="1"/>
        <pt x="605" y="31" on="1"/>
        <pt x="553" y="6" on="0"/>
        <pt x="430" y="-20" on="0"/>
        <pt x="369" y="-20" on="1"/>
        <pt x="212" y="-20" on="0"/>
        <pt x="31" y="127" on="0"/>
        <pt x="31" y="269" on="1"/>
        <pt x="31" y="339" on="0"/>
        <pt x="78" y="454" on="0"/>
        <pt x="162" y="536" on="0"/>
        <pt x="279" y="581" on="0"/>
      </contour>
      <contour>
        <pt x="352" y="420" on="1"/>
        <pt x="310" y="420" on="0"/>
        <pt x="265" y="369" on="0"/>
        <pt x="258" y="328" on="1"/>
        <pt x="446" y="328" on="1"/>
        <pt x="442" y="367" on="0"/>
        <pt x="393" y="420" on="0"/>
      </contour>
    </TTGlyph>
    <TTGlyph name="e.sc" xMin="75" yMin="0" xMax="648" yMax="605">
      <contour>
        <pt x="75" y="0" on="1"/>
        <pt x="75" y="605" on="1"/>
        <pt x="629" y="605" on="1"/>
        <pt x="639" y="441" on="1"/>
        <pt x="305" y="441" on="1"/>
        <pt x="305" y="370" on="1"/>
        <pt x="560" y="370" on="1"/>
        <pt x="560" y="234" on="1"/>
        <pt x="305" y="234" on="1"/>
        <pt x="305" y="164" on="1"/>
        <pt x="648" y="164" on="1"/>
        <pt x="638" y="0" on="1"/>
      </contour>
    </TTGlyph>
    <TTGlyph name="eacute" xMin="31" yMin="-20" xMax="642" yMax="816">
      <component glyphName="e" x="0" y="0" flags="0x204"/>
      <component glyphName="acute" x="155" y="4" flags="0x4"/>
    </TTGlyph>
    <TTGlyph name="eacute.sc" xMin="75" yMin="0" xMax="648" yMax="859">
      <component glyphName="e.sc" x="0" y="0" flags="0x204"/>
      <component glyphName="acute" x="161" y="47" flags="0x4"/>
    </TTGlyph>
    <TTGlyph name="ebreve" xMin="31" yMin="-20" xMax="642" yMax="850">
      <component glyphName="e" x="0" y="0" flags="0x204"/>
      <component glyphName="breve" x="102" y="4" flags="0x4"/>
    </TTGlyph>
    <TTGlyph name="ebreve.sc" xMin="75" yMin="0" xMax="648" yMax="893">
      <component glyphName="e.sc" x="0" y="0" flags="0x204"/>
      <component glyphName="breve" x="108" y="47" flags="0x4"/>
    </TTGlyph>
    <TTGlyph name="ecaron" xMin="31" yMin="-20" xMax="642" yMax="834">
      <component glyphName="e" x="0" y="0" flags="0x204"/>
      <component glyphName="caron" x="102" y="4" flags="0x4"/>
    </TTGlyph>
    <TTGlyph name="ecaron.sc" xMin="75" yMin="0" xMax="648" yMax="877">
      <component glyphName="e.sc" x="0" y="0" flags="0x204"/>
      <component glyphName="caron" x="108" y="47" flags="0x4"/>
    </TTGlyph>
    <TTGlyph name="ecircumflex" xMin="31" yMin="-20" xMax="642" yMax="834">
      <component glyphName="e" x="0" y="0" flags="0x204"/>
      <component glyphName="circumflex" x="102" y="4" flags="0x4"/>
    </TTGlyph>
    <TTGlyph name="ecircumflex.sc" xMin="75" yMin="0" xMax="648" yMax="877">
      <component glyphName="e.sc" x="0" y="0" flags="0x204"/>
      <component glyphName="circumflex" x="108" y="47" flags="0x4"/>
    </TTGlyph>
    <TTGlyph name="edieresis" xMin="31" yMin="-20" xMax="642" yMax="827">
      <component glyphName="e" x="0" y="0" flags="0x204"/>
      <component glyphName="dieresis" x="101" y="4" flags="0x4"/>
    </TTGlyph>
    <TTGlyph name="edieresis.sc" xMin="75" yMin="0" xMax="648" yMax="870">
      <component glyphName="e.sc" x="0" y="0" flags="0x204"/>
      <component glyphName="dieresis" x="108" y="47" flags="0x4"/>
    </TTGlyph>
    <TTGlyph name="edotaccent" xMin="31" yMin="-20" xMax="642" yMax="832">
      <component glyphName="e" x="0" y="0" flags="0x204"/>
      <component glyphName="dotaccent" x="103" y="4" flags="0x4"/>
    </TTGlyph>
    <TTGlyph name="edotaccent.sc" xMin="75" yMin="0" xMax="648" yMax="875">
      <component glyphName="e.sc" x="0" y="0" flags="0x204"/>
      <component glyphName="dotaccent" x="109" y="47" flags="0x4"/>
    </TTGlyph>
    <TTGlyph name="egrave" xMin="31" yMin="-20" xMax="642" yMax="816">
      <component glyphName="e" x="0" y="0" flags="0x204"/>
      <component glyphName="grave" x="50" y="4" flags="0x4"/>
    </TTGlyph>
    <TTGlyph name="egrave.sc" xMin="75" yMin="0" xMax="648" yMax="859">
      <component glyphName="e.sc" x="0" y="0" flags="0x204"/>
      <component glyphName="grave" x="56" y="47" flags="0x4"/>
    </TTGlyph>
    <TTGlyph name="eight" xMin="37" yMin="-24" xMax="716" yMax="723">
      <contour>
        <pt x="377" y="-24" on="1"/>
        <pt x="210" y="-24" on="0"/>
        <pt x="37" y="84" on="0"/>
        <pt x="37" y="184" on="1"/>
        <pt x="37" y="247" on="0"/>
        <pt x="106" y="330" on="0"/>
        <pt x="175" y="355" on="1"/>
        <pt x="116" y="378" on="0"/>
        <pt x="54" y="455" on="0"/>
        <pt x="54" y="512" on="1"/>
        <pt x="54" y="610" on="0"/>
        <pt x="221" y="723" on="0"/>
        <pt x="377" y="723" on="1"/>
        <pt x="532" y="723" on="0"/>
        <pt x="699" y="610" on="0"/>
        <pt x="699" y="512" on="1"/>
        <pt x="699" y="455" on="0"/>
        <pt x="637" y="378" on="0"/>
        <pt x="578" y="355" on="1"/>
        <pt x="647" y="330" on="0"/>
        <pt x="716" y="247" on="0"/>
        <pt x="716" y="184" on="1"/>
        <pt x="716" y="84" on="0"/>
        <pt x="544" y="-24" on="0"/>
      </contour>
      <contour>
        <pt x="377" y="418" on="1"/>
        <pt x="427" y="418" on="0"/>
        <pt x="485" y="453" on="0"/>
        <pt x="485" y="487" on="1"/>
        <pt x="485" y="521" on="0"/>
        <pt x="428" y="558" on="0"/>
        <pt x="377" y="558" on="1"/>
        <pt x="326" y="558" on="0"/>
        <pt x="268" y="521" on="0"/>
        <pt x="268" y="487" on="1"/>
        <pt x="268" y="453" on="0"/>
        <pt x="326" y="418" on="0"/>
      </contour>
      <contour>
        <pt x="377" y="143" on="1"/>
        <pt x="432" y="143" on="0"/>
        <pt x="494" y="182" on="0"/>
        <pt x="494" y="217" on="1"/>
        <pt x="494" y="252" on="0"/>
        <pt x="433" y="288" on="0"/>
        <pt x="377" y="288" on="1"/>
        <pt x="320" y="288" on="0"/>
        <pt x="259" y="252" on="0"/>
        <pt x="259" y="217" on="1"/>
        <pt x="259" y="182" on="0"/>
        <pt x="321" y="143" on="0"/>
      </contour>
    </TTGlyph>
    <TTGlyph name="eight.den" xMin="9" yMin="-14" xMax="415" yMax="438">
      <component glyphName="eight.small" x="-5" y="0" flags="0x4"/>
    </TTGlyph>
    <TTGlyph name="eight.inf" xMin="19" yMin="-224" xMax="425" yMax="228">
      <component glyphName="eight.small" x="5" y="-210" flags="0x4"/>
    </TTGlyph>
    <TTGlyph name="eight.num" xMin="19" yMin="263" xMax="425" yMax="715">
      <component glyphName="eight.small" x="5" y="277" flags="0x4"/>
    </TTGlyph>
    <TTGlyph name="eight.osf" xMin="34" yMin="-25" xMax="673" yMax="722">
      <contour>
        <pt x="354" y="-25" on="1"/>
        <pt x="285" y="-25" on="0"/>
        <pt x="168" y="0" on="0"/>
        <pt x="82" y="51" on="0"/>
        <pt x="34" y="131" on="0"/>
        <pt x="34" y="186" on="1"/>
        <pt x="34" y="253" on="0"/>
        <pt x="107" y="331" on="0"/>
        <pt x="165" y="355" on="1"/>
        <pt x="115" y="377" on="0"/>
        <pt x="51" y="449" on="0"/>
        <pt x="51" y="510" on="1"/>
        <pt x="51" y="562" on="0"/>
        <pt x="96" y="642" on="0"/>
        <pt x="176" y="695" on="0"/>
        <pt x="288" y="722" on="0"/>
        <pt x="354" y="722" on="1"/>
        <pt x="420" y="722" on="0"/>
        <pt x="532" y="695" on="0"/>
        <pt x="612" y="642" on="0"/>
        <pt x="657" y="562" on="0"/>
        <pt x="657" y="510" on="1"/>
        <pt x="657" y="449" on="0"/>
        <pt x="592" y="377" on="0"/>
        <pt x="543" y="355" on="1"/>
        <pt x="601" y="331" on="0"/>
        <pt x="673" y="253" on="0"/>
        <pt x="673" y="186" on="1"/>
        <pt x="673" y="131" on="0"/>
        <pt x="625" y="51" on="0"/>
        <pt x="541" y="0" on="0"/>
        <pt x="423" y="-25" on="0"/>
      </contour>
      <contour>
        <pt x="354" y="416" on="1"/>
        <pt x="399" y="416" on="0"/>
        <pt x="451" y="449" on="0"/>
        <pt x="451" y="486" on="1"/>
        <pt x="451" y="520" on="0"/>
        <pt x="400" y="558" on="0"/>
        <pt x="354" y="558" on="1"/>
        <pt x="308" y="558" on="0"/>
        <pt x="257" y="520" on="0"/>
        <pt x="257" y="486" on="1"/>
        <pt x="257" y="449" on="0"/>
        <pt x="309" y="416" on="0"/>
      </contour>
      <contour>
        <pt x="354" y="141" on="1"/>
        <pt x="405" y="141" on="0"/>
        <pt x="460" y="180" on="0"/>
        <pt x="460" y="217" on="1"/>
        <pt x="460" y="254" on="0"/>
        <pt x="402" y="289" on="0"/>
        <pt x="354" y="289" on="1"/>
        <pt x="306" y="289" on="0"/>
        <pt x="248" y="254" on="0"/>
        <pt x="248" y="217" on="1"/>
        <pt x="248" y="180" on="0"/>
        <pt x="304" y="141" on="0"/>
      </contour>
    </TTGlyph>
    <TTGlyph name="eight.small" xMin="14" yMin="-14" xMax="420" yMax="438">
      <contour>
        <pt x="217" y="-14" on="1"/>
        <pt x="114" y="-14" on="0"/>
        <pt x="14" y="50" on="0"/>
        <pt x="14" y="113" on="1"/>
        <pt x="14" y="150" on="0"/>
        <pt x="54" y="201" on="0"/>
        <pt x="97" y="216" on="1"/>
        <pt x="60" y="229" on="0"/>
        <pt x="24" y="274" on="0"/>
        <pt x="24" y="308" on="1"/>
        <pt x="24" y="370" on="0"/>
        <pt x="123" y="438" on="0"/>
        <pt x="217" y="438" on="1"/>
        <pt x="311" y="438" on="0"/>
        <pt x="410" y="370" on="0"/>
        <pt x="410" y="308" on="1"/>
        <pt x="410" y="274" on="0"/>
        <pt x="374" y="229" on="0"/>
        <pt x="337" y="216" on="1"/>
        <pt x="380" y="201" on="0"/>
        <pt x="420" y="150" on="0"/>
        <pt x="420" y="113" on="1"/>
        <pt x="420" y="50" on="0"/>
        <pt x="320" y="-14" on="0"/>
      </contour>
      <contour>
        <pt x="217" y="256" on="1"/>
        <pt x="245" y="256" on="0"/>
        <pt x="270" y="274" on="0"/>
        <pt x="270" y="290" on="1"/>
        <pt x="270" y="308" on="0"/>
        <pt x="245" y="327" on="0"/>
        <pt x="217" y="327" on="1"/>
        <pt x="189" y="327" on="0"/>
        <pt x="164" y="308" on="0"/>
        <pt x="164" y="290" on="1"/>
        <pt x="164" y="274" on="0"/>
        <pt x="189" y="256" on="0"/>
      </contour>
      <contour>
        <pt x="217" y="97" on="1"/>
        <pt x="247" y="97" on="0"/>
        <pt x="274" y="116" on="0"/>
        <pt x="274" y="134" on="1"/>
        <pt x="274" y="152" on="0"/>
        <pt x="248" y="171" on="0"/>
        <pt x="217" y="171" on="1"/>
        <pt x="186" y="171" on="0"/>
        <pt x="160" y="153" on="0"/>
        <pt x="160" y="134" on="1"/>
        <pt x="160" y="116" on="0"/>
        <pt x="187" y="97" on="0"/>
      </contour>
    </TTGlyph>
    <TTGlyph name="eight.sup" xMin="19" yMin="347" xMax="425" yMax="799">
      <component glyphName="eight.small" x="5" y="361" flags="0x4"/>
    </TTGlyph>
    <TTGlyph name="eight.tab" xMin="30" yMin="-24" xMax="695" yMax="723">
      <contour>
        <pt x="362" y="-24" on="1"/>
        <pt x="196" y="-24" on="0"/>
        <pt x="30" y="86" on="0"/>
        <pt x="30" y="186" on="1"/>
        <pt x="30" y="247" on="0"/>
        <pt x="99" y="330" on="0"/>
        <pt x="171" y="355" on="1"/>
        <pt x="108" y="378" on="0"/>
        <pt x="47" y="453" on="0"/>
        <pt x="47" y="510" on="1"/>
        <pt x="47" y="607" on="0"/>
        <pt x="207" y="723" on="0"/>
        <pt x="362" y="723" on="1"/>
        <pt x="516" y="723" on="0"/>
        <pt x="678" y="606" on="0"/>
        <pt x="678" y="510" on="1"/>
        <pt x="678" y="453" on="0"/>
        <pt x="617" y="378" on="0"/>
        <pt x="554" y="355" on="1"/>
        <pt x="626" y="330" on="0"/>
        <pt x="695" y="247" on="0"/>
        <pt x="695" y="186" on="1"/>
        <pt x="695" y="87" on="0"/>
        <pt x="529" y="-24" on="0"/>
      </contour>
      <contour>
        <pt x="362" y="417" on="1"/>
        <pt x="413" y="417" on="0"/>
        <pt x="465" y="452" on="0"/>
        <pt x="465" y="486" on="1"/>
        <pt x="465" y="519" on="0"/>
        <pt x="414" y="556" on="0"/>
        <pt x="362" y="556" on="1"/>
        <pt x="309" y="556" on="0"/>
        <pt x="259" y="520" on="0"/>
        <pt x="259" y="486" on="1"/>
        <pt x="259" y="452" on="0"/>
        <pt x="311" y="417" on="0"/>
      </contour>
      <contour>
        <pt x="362" y="143" on="1"/>
        <pt x="419" y="143" on="0"/>
        <pt x="474" y="182" on="0"/>
        <pt x="474" y="217" on="1"/>
        <pt x="474" y="251" on="0"/>
        <pt x="419" y="288" on="0"/>
        <pt x="362" y="288" on="1"/>
        <pt x="305" y="288" on="0"/>
        <pt x="250" y="252" on="0"/>
        <pt x="250" y="217" on="1"/>
        <pt x="250" y="182" on="0"/>
        <pt x="305" y="143" on="0"/>
      </contour>
    </TTGlyph>
    <TTGlyph name="ellipsis" xMin="75" yMin="-11" xMax="1142" yMax="225">
      <component glyphName="period" x="0" y="0" flags="0x4"/>
      <component glyphName="period" x="403" y="0" flags="0x4"/>
      <component glyphName="period" x="806" y="0" flags="0x4"/>
    </TTGlyph>
    <TTGlyph name="emacron" xMin="31" yMin="-20" xMax="642" yMax="798">
      <component glyphName="e" x="0" y="0" flags="0x204"/>
      <component glyphName="macron" x="102" y="4" flags="0x4"/>
    </TTGlyph>
    <TTGlyph name="emacron.sc" xMin="75" yMin="0" xMax="648" yMax="841">
      <component glyphName="e.sc" x="0" y="0" flags="0x204"/>
      <component glyphName="macron" x="108" y="47" flags="0x4"/>
    </TTGlyph>
    <TTGlyph name="emdash" xMin="58" yMin="231" xMax="814" yMax="421">
      <contour>
        <pt x="58" y="231" on="1"/>
        <pt x="58" y="421" on="1"/>
        <pt x="814" y="421" on="1"/>
        <pt x="814" y="231" on="1"/>
      </contour>
    </TTGlyph>
    <TTGlyph name="emdash.cap" xMin="58" yMin="255" xMax="814" yMax="445">
      <component glyphName="emdash" x="0" y="24" flags="0x4"/>
    </TTGlyph>
    <TTGlyph name="endash" xMin="58" yMin="231" xMax="624" yMax="421">
      <contour>
        <pt x="58" y="231" on="1"/>
        <pt x="58" y="421" on="1"/>
        <pt x="624" y="421" on="1"/>
        <pt x="624" y="231" on="1"/>
      </contour>
    </TTGlyph>
    <TTGlyph name="endash.cap" xMin="58" yMin="255" xMax="624" yMax="445">
      <component glyphName="endash" x="0" y="24" flags="0x4"/>
    </TTGlyph>
    <TTGlyph name="endash.tab" xMin="77" yMin="256" xMax="648" yMax="447">
      <contour>
        <pt x="77" y="256" on="1"/>
        <pt x="77" y="447" on="1"/>
        <pt x="648" y="447" on="1"/>
        <pt x="648" y="256" on="1"/>
      </contour>
    </TTGlyph>
    <TTGlyph name="eogonek" xMin="31" yMin="-321" xMax="642" yMax="581">
      <contour>
        <pt x="369" y="-20" on="1"/>
        <pt x="212" y="-20" on="0"/>
        <pt x="31" y="127" on="0"/>
        <pt x="31" y="269" on="1"/>
        <pt x="31" y="339" on="0"/>
        <pt x="78" y="454" on="0"/>
        <pt x="162" y="536" on="0"/>
        <pt x="279" y="581" on="0"/>
        <pt x="350" y="581" on="1"/>
        <pt x="422" y="581" on="0"/>
        <pt x="531" y="538" on="0"/>
        <pt x="605" y="462" on="0"/>
        <pt x="642" y="355" on="0"/>
        <pt x="642" y="292" on="1"/>
        <pt x="642" y="277" on="0"/>
        <pt x="639" y="245" on="0"/>
        <pt x="637" y="230" on="1"/>
        <pt x="259" y="230" on="1"/>
        <pt x="269" y="184" on="0"/>
        <pt x="344" y="149" on="0"/>
        <pt x="404" y="149" on="1"/>
        <pt x="425" y="149" on="0"/>
        <pt x="478" y="156" on="0"/>
        <pt x="531" y="168" on="0"/>
        <pt x="583" y="186" on="0"/>
        <pt x="604" y="197" on="1"/>
        <pt x="605" y="197" on="1"/>
        <pt x="605" y="31" on="1"/>
        <pt x="539" y="-40" on="1"/>
        <pt x="502" y="-81" on="0"/>
        <pt x="475" y="-118" on="0"/>
        <pt x="475" y="-136" on="1"/>
        <pt x="475" y="-153" on="0"/>
        <pt x="502" y="-171" on="0"/>
        <pt x="533" y="-171" on="1"/>
        <pt x="548" y="-171" on="0"/>
        <pt x="592" y="-164" on="0"/>
        <pt x="615" y="-155" on="1"/>
        <pt x="615" y="-300" on="1"/>
        <pt x="581" y="-311" on="0"/>
        <pt x="524" y="-321" on="0"/>
        <pt x="487" y="-321" on="1"/>
        <pt x="424" y="-321" on="0"/>
        <pt x="344" y="-296" on="0"/>
        <pt x="300" y="-259" on="0"/>
        <pt x="284" y="-216" on="0"/>
        <pt x="284" y="-197" on="1"/>
        <pt x="284" y="-149" on="0"/>
        <pt x="358" y="-68" on="0"/>
        <pt x="442" y="-16" on="1"/>
        <pt x="424" y="-18" on="0"/>
        <pt x="387" y="-20" on="0"/>
      </contour>
      <contour>
        <pt x="352" y="420" on="1"/>
        <pt x="310" y="420" on="0"/>
        <pt x="265" y="369" on="0"/>
        <pt x="258" y="328" on="1"/>
        <pt x="446" y="328" on="1"/>
        <pt x="442" y="367" on="0"/>
        <pt x="393" y="420" on="0"/>
      </contour>
    </TTGlyph>
    <TTGlyph name="eogonek.sc" xMin="75" yMin="-318" xMax="661" yMax="605">
      <component glyphName="e.sc" x="0" y="0" flags="0x204"/>
      <component glyphName="ogonek" x="236" y="0" flags="0x4"/>
    </TTGlyph>
    <TTGlyph name="equal" xMin="83" yMin="126" xMax="654" yMax="575">
      <contour>
        <pt x="83" y="397" on="1"/>
        <pt x="83" y="575" on="1"/>
        <pt x="654" y="575" on="1"/>
        <pt x="654" y="397" on="1"/>
      </contour>
      <contour>
        <pt x="83" y="126" on="1"/>
        <pt x="83" y="304" on="1"/>
        <pt x="654" y="304" on="1"/>
        <pt x="654" y="126" on="1"/>
      </contour>
    </TTGlyph>
    <TTGlyph name="equal.tab" xMin="76" yMin="126" xMax="647" yMax="575">
      <component glyphName="equal" x="-7" y="0" flags="0x4"/>
    </TTGlyph>
    <TTGlyph name="eth" xMin="27" yMin="-22" xMax="685" yMax="784">
      <contour>
        <pt x="342" y="-22" on="1"/>
        <pt x="196" y="-22" on="0"/>
        <pt x="27" y="123" on="0"/>
        <pt x="27" y="244" on="1"/>
        <pt x="27" y="311" on="0"/>
        <pt x="73" y="411" on="0"/>
        <pt x="147" y="475" on="0"/>
        <pt x="244" y="507" on="0"/>
        <pt x="294" y="507" on="1"/>
        <pt x="345" y="507" on="0"/>
        <pt x="424" y="477" on="0"/>
        <pt x="451" y="453" on="1"/>
        <pt x="441" y="484" on="0"/>
        <pt x="400" y="550" on="0"/>
        <pt x="371" y="584" on="1"/>
        <pt x="177" y="531" on="1"/>
        <pt x="177" y="651" on="1"/>
        <pt x="274" y="677" on="1"/>
        <pt x="241" y="703" on="0"/>
        <pt x="166" y="753" on="0"/>
        <pt x="124" y="775" on="1"/>
        <pt x="124" y="784" on="1"/>
        <pt x="393" y="784" on="1"/>
        <pt x="413" y="773" on="0"/>
        <pt x="453" y="746" on="0"/>
        <pt x="472" y="731" on="1"/>
        <pt x="667" y="784" on="1"/>
        <pt x="667" y="665" on="1"/>
        <pt x="570" y="638" on="1"/>
        <pt x="621" y="578" on="0"/>
        <pt x="685" y="423" on="0"/>
        <pt x="685" y="331" on="1"/>
        <pt x="685" y="238" on="0"/>
        <pt x="633" y="104" on="0"/>
        <pt x="542" y="19" on="0"/>
        <pt x="416" y="-22" on="0"/>
      </contour>
      <contour>
        <pt x="252" y="254" on="1"/>
        <pt x="252" y="206" on="0"/>
        <pt x="307" y="153" on="0"/>
        <pt x="350" y="153" on="1"/>
        <pt x="407" y="153" on="0"/>
        <pt x="461" y="230" on="0"/>
        <pt x="461" y="288" on="1"/>
        <pt x="461" y="298" on="0"/>
        <pt x="460" y="316" on="0"/>
        <pt x="459" y="325" on="1"/>
        <pt x="440" y="341" on="0"/>
        <pt x="387" y="361" on="0"/>
        <pt x="359" y="361" on="1"/>
        <pt x="311" y="361" on="0"/>
        <pt x="252" y="303" on="0"/>
      </contour>
    </TTGlyph>
    <TTGlyph name="eth.sc" xMin="32" yMin="0" xMax="794" yMax="605">
      <contour>
        <pt x="129" y="0" on="1"/>
        <pt x="129" y="228" on="1"/>
        <pt x="32" y="228" on="1"/>
        <pt x="43" y="380" on="1"/>
        <pt x="129" y="380" on="1"/>
        <pt x="129" y="605" on="1"/>
        <pt x="483" y="605" on="1"/>
        <pt x="626" y="605" on="0"/>
        <pt x="794" y="450" on="0"/>
        <pt x="794" y="303" on="1"/>
        <pt x="794" y="156" on="0"/>
        <pt x="626" y="0" on="0"/>
        <pt x="483" y="0" on="1"/>
      </contour>
      <contour>
        <pt x="357" y="173" on="1"/>
        <pt x="444" y="173" on="1"/>
        <pt x="498" y="173" on="0"/>
        <pt x="562" y="231" on="0"/>
        <pt x="562" y="302" on="1"/>
        <pt x="562" y="374" on="0"/>
        <pt x="498" y="433" on="0"/>
        <pt x="444" y="433" on="1"/>
        <pt x="357" y="433" on="1"/>
        <pt x="357" y="366" on="1"/>
        <pt x="468" y="366" on="1"/>
        <pt x="468" y="240" on="1"/>
        <pt x="357" y="240" on="1"/>
      </contour>
    </TTGlyph>
    <TTGlyph name="exclam" xMin="73" yMin="-11" xMax="353" yMax="700">
      <contour>
        <pt x="128" y="285" on="1"/>
        <pt x="73" y="674" on="1"/>
        <pt x="73" y="700" on="1"/>
        <pt x="353" y="700" on="1"/>
        <pt x="353" y="674" on="1"/>
        <pt x="297" y="285" on="1"/>
      </contour>
      <contour>
        <pt x="212" y="-11" on="1"/>
        <pt x="152" y="-11" on="0"/>
        <pt x="82" y="54" on="0"/>
        <pt x="82" y="106" on="1"/>
        <pt x="82" y="107" on="1"/>
        <pt x="82" y="160" on="0"/>
        <pt x="152" y="225" on="0"/>
        <pt x="212" y="225" on="1"/>
        <pt x="273" y="225" on="0"/>
        <pt x="344" y="160" on="0"/>
        <pt x="344" y="108" on="1"/>
        <pt x="344" y="107" on="1"/>
        <pt x="344" y="54" on="0"/>
        <pt x="273" y="-11" on="0"/>
      </contour>
    </TTGlyph>
    <TTGlyph name="exclamdown" xMin="73" yMin="-130" xMax="353" yMax="581">
      <contour>
        <pt x="213" y="581" on="1"/>
        <pt x="274" y="581" on="0"/>
        <pt x="343" y="515" on="0"/>
        <pt x="343" y="463" on="1"/>
        <pt x="343" y="410" on="0"/>
        <pt x="274" y="345" on="0"/>
        <pt x="213" y="345" on="1"/>
        <pt x="152" y="345" on="0"/>
        <pt x="81" y="410" on="0"/>
        <pt x="81" y="462" on="1"/>
        <pt x="81" y="463" on="1"/>
        <pt x="81" y="515" on="0"/>
        <pt x="152" y="581" on="0"/>
      </contour>
      <contour>
        <pt x="297" y="285" on="1"/>
        <pt x="353" y="-104" on="1"/>
        <pt x="353" y="-130" on="1"/>
        <pt x="73" y="-130" on="1"/>
        <pt x="73" y="-104" on="1"/>
        <pt x="128" y="285" on="1"/>
      </contour>
    </TTGlyph>
    <TTGlyph name="exclamdown.cap" xMin="73" yMin="0" xMax="353" yMax="711">
      <contour>
        <pt x="214" y="711" on="1"/>
        <pt x="274" y="711" on="0"/>
        <pt x="344" y="646" on="0"/>
        <pt x="344" y="594" on="1"/>
        <pt x="344" y="593" on="1"/>
        <pt x="344" y="540" on="0"/>
        <pt x="274" y="475" on="0"/>
        <pt x="214" y="475" on="1"/>
        <pt x="153" y="475" on="0"/>
        <pt x="82" y="540" on="0"/>
        <pt x="82" y="592" on="1"/>
        <pt x="82" y="593" on="1"/>
        <pt x="82" y="646" on="0"/>
        <pt x="153" y="711" on="0"/>
      </contour>
      <contour>
        <pt x="298" y="415" on="1"/>
        <pt x="353" y="26" on="1"/>
        <pt x="353" y="0" on="1"/>
        <pt x="73" y="0" on="1"/>
        <pt x="73" y="26" on="1"/>
        <pt x="129" y="415" on="1"/>
      </contour>
    </TTGlyph>
    <TTGlyph name="f" xMin="11" yMin="0" xMax="494" yMax="800">
      <contour>
        <pt x="125" y="0" on="1"/>
        <pt x="125" y="392" on="1"/>
        <pt x="11" y="392" on="1"/>
        <pt x="39" y="559" on="1"/>
        <pt x="125" y="559" on="1"/>
        <pt x="126" y="667" on="0"/>
        <pt x="235" y="800" on="0"/>
        <pt x="372" y="800" on="1"/>
        <pt x="403" y="800" on="0"/>
        <pt x="460" y="791" on="0"/>
        <pt x="484" y="784" on="1"/>
        <pt x="484" y="625" on="1"/>
        <pt x="483" y="625" on="1"/>
        <pt x="468" y="630" on="0"/>
        <pt x="435" y="635" on="0"/>
        <pt x="421" y="635" on="1"/>
        <pt x="384" y="635" on="0"/>
        <pt x="352" y="603" on="0"/>
        <pt x="352" y="562" on="1"/>
        <pt x="352" y="559" on="1"/>
        <pt x="494" y="559" on="1"/>
        <pt x="494" y="392" on="1"/>
        <pt x="352" y="392" on="1"/>
        <pt x="352" y="0" on="1"/>
      </contour>
    </TTGlyph>
    <TTGlyph name="f.sc" xMin="75" yMin="0" xMax="630" yMax="605">
      <contour>
        <pt x="75" y="0" on="1"/>
        <pt x="75" y="605" on="1"/>
        <pt x="621" y="605" on="1"/>
        <pt x="630" y="430" on="1"/>
        <pt x="307" y="430" on="1"/>
        <pt x="307" y="338" on="1"/>
        <pt x="573" y="338" on="1"/>
        <pt x="573" y="191" on="1"/>
        <pt x="307" y="191" on="1"/>
        <pt x="307" y="0" on="1"/>
      </contour>
    </TTGlyph>
    <TTGlyph name="five" xMin="57" yMin="-21" xMax="665" yMax="700">
      <contour>
        <pt x="340" y="-21" on="1"/>
        <pt x="268" y="-21" on="0"/>
        <pt x="123" y="-2" on="0"/>
        <pt x="57" y="20" on="1"/>
        <pt x="57" y="214" on="1"/>
        <pt x="58" y="214" on="1"/>
        <pt x="121" y="191" on="0"/>
        <pt x="269" y="164" on="0"/>
        <pt x="329" y="164" on="1"/>
        <pt x="398" y="164" on="0"/>
        <pt x="435" y="206" on="0"/>
        <pt x="435" y="223" on="1"/>
        <pt x="435" y="232" on="0"/>
        <pt x="429" y="246" on="0"/>
        <pt x="423" y="252" on="1"/>
        <pt x="407" y="268" on="0"/>
        <pt x="310" y="280" on="0"/>
        <pt x="199" y="280" on="1"/>
        <pt x="72" y="280" on="1"/>
        <pt x="82" y="700" on="1"/>
        <pt x="611" y="700" on="1"/>
        <pt x="621" y="519" on="1"/>
        <pt x="279" y="519" on="1"/>
        <pt x="277" y="440" on="1"/>
        <pt x="293" y="440" on="1"/>
        <pt x="406" y="440" on="0"/>
        <pt x="563" y="412" on="0"/>
        <pt x="612" y="363" on="1"/>
        <pt x="639" y="335" on="0"/>
        <pt x="665" y="264" on="0"/>
        <pt x="665" y="219" on="1"/>
        <pt x="665" y="162" on="0"/>
        <pt x="619" y="72" on="0"/>
        <pt x="534" y="11" on="0"/>
        <pt x="414" y="-21" on="0"/>
      </contour>
    </TTGlyph>
    <TTGlyph name="five.den" xMin="40" yMin="-15" xMax="405" yMax="423">
      <component glyphName="five.small" x="-5" y="0" flags="0x4"/>
    </TTGlyph>
    <TTGlyph name="five.inf" xMin="50" yMin="-225" xMax="415" yMax="213">
      <component glyphName="five.small" x="5" y="-210" flags="0x4"/>
    </TTGlyph>
    <TTGlyph name="five.num" xMin="50" yMin="262" xMax="415" yMax="700">
      <component glyphName="five.small" x="5" y="277" flags="0x4"/>
    </TTGlyph>
    <TTGlyph name="five.osf" xMin="56" yMin="-118" xMax="610" yMax="605">
      <contour>
        <pt x="308" y="-118" on="1"/>
        <pt x="238" y="-118" on="0"/>
        <pt x="120" y="-99" on="0"/>
        <pt x="56" y="-83" on="1"/>
        <pt x="56" y="106" on="1"/>
        <pt x="57" y="106" on="1"/>
        <pt x="117" y="86" on="0"/>
        <pt x="243" y="62" on="0"/>
        <pt x="289" y="62" on="1"/>
        <pt x="358" y="62" on="0"/>
        <pt x="393" y="109" on="0"/>
        <pt x="393" y="126" on="1"/>
        <pt x="393" y="138" on="0"/>
        <pt x="388" y="154" on="0"/>
        <pt x="382" y="160" on="1"/>
        <pt x="374" y="168" on="0"/>
        <pt x="350" y="178" on="0"/>
        <pt x="307" y="183" on="0"/>
        <pt x="239" y="185" on="0"/>
        <pt x="186" y="185" on="1"/>
        <pt x="70" y="185" on="1"/>
        <pt x="79" y="605" on="1"/>
        <pt x="564" y="605" on="1"/>
        <pt x="574" y="427" on="1"/>
        <pt x="274" y="427" on="1"/>
        <pt x="272" y="342" on="1"/>
        <pt x="318" y="342" on="1"/>
        <pt x="459" y="341" on="0"/>
        <pt x="610" y="242" on="0"/>
        <pt x="610" y="123" on="1"/>
        <pt x="610" y="65" on="0"/>
        <pt x="566" y="-26" on="0"/>
        <pt x="487" y="-86" on="0"/>
        <pt x="376" y="-118" on="0"/>
      </contour>
    </TTGlyph>
    <TTGlyph name="five.small" xMin="45" yMin="-15" xMax="410" yMax="423">
      <contour>
        <pt x="215" y="-15" on="1"/>
        <pt x="164" y="-15" on="0"/>
        <pt x="80" y="-3" on="0"/>
        <pt x="45" y="8" on="1"/>
        <pt x="45" y="134" on="1"/>
        <pt x="46" y="134" on="1"/>
        <pt x="80" y="125" on="0"/>
        <pt x="161" y="112" on="0"/>
        <pt x="198" y="112" on="1"/>
        <pt x="241" y="112" on="0"/>
        <pt x="262" y="127" on="0"/>
        <pt x="262" y="137" on="1"/>
        <pt x="262" y="141" on="0"/>
        <pt x="258" y="150" on="0"/>
        <pt x="252" y="153" on="1"/>
        <pt x="242" y="160" on="0"/>
        <pt x="189" y="166" on="0"/>
        <pt x="136" y="166" on="1"/>
        <pt x="50" y="166" on="1"/>
        <pt x="56" y="423" on="1"/>
        <pt x="384" y="423" on="1"/>
        <pt x="389" y="299" on="1"/>
        <pt x="187" y="299" on="1"/>
        <pt x="186" y="262" on="1"/>
        <pt x="191" y="262" on="1"/>
        <pt x="267" y="262" on="0"/>
        <pt x="353" y="243" on="0"/>
        <pt x="378" y="218" on="1"/>
        <pt x="394" y="201" on="0"/>
        <pt x="410" y="157" on="0"/>
        <pt x="410" y="129" on="1"/>
        <pt x="410" y="61" on="0"/>
        <pt x="305" y="-15" on="0"/>
      </contour>
    </TTGlyph>
    <TTGlyph name="five.sup" xMin="50" yMin="346" xMax="415" yMax="784">
      <component glyphName="five.small" x="5" y="361" flags="0x4"/>
    </TTGlyph>
    <TTGlyph name="five.tab" xMin="73" yMin="-21" xMax="680" yMax="700">
      <contour>
        <pt x="356" y="-21" on="1"/>
        <pt x="281" y="-21" on="0"/>
        <pt x="139" y="2" on="0"/>
        <pt x="73" y="25" on="1"/>
        <pt x="73" y="220" on="1"/>
        <pt x="74" y="220" on="1"/>
        <pt x="137" y="195" on="0"/>
        <pt x="281" y="164" on="0"/>
        <pt x="345" y="164" on="1"/>
        <pt x="415" y="164" on="0"/>
        <pt x="452" y="208" on="0"/>
        <pt x="452" y="224" on="1"/>
        <pt x="452" y="233" on="0"/>
        <pt x="448" y="247" on="0"/>
        <pt x="441" y="254" on="1"/>
        <pt x="425" y="270" on="0"/>
        <pt x="334" y="278" on="0"/>
        <pt x="230" y="278" on="1"/>
        <pt x="84" y="278" on="1"/>
        <pt x="94" y="700" on="1"/>
        <pt x="637" y="700" on="1"/>
        <pt x="644" y="519" on="1"/>
        <pt x="291" y="519" on="1"/>
        <pt x="289" y="437" on="1"/>
        <pt x="314" y="437" on="1"/>
        <pt x="444" y="437" on="0"/>
        <pt x="588" y="402" on="0"/>
        <pt x="628" y="361" on="1"/>
        <pt x="652" y="336" on="0"/>
        <pt x="680" y="267" on="0"/>
        <pt x="680" y="218" on="1"/>
        <pt x="680" y="161" on="0"/>
        <pt x="634" y="71" on="0"/>
        <pt x="550" y="11" on="0"/>
        <pt x="430" y="-21" on="0"/>
      </contour>
    </TTGlyph>
    <TTGlyph name="fiveeighths" xMin="50" yMin="-14" xMax="1127" yMax="700">
      <component glyphName="five.num" x="0" y="0" flags="0x4"/>
      <component glyphName="fraction" x="431" y="0" flags="0x4"/>
      <component glyphName="eight.den" x="712" y="0" flags="0x4"/>
    </TTGlyph>
    <TTGlyph name="fiveeighths.tab" xMin="50" yMin="-14" xMax="1067" yMax="700">
      <component glyphName="five.num" x="0" y="0" flags="0x4"/>
      <component glyphName="fraction.tab" x="434" y="0" flags="0x4"/>
      <component glyphName="eight.den" x="652" y="0" flags="0x4"/>
    </TTGlyph>
    <TTGlyph name="four" xMin="32" yMin="0" xMax="757" yMax="700">
      <contour>
        <pt x="427" y="0" on="1"/>
        <pt x="427" y="135" on="1"/>
        <pt x="32" y="135" on="1"/>
        <pt x="32" y="295" on="1"/>
        <pt x="239" y="700" on="1"/>
        <pt x="642" y="700" on="1"/>
        <pt x="642" y="314" on="1"/>
        <pt x="757" y="314" on="1"/>
        <pt x="747" y="135" on="1"/>
        <pt x="642" y="135" on="1"/>
        <pt x="642" y="0" on="1"/>
      </contour>
      <contour>
        <pt x="432" y="527" on="1"/>
        <pt x="371" y="527" on="1"/>
        <pt x="264" y="311" on="1"/>
        <pt x="432" y="311" on="1"/>
      </contour>
    </TTGlyph>
    <TTGlyph name="four.den" xMin="5" yMin="0" xMax="426" yMax="423">
      <component glyphName="four.small" x="-5" y="0" flags="0x4"/>
    </TTGlyph>
    <TTGlyph name="four.inf" xMin="15" yMin="-210" xMax="436" yMax="213">
      <component glyphName="four.small" x="5" y="-210" flags="0x4"/>
    </TTGlyph>
    <TTGlyph name="four.num" xMin="15" yMin="277" xMax="436" yMax="700">
      <component glyphName="four.small" x="5" y="277" flags="0x4"/>
    </TTGlyph>
    <TTGlyph name="four.osf" xMin="37" yMin="-95" xMax="733" yMax="605">
      <contour>
        <pt x="408" y="-95" on="1"/>
        <pt x="408" y="39" on="1"/>
        <pt x="37" y="39" on="1"/>
        <pt x="37" y="201" on="1"/>
        <pt x="218" y="605" on="1"/>
        <pt x="620" y="605" on="1"/>
        <pt x="620" y="213" on="1"/>
        <pt x="733" y="213" on="1"/>
        <pt x="723" y="39" on="1"/>
        <pt x="620" y="39" on="1"/>
        <pt x="620" y="-95" on="1"/>
      </contour>
      <contour>
        <pt x="262" y="208" on="1"/>
        <pt x="413" y="208" on="1"/>
        <pt x="413" y="432" on="1"/>
        <pt x="356" y="432" on="1"/>
      </contour>
    </TTGlyph>
    <TTGlyph name="four.small" xMin="10" yMin="0" xMax="431" yMax="423">
      <contour>
        <pt x="234" y="0" on="1"/>
        <pt x="234" y="74" on="1"/>
        <pt x="10" y="74" on="1"/>
        <pt x="10" y="185" on="1"/>
        <pt x="107" y="423" on="1"/>
        <pt x="380" y="423" on="1"/>
        <pt x="380" y="190" on="1"/>
        <pt x="431" y="190" on="1"/>
        <pt x="423" y="74" on="1"/>
        <pt x="380" y="74" on="1"/>
        <pt x="380" y="0" on="1"/>
      </contour>
      <contour>
        <pt x="153" y="186" on="1"/>
        <pt x="241" y="186" on="1"/>
        <pt x="241" y="307" on="1"/>
        <pt x="198" y="307" on="1"/>
      </contour>
    </TTGlyph>
    <TTGlyph name="four.sup" xMin="15" yMin="361" xMax="436" yMax="784">
      <component glyphName="four.small" x="5" y="361" flags="0x4"/>
    </TTGlyph>
    <TTGlyph name="four.tab" xMin="25" yMin="0" xMax="710" yMax="700">
      <contour>
        <pt x="410" y="0" on="1"/>
        <pt x="410" y="125" on="1"/>
        <pt x="25" y="125" on="1"/>
        <pt x="25" y="289" on="1"/>
        <pt x="198" y="700" on="1"/>
        <pt x="618" y="700" on="1"/>
        <pt x="618" y="302" on="1"/>
        <pt x="710" y="302" on="1"/>
        <pt x="700" y="125" on="1"/>
        <pt x="618" y="125" on="1"/>
        <pt x="618" y="0" on="1"/>
      </contour>
      <contour>
        <pt x="248" y="298" on="1"/>
        <pt x="415" y="298" on="1"/>
        <pt x="415" y="527" on="1"/>
        <pt x="340" y="527" on="1"/>
      </contour>
    </TTGlyph>
    <TTGlyph name="fraction" xMin="-197" yMin="0" xMax="477" yMax="700">
      <contour>
        <pt x="-197" y="1" on="1"/>
        <pt x="325" y="700" on="1"/>
        <pt x="477" y="700" on="1"/>
        <pt x="477" y="699" on="1"/>
        <pt x="-46" y="0" on="1"/>
        <pt x="-197" y="0" on="1"/>
      </contour>
    </TTGlyph>
    <TTGlyph name="fraction.tab" xMin="-228" yMin="0" xMax="446" yMax="700">
      <contour>
        <pt x="-228" y="1" on="1"/>
        <pt x="295" y="700" on="1"/>
        <pt x="446" y="700" on="1"/>
        <pt x="446" y="699" on="1"/>
        <pt x="-77" y="0" on="1"/>
        <pt x="-228" y="0" on="1"/>
      </contour>
    </TTGlyph>
    <TTGlyph name="g" xMin="3" yMin="-240" xMax="666" yMax="663">
      <contour>
        <pt x="327" y="168" on="1"/>
        <pt x="318" y="168" on="0"/>
        <pt x="300" y="168" on="0"/>
        <pt x="292" y="169" on="1"/>
        <pt x="286" y="128" on="1"/>
        <pt x="389" y="119" on="0"/>
        <pt x="533" y="88" on="0"/>
        <pt x="620" y="43" on="0"/>
        <pt x="659" y="-17" on="0"/>
        <pt x="659" y="-55" on="1"/>
        <pt x="659" y="-86" on="0"/>
        <pt x="628" y="-152" on="0"/>
        <pt x="551" y="-205" on="0"/>
        <pt x="420" y="-240" on="0"/>
        <pt x="320" y="-240" on="1"/>
        <pt x="160" y="-240" on="0"/>
        <pt x="3" y="-159" on="0"/>
        <pt x="3" y="-94" on="1"/>
        <pt x="3" y="-58" on="0"/>
        <pt x="50" y="-3" on="0"/>
        <pt x="106" y="22" on="1"/>
        <pt x="144" y="201" on="1"/>
        <pt x="94" y="223" on="0"/>
        <pt x="37" y="304" on="0"/>
        <pt x="37" y="362" on="1"/>
        <pt x="37" y="415" on="0"/>
        <pt x="81" y="495" on="0"/>
        <pt x="157" y="549" on="0"/>
        <pt x="262" y="576" on="0"/>
        <pt x="323" y="576" on="1"/>
        <pt x="342" y="576" on="0"/>
        <pt x="379" y="572" on="0"/>
        <pt x="396" y="569" on="1"/>
        <pt x="444" y="663" on="1"/>
        <pt x="666" y="663" on="1"/>
        <pt x="666" y="643" on="1"/>
        <pt x="532" y="514" on="1"/>
        <pt x="575" y="488" on="0"/>
        <pt x="616" y="416" on="0"/>
        <pt x="616" y="369" on="1"/>
        <pt x="616" y="318" on="0"/>
        <pt x="572" y="241" on="0"/>
        <pt x="495" y="192" on="0"/>
        <pt x="389" y="168" on="0"/>
      </contour>
      <contour>
        <pt x="327" y="297" on="1"/>
        <pt x="362" y="297" on="0"/>
        <pt x="406" y="334" on="0"/>
        <pt x="406" y="371" on="1"/>
        <pt x="406" y="408" on="0"/>
        <pt x="362" y="444" on="0"/>
        <pt x="327" y="444" on="1"/>
        <pt x="292" y="444" on="0"/>
        <pt x="248" y="407" on="0"/>
        <pt x="248" y="370" on="1"/>
        <pt x="248" y="333" on="0"/>
        <pt x="292" y="297" on="0"/>
      </contour>
      <contour>
        <pt x="346" y="-115" on="1"/>
        <pt x="398" y="-115" on="0"/>
        <pt x="462" y="-93" on="0"/>
        <pt x="462" y="-75" on="1"/>
        <pt x="462" y="-59" on="0"/>
        <pt x="337" y="-25" on="0"/>
        <pt x="183" y="-18" on="1"/>
        <pt x="177" y="-25" on="0"/>
        <pt x="172" y="-38" on="0"/>
        <pt x="172" y="-46" on="1"/>
        <pt x="172" y="-66" on="0"/>
        <pt x="201" y="-92" on="0"/>
        <pt x="249" y="-108" on="0"/>
        <pt x="312" y="-115" on="0"/>
      </contour>
    </TTGlyph>
    <TTGlyph name="g.sc" xMin="43" yMin="-21" xMax="736" yMax="623">
      <contour>
        <pt x="402" y="-21" on="1"/>
        <pt x="233" y="-21" on="0"/>
        <pt x="43" y="145" on="0"/>
        <pt x="43" y="293" on="1"/>
        <pt x="43" y="364" on="0"/>
        <pt x="94" y="486" on="0"/>
        <pt x="190" y="573" on="0"/>
        <pt x="332" y="623" on="0"/>
        <pt x="423" y="623" on="1"/>
        <pt x="490" y="623" on="0"/>
        <pt x="616" y="599" on="0"/>
        <pt x="664" y="577" on="1"/>
        <pt x="664" y="388" on="1"/>
        <pt x="663" y="388" on="1"/>
        <pt x="601" y="413" on="0"/>
        <pt x="496" y="437" on="0"/>
        <pt x="439" y="437" on="1"/>
        <pt x="358" y="437" on="0"/>
        <pt x="275" y="360" on="0"/>
        <pt x="275" y="289" on="1"/>
        <pt x="275" y="222" on="0"/>
        <pt x="351" y="152" on="0"/>
        <pt x="425" y="152" on="1"/>
        <pt x="468" y="152" on="0"/>
        <pt x="534" y="183" on="0"/>
        <pt x="535" y="219" on="1"/>
        <pt x="380" y="219" on="1"/>
        <pt x="380" y="357" on="1"/>
        <pt x="732" y="357" on="1"/>
        <pt x="734" y="338" on="0"/>
        <pt x="736" y="295" on="0"/>
        <pt x="736" y="276" on="1"/>
        <pt x="736" y="127" on="0"/>
        <pt x="559" y="-21" on="0"/>
      </contour>
    </TTGlyph>
    <TTGlyph name="gbreve" xMin="3" yMin="-240" xMax="666" yMax="905">
      <component glyphName="g" x="0" y="0" flags="0x204"/>
      <component glyphName="breve" x="80" y="59" flags="0x4"/>
    </TTGlyph>
    <TTGlyph name="gbreve.sc" xMin="43" yMin="-21" xMax="736" yMax="911">
      <component glyphName="g.sc" x="0" y="0" flags="0x204"/>
      <component glyphName="breve" x="160" y="65" flags="0x4"/>
    </TTGlyph>
    <TTGlyph name="gdotaccent" xMin="3" yMin="-240" xMax="666" yMax="887">
      <component glyphName="g" x="0" y="0" flags="0x204"/>
      <component glyphName="dotaccent" x="81" y="59" flags="0x4"/>
    </TTGlyph>
    <TTGlyph name="gdotaccent.sc" xMin="43" yMin="-21" xMax="736" yMax="893">
      <component glyphName="g.sc" x="0" y="0" flags="0x204"/>
      <component glyphName="dotaccent" x="162" y="65" flags="0x4"/>
    </TTGlyph>
    <TTGlyph name="germandbls" xMin="11" yMin="-15" xMax="806" yMax="800">
      <contour>
        <pt x="11" y="392" on="1"/>
        <pt x="39" y="559" on="1"/>
        <pt x="132" y="559" on="1"/>
        <pt x="154" y="675" on="0"/>
        <pt x="326" y="800" on="0"/>
        <pt x="455" y="800" on="1"/>
        <pt x="523" y="800" on="0"/>
        <pt x="630" y="767" on="0"/>
        <pt x="711" y="710" on="0"/>
        <pt x="770" y="632" on="0"/>
        <pt x="791" y="588" on="1"/>
        <pt x="632" y="417" on="1"/>
        <pt x="643" y="412" on="1"/>
        <pt x="730" y="369" on="0"/>
        <pt x="806" y="275" on="0"/>
        <pt x="806" y="202" on="1"/>
        <pt x="806" y="101" on="0"/>
        <pt x="670" y="-15" on="0"/>
        <pt x="562" y="-15" on="1"/>
        <pt x="516" y="-15" on="0"/>
        <pt x="446" y="-5" on="0"/>
        <pt x="412" y="5" on="1"/>
        <pt x="412" y="176" on="1"/>
        <pt x="413" y="176" on="1"/>
        <pt x="438" y="165" on="0"/>
        <pt x="488" y="154" on="0"/>
        <pt x="512" y="154" on="1"/>
        <pt x="546" y="154" on="0"/>
        <pt x="579" y="190" on="0"/>
        <pt x="579" y="216" on="1"/>
        <pt x="579" y="245" on="0"/>
        <pt x="536" y="280" on="0"/>
        <pt x="484" y="300" on="1"/>
        <pt x="433" y="320" on="1"/>
        <pt x="430" y="431" on="1"/>
        <pt x="553" y="570" on="1"/>
        <pt x="538" y="591" on="0"/>
        <pt x="493" y="615" on="0"/>
        <pt x="465" y="615" on="1"/>
        <pt x="413" y="615" on="0"/>
        <pt x="353" y="542" on="0"/>
        <pt x="353" y="458" on="1"/>
        <pt x="353" y="0" on="1"/>
        <pt x="125" y="0" on="1"/>
        <pt x="125" y="392" on="1"/>
      </contour>
    </TTGlyph>
    <TTGlyph name="germandbls.sc" xMin="60" yMin="-18" xMax="1356" yMax="623">
      <component glyphName="s.sc" x="0" y="0" flags="0x4"/>
      <component glyphName="s.sc" x="695" y="0" flags="0x4"/>
    </TTGlyph>
    <TTGlyph name="grave" xMin="41" yMin="627" xMax="412" yMax="812">
      <contour>
        <pt x="412" y="627" on="1"/>
        <pt x="218" y="627" on="1"/>
        <pt x="41" y="795" on="1"/>
        <pt x="41" y="812" on="1"/>
        <pt x="287" y="812" on="1"/>
      </contour>
    </TTGlyph>
    <TTGlyph name="greater" xMin="89" yMin="18" xMax="600" yMax="681">
      <contour>
        <pt x="89" y="681" on="1"/>
        <pt x="600" y="457" on="1"/>
        <pt x="600" y="242" on="1"/>
        <pt x="89" y="18" on="1"/>
        <pt x="89" y="234" on="1"/>
        <pt x="355" y="349" on="1"/>
        <pt x="89" y="465" on="1"/>
      </contour>
    </TTGlyph>
    <TTGlyph name="greater.tab" xMin="118" yMin="20" xMax="629" yMax="683">
      <component glyphName="greater" x="29" y="2" flags="0x4"/>
    </TTGlyph>
    <TTGlyph name="guillemotleft" xMin="28" yMin="39" xMax="772" yMax="519">
      <contour>
        <pt x="428" y="519" on="1"/>
        <pt x="250" y="279" on="1"/>
        <pt x="428" y="39" on="1"/>
        <pt x="199" y="39" on="1"/>
        <pt x="28" y="268" on="1"/>
        <pt x="28" y="290" on="1"/>
        <pt x="199" y="519" on="1"/>
      </contour>
      <contour>
        <pt x="772" y="519" on="1"/>
        <pt x="594" y="279" on="1"/>
        <pt x="772" y="39" on="1"/>
        <pt x="542" y="39" on="1"/>
        <pt x="371" y="268" on="1"/>
        <pt x="371" y="290" on="1"/>
        <pt x="542" y="519" on="1"/>
      </contour>
    </TTGlyph>
    <TTGlyph name="guillemotleft.cap" xMin="28" yMin="110" xMax="772" yMax="590">
      <component glyphName="guillemotleft" x="0" y="71" flags="0x4"/>
    </TTGlyph>
    <TTGlyph name="guillemotright" xMin="39" yMin="40" xMax="783" yMax="520">
      <contour>
        <pt x="383" y="40" on="1"/>
        <pt x="561" y="280" on="1"/>
        <pt x="383" y="520" on="1"/>
        <pt x="612" y="520" on="1"/>
        <pt x="783" y="291" on="1"/>
        <pt x="783" y="269" on="1"/>
        <pt x="612" y="40" on="1"/>
      </contour>
      <contour>
        <pt x="39" y="40" on="1"/>
        <pt x="217" y="280" on="1"/>
        <pt x="39" y="520" on="1"/>
        <pt x="269" y="520" on="1"/>
        <pt x="440" y="291" on="1"/>
        <pt x="440" y="269" on="1"/>
        <pt x="269" y="40" on="1"/>
      </contour>
    </TTGlyph>
    <TTGlyph name="guillemotright.cap" xMin="39" yMin="111" xMax="783" yMax="591">
      <component glyphName="guillemotright" x="0" y="71" flags="0x4"/>
    </TTGlyph>
    <TTGlyph name="guilsinglleft" xMin="28" yMin="39" xMax="453" yMax="519">
      <contour>
        <pt x="453" y="39" on="1"/>
        <pt x="199" y="39" on="1"/>
        <pt x="28" y="268" on="1"/>
        <pt x="28" y="290" on="1"/>
        <pt x="199" y="519" on="1"/>
        <pt x="453" y="519" on="1"/>
        <pt x="276" y="279" on="1"/>
      </contour>
    </TTGlyph>
    <TTGlyph name="guilsinglleft.cap" xMin="28" yMin="110" xMax="453" yMax="590">
      <component glyphName="guilsinglleft" x="0" y="71" flags="0x4"/>
    </TTGlyph>
    <TTGlyph name="guilsinglright" xMin="40" yMin="40" xMax="465" yMax="520">
      <contour>
        <pt x="40" y="520" on="1"/>
        <pt x="294" y="520" on="1"/>
        <pt x="465" y="291" on="1"/>
        <pt x="465" y="269" on="1"/>
        <pt x="294" y="40" on="1"/>
        <pt x="40" y="40" on="1"/>
        <pt x="217" y="280" on="1"/>
      </contour>
    </TTGlyph>
    <TTGlyph name="guilsinglright.cap" xMin="40" yMin="111" xMax="465" yMax="591">
      <component glyphName="guilsinglright" x="0" y="71" flags="0x4"/>
    </TTGlyph>
    <TTGlyph name="h" xMin="61" yMin="0" xMax="675" yMax="784">
      <contour>
        <pt x="61" y="0" on="1"/>
        <pt x="61" y="784" on="1"/>
        <pt x="293" y="784" on="1"/>
        <pt x="293" y="479" on="1"/>
        <pt x="332" y="526" on="0"/>
        <pt x="425" y="579" on="0"/>
        <pt x="489" y="579" on="1"/>
        <pt x="576" y="579" on="0"/>
        <pt x="675" y="472" on="0"/>
        <pt x="675" y="379" on="1"/>
        <pt x="675" y="0" on="1"/>
        <pt x="443" y="0" on="1"/>
        <pt x="443" y="314" on="1"/>
        <pt x="443" y="355" on="0"/>
        <pt x="409" y="386" on="0"/>
        <pt x="381" y="386" on="1"/>
        <pt x="356" y="386" on="0"/>
        <pt x="312" y="367" on="0"/>
        <pt x="293" y="351" on="1"/>
        <pt x="293" y="0" on="1"/>
      </contour>
    </TTGlyph>
    <TTGlyph name="h.sc" xMin="75" yMin="0" xMax="740" yMax="605">
      <contour>
        <pt x="75" y="0" on="1"/>
        <pt x="75" y="605" on="1"/>
        <pt x="307" y="605" on="1"/>
        <pt x="307" y="398" on="1"/>
        <pt x="507" y="398" on="1"/>
        <pt x="507" y="605" on="1"/>
        <pt x="740" y="605" on="1"/>
        <pt x="740" y="0" on="1"/>
        <pt x="507" y="0" on="1"/>
        <pt x="507" y="211" on="1"/>
        <pt x="307" y="211" on="1"/>
        <pt x="307" y="0" on="1"/>
      </contour>
    </TTGlyph>
    <TTGlyph name="hbar" xMin="-19" yMin="0" xMax="686" yMax="784">
      <contour>
        <pt x="72" y="0" on="1"/>
        <pt x="72" y="580" on="1"/>
        <pt x="-19" y="580" on="1"/>
        <pt x="-10" y="703" on="1"/>
        <pt x="72" y="703" on="1"/>
        <pt x="72" y="784" on="1"/>
        <pt x="304" y="784" on="1"/>
        <pt x="304" y="703" on="1"/>
        <pt x="463" y="703" on="1"/>
        <pt x="463" y="580" on="1"/>
        <pt x="304" y="580" on="1"/>
        <pt x="304" y="445" on="1"/>
        <pt x="343" y="491" on="0"/>
        <pt x="436" y="544" on="0"/>
        <pt x="500" y="544" on="1"/>
        <pt x="587" y="544" on="0"/>
        <pt x="686" y="437" on="0"/>
        <pt x="686" y="344" on="1"/>
        <pt x="686" y="0" on="1"/>
        <pt x="454" y="0" on="1"/>
        <pt x="454" y="279" on="1"/>
        <pt x="454" y="320" on="0"/>
        <pt x="420" y="351" on="0"/>
        <pt x="392" y="351" on="1"/>
        <pt x="367" y="351" on="0"/>
        <pt x="323" y="332" on="0"/>
        <pt x="304" y="316" on="1"/>
        <pt x="304" y="0" on="1"/>
      </contour>
    </TTGlyph>
    <TTGlyph name="hbar.sc" xMin="32" yMin="0" xMax="890" yMax="605">
      <contour>
        <pt x="129" y="0" on="1"/>
        <pt x="129" y="399" on="1"/>
        <pt x="32" y="399" on="1"/>
        <pt x="42" y="551" on="1"/>
        <pt x="129" y="551" on="1"/>
        <pt x="129" y="605" on="1"/>
        <pt x="358" y="605" on="1"/>
        <pt x="358" y="538" on="1"/>
        <pt x="565" y="538" on="1"/>
        <pt x="565" y="605" on="1"/>
        <pt x="793" y="605" on="1"/>
        <pt x="793" y="551" on="1"/>
        <pt x="880" y="551" on="1"/>
        <pt x="890" y="399" on="1"/>
        <pt x="793" y="399" on="1"/>
        <pt x="793" y="0" on="1"/>
        <pt x="565" y="0" on="1"/>
        <pt x="565" y="177" on="1"/>
        <pt x="358" y="177" on="1"/>
        <pt x="358" y="0" on="1"/>
      </contour>
      <contour>
        <pt x="358" y="348" on="1"/>
        <pt x="565" y="348" on="1"/>
        <pt x="565" y="413" on="1"/>
        <pt x="358" y="413" on="1"/>
      </contour>
    </TTGlyph>
</ttFont>
